<?xml version="1.0" encoding="utf-8"?>
<!-- Generator: Adobe Illustrator 27.0.0, SVG Export Plug-In . SVG Version: 6.00 Build 0)  -->
<svg version="1.1" id="Layer_1" xmlns="http://www.w3.org/2000/svg" xmlns:xlink="http://www.w3.org/1999/xlink" x="0px" y="0px"
	 viewBox="0 0 1767 247" style="enable-background:new 0 0 1767 247;" xml:space="preserve">
<style type="text/css">
	.st0{fill:#3290ED;}
	.st1{fill:#444444;}
	.st2{fill:#9D53F2;}
	.st3{fill:#26ABA4;}
	.st4{fill:#F7A452;}
	.st5{fill:#F2536D;}
	.st6{fill:#77B5F2;}
	.st7{fill:#181818;}
</style>
<g>
	<rect x="14" y="149" class="st0" width="60" height="61"/>
	<path class="st1" d="M28,237.6c-0.7,0.4-1.6,0.6-2.7,0.6c-1.4,0-2.5-0.4-3.3-1.3c-0.8-0.9-1.3-2.1-1.3-3.5c0-1.6,0.5-2.8,1.4-3.8
		c0.9-1,2.1-1.4,3.6-1.4c0.9,0,1.7,0.1,2.3,0.4v1.2c-0.7-0.4-1.5-0.6-2.3-0.6c-1.1,0-2,0.4-2.7,1.1c-0.7,0.8-1,1.8-1,3
		c0,1.2,0.3,2.1,1,2.9c0.7,0.7,1.5,1.1,2.6,1.1c1,0,1.8-0.2,2.6-0.7V237.6z M32.7,238.2c-1,0-1.9-0.3-2.5-1
		c-0.6-0.7-0.9-1.5-0.9-2.6c0-1.2,0.3-2.1,1-2.8c0.6-0.7,1.5-1,2.6-1c1,0,1.9,0.3,2.4,1c0.6,0.6,0.9,1.5,0.9,2.7c0,1.1-0.3,2-1,2.7
		C34.6,237.8,33.8,238.2,32.7,238.2z M32.8,231.8c-0.7,0-1.3,0.2-1.7,0.7c-0.4,0.5-0.6,1.2-0.6,2c0,0.8,0.2,1.5,0.6,2
		c0.4,0.5,1,0.7,1.7,0.7c0.7,0,1.3-0.2,1.7-0.7c0.4-0.5,0.6-1.1,0.6-2c0-0.9-0.2-1.6-0.6-2C34.1,232,33.5,231.8,32.8,231.8z
		 M39.1,238H38v-10.4h1.1V238z M44.3,238.2c-1,0-1.9-0.3-2.5-1c-0.6-0.7-0.9-1.5-0.9-2.6c0-1.2,0.3-2.1,1-2.8c0.6-0.7,1.5-1,2.6-1
		c1,0,1.9,0.3,2.4,1c0.6,0.6,0.9,1.5,0.9,2.7c0,1.1-0.3,2-1,2.7C46.2,237.8,45.4,238.2,44.3,238.2z M44.4,231.8
		c-0.7,0-1.3,0.2-1.7,0.7c-0.4,0.5-0.6,1.2-0.6,2c0,0.8,0.2,1.5,0.6,2c0.4,0.5,1,0.7,1.7,0.7c0.7,0,1.3-0.2,1.7-0.7
		c0.4-0.5,0.6-1.1,0.6-2c0-0.9-0.2-1.6-0.6-2C45.7,232,45.1,231.8,44.4,231.8z M53.2,232.1c-0.2-0.2-0.5-0.2-0.8-0.2
		c-0.5,0-0.9,0.2-1.2,0.7c-0.3,0.5-0.5,1.1-0.5,1.8v3.6h-1.1v-7h1.1v1.4h0c0.2-0.5,0.4-0.9,0.7-1.1c0.3-0.3,0.7-0.4,1.1-0.4
		c0.3,0,0.5,0,0.7,0.1V232.1z M62.1,238H61v-8.5c-0.1,0.1-0.2,0.2-0.4,0.3c-0.2,0.1-0.4,0.2-0.6,0.3c-0.2,0.1-0.4,0.2-0.7,0.3
		c-0.2,0.1-0.5,0.2-0.7,0.2v-1.1c0.2-0.1,0.5-0.2,0.8-0.3c0.3-0.1,0.5-0.2,0.8-0.4c0.3-0.1,0.5-0.3,0.8-0.5c0.2-0.2,0.4-0.3,0.6-0.5
		h0.4V238z"/>
	<path d="M4.6,118c0-1,0.2-1.9,0.6-2.7c0.4-0.8,1-1.4,1.7-1.8c0.8-0.4,1.7-0.7,2.7-0.7c0.7,0,1.3,0.1,2,0.3c0.6,0.2,1.1,0.5,1.5,0.9
		l-1,1.2c-0.3-0.3-0.7-0.5-1.1-0.6c-0.4-0.2-0.8-0.2-1.3-0.2c-1.1,0-1.9,0.3-2.4,1c-0.5,0.7-0.8,1.5-0.8,2.6c0,2.5,1.1,3.7,3.2,3.7
		c0.7,0,1.4-0.1,2-0.4v-2.2h-2v-1.4h3.7v4.6c-1.1,0.6-2.4,0.9-3.7,0.9c-1.1,0-2-0.2-2.8-0.7c-0.8-0.4-1.3-1.1-1.7-1.8
		C4.8,120,4.6,119.1,4.6,118z M15.5,117.4c0-0.4,0-0.9-0.1-1.7H17c0.1,0.4,0.1,0.7,0.1,1h0c0.4-0.8,1.1-1.2,2.2-1.2
		c0.2,0,0.3,0,0.4,0.1l-0.1,1.5c-0.1,0-0.3,0-0.5,0c-0.6,0-1.1,0.2-1.4,0.6c-0.3,0.4-0.5,0.9-0.5,1.5v3.8h-1.7V117.4z M27.9,119.3
		c0,0.8-0.2,1.4-0.5,2c-0.3,0.6-0.7,1-1.3,1.4c-0.6,0.3-1.2,0.5-2,0.5c-0.8,0-1.4-0.2-2-0.5c-0.6-0.3-1-0.8-1.3-1.4
		c-0.3-0.6-0.4-1.3-0.4-2c0-0.8,0.1-1.4,0.4-2c0.3-0.6,0.7-1,1.3-1.3c0.6-0.3,1.3-0.5,2-0.5c0.8,0,1.5,0.2,2,0.5
		c0.6,0.3,1,0.8,1.3,1.3C27.7,117.9,27.9,118.6,27.9,119.3z M22.1,119.3c0,0.7,0.2,1.3,0.5,1.8c0.3,0.4,0.8,0.7,1.5,0.7
		c0.7,0,1.2-0.2,1.5-0.7c0.3-0.5,0.5-1.1,0.5-1.8c0-0.7-0.2-1.3-0.5-1.8c-0.3-0.4-0.8-0.7-1.5-0.7c-0.7,0-1.2,0.2-1.5,0.7
		C22.3,118,22.1,118.6,22.1,119.3z M29.5,120.2v-4.5h1.8v4.2c0,0.6,0.1,1,0.4,1.4c0.2,0.3,0.6,0.5,1.1,0.5c0.6,0,1-0.2,1.3-0.6
		c0.3-0.4,0.5-0.9,0.5-1.5v-3.9h1.8v5.6c0,0.5,0,1.1,0.1,1.7h-1.7c-0.1-0.3-0.1-0.6-0.1-0.9h0c-0.5,0.7-1.3,1-2.3,1
		c-0.9,0-1.6-0.3-2.1-0.8C29.7,121.8,29.5,121.1,29.5,120.2z M45.6,119.3c0,0.7-0.1,1.4-0.4,1.9c-0.3,0.6-0.6,1.1-1.1,1.4
		c-0.5,0.3-1.1,0.5-1.8,0.5c-0.8,0-1.5-0.2-2.1-0.7v3.9h-1.8v-9c0-0.4,0-0.9-0.1-1.7H40c0.1,0.4,0.1,0.7,0.1,0.9h0
		c0.6-0.7,1.3-1.1,2.4-1.1c0.7,0,1.3,0.2,1.8,0.5c0.5,0.3,0.8,0.8,1,1.4C45.5,118,45.6,118.6,45.6,119.3z M43.8,119.3
		c0-0.8-0.2-1.4-0.5-1.8c-0.3-0.4-0.7-0.6-1.3-0.6c-0.6,0-1,0.2-1.4,0.6c-0.4,0.4-0.5,0.8-0.5,1.4v2.3c0.3,0.2,0.6,0.3,0.8,0.4
		c0.3,0.1,0.6,0.1,0.9,0.1c0.6,0,1.1-0.2,1.4-0.7C43.7,120.7,43.8,120.1,43.8,119.3z M52.2,116.3l-0.7,1.1c-0.6-0.4-1.1-0.5-1.7-0.5
		c-0.4,0-0.7,0.1-0.9,0.2c-0.2,0.1-0.3,0.3-0.3,0.5c0,0.2,0,0.4,0.1,0.5c0.1,0.1,0.2,0.2,0.4,0.3c0.2,0.1,0.5,0.2,1,0.3
		c0.7,0.2,1.2,0.4,1.6,0.8c0.4,0.3,0.5,0.8,0.5,1.4c0,0.8-0.3,1.4-0.9,1.8c-0.6,0.4-1.3,0.6-2.1,0.6c-1.1,0-2-0.3-2.7-0.8l0.8-1.1
		c0.3,0.2,0.6,0.3,0.9,0.4c0.3,0.1,0.6,0.1,1,0.1c0.4,0,0.7-0.1,0.9-0.2c0.2-0.1,0.3-0.4,0.3-0.7c0-0.2,0-0.3-0.1-0.5
		c-0.1-0.1-0.2-0.2-0.4-0.3c-0.2-0.1-0.5-0.2-1-0.3c-0.7-0.2-1.3-0.4-1.6-0.8c-0.3-0.3-0.5-0.8-0.5-1.4c0-0.7,0.3-1.2,0.8-1.6
		c0.5-0.4,1.2-0.6,2.1-0.6C50.6,115.5,51.5,115.8,52.2,116.3z M64.7,119.3c0,0.8-0.2,1.4-0.5,2c-0.3,0.6-0.7,1-1.3,1.4
		c-0.6,0.3-1.2,0.5-2,0.5c-0.8,0-1.4-0.2-2-0.5c-0.6-0.3-1-0.8-1.3-1.4c-0.3-0.6-0.4-1.3-0.4-2c0-0.8,0.1-1.4,0.4-2
		c0.3-0.6,0.7-1,1.3-1.3c0.6-0.3,1.3-0.5,2-0.5c0.8,0,1.5,0.2,2,0.5c0.6,0.3,1,0.8,1.3,1.3C64.5,117.9,64.7,118.6,64.7,119.3z
		 M58.9,119.3c0,0.7,0.2,1.3,0.5,1.8c0.3,0.4,0.8,0.7,1.5,0.7c0.7,0,1.2-0.2,1.5-0.7c0.3-0.5,0.5-1.1,0.5-1.8c0-0.7-0.2-1.3-0.5-1.8
		c-0.3-0.4-0.8-0.7-1.5-0.7c-0.7,0-1.2,0.2-1.5,0.7C59.1,118,58.9,118.6,58.9,119.3z M70.8,113.1l-0.4,1.2c-0.2-0.1-0.5-0.1-0.8-0.1
		c-0.8,0-1.2,0.4-1.2,1.2v0.3h1.7v1.3h-1.7v5.9h-1.8v-5.9h-1.2V116l1.2-0.2v-0.4c0-0.8,0.2-1.4,0.7-1.8c0.4-0.4,1.1-0.7,2-0.7
		C69.9,112.9,70.3,113,70.8,113.1z M81.8,121.5v1.5h-6.6v-1.5h2.7v-6.6l-2.5,1.2l-0.7-1.3l3.4-1.8h1.7v8.4H81.8z"/>
	<rect x="143" y="149" class="st0" width="60" height="61"/>
	<rect x="215" y="172" class="st2" width="60" height="38"/>
	<path class="st1" d="M178.2,237.6c-0.7,0.4-1.6,0.6-2.7,0.6c-1.4,0-2.5-0.4-3.4-1.3c-0.8-0.9-1.3-2.1-1.3-3.5
		c0-1.6,0.5-2.8,1.4-3.8c0.9-1,2.1-1.4,3.6-1.4c0.9,0,1.7,0.1,2.3,0.4v1.2c-0.7-0.4-1.5-0.6-2.3-0.6c-1.1,0-2,0.4-2.7,1.1
		c-0.7,0.8-1,1.8-1,3c0,1.2,0.3,2.1,1,2.9c0.7,0.7,1.5,1.1,2.6,1.1c1,0,1.8-0.2,2.6-0.7V237.6z M183,238.2c-1,0-1.9-0.3-2.5-1
		c-0.6-0.7-0.9-1.5-0.9-2.6c0-1.2,0.3-2.1,1-2.8c0.6-0.7,1.5-1,2.6-1c1,0,1.9,0.3,2.4,1c0.6,0.6,0.9,1.5,0.9,2.7c0,1.1-0.3,2-1,2.7
		C184.9,237.8,184,238.2,183,238.2z M183.1,231.8c-0.7,0-1.3,0.2-1.7,0.7c-0.4,0.5-0.6,1.2-0.6,2c0,0.8,0.2,1.5,0.6,2
		c0.4,0.5,1,0.7,1.7,0.7c0.7,0,1.3-0.2,1.7-0.7c0.4-0.5,0.6-1.1,0.6-2c0-0.9-0.2-1.6-0.6-2C184.4,232,183.8,231.8,183.1,231.8z
		 M189.4,238h-1.1v-10.4h1.1V238z M194.6,238.2c-1,0-1.9-0.3-2.5-1c-0.6-0.7-0.9-1.5-0.9-2.6c0-1.2,0.3-2.1,1-2.8
		c0.6-0.7,1.5-1,2.6-1c1,0,1.9,0.3,2.4,1c0.6,0.6,0.9,1.5,0.9,2.7c0,1.1-0.3,2-0.9,2.7C196.5,237.8,195.6,238.2,194.6,238.2z
		 M194.7,231.8c-0.7,0-1.3,0.2-1.7,0.7c-0.4,0.5-0.6,1.2-0.6,2c0,0.8,0.2,1.5,0.6,2c0.4,0.5,1,0.7,1.7,0.7c0.7,0,1.3-0.2,1.7-0.7
		c0.4-0.5,0.6-1.1,0.6-2c0-0.9-0.2-1.6-0.6-2C195.9,232,195.4,231.8,194.7,231.8z M203.5,232.1c-0.2-0.2-0.5-0.2-0.8-0.2
		c-0.5,0-0.9,0.2-1.2,0.7c-0.3,0.5-0.5,1.1-0.5,1.8v3.6h-1.1v-7h1.1v1.4h0c0.2-0.5,0.4-0.9,0.7-1.1c0.3-0.3,0.7-0.4,1.1-0.4
		c0.3,0,0.5,0,0.7,0.1V232.1z M204.3,237.7v-1.2c0.6,0.5,1.3,0.7,2,0.7c1,0,1.5-0.3,1.5-1c0-0.2,0-0.3-0.1-0.5
		c-0.1-0.1-0.2-0.2-0.3-0.3c-0.1-0.1-0.3-0.2-0.5-0.3c-0.2-0.1-0.4-0.2-0.6-0.3c-0.3-0.1-0.6-0.2-0.8-0.4c-0.2-0.1-0.4-0.3-0.6-0.4
		c-0.2-0.2-0.3-0.3-0.4-0.5c-0.1-0.2-0.1-0.4-0.1-0.7c0-0.3,0.1-0.6,0.2-0.9c0.1-0.3,0.4-0.5,0.6-0.6c0.2-0.2,0.5-0.3,0.9-0.4
		c0.3-0.1,0.7-0.1,1-0.1c0.6,0,1.1,0.1,1.6,0.3v1.1c-0.5-0.3-1.1-0.5-1.8-0.5c-0.2,0-0.4,0-0.6,0.1c-0.2,0-0.3,0.1-0.4,0.2
		c-0.1,0.1-0.2,0.2-0.3,0.3c-0.1,0.1-0.1,0.3-0.1,0.4c0,0.2,0,0.3,0.1,0.5c0.1,0.1,0.2,0.2,0.3,0.3c0.1,0.1,0.3,0.2,0.5,0.3
		c0.2,0.1,0.4,0.2,0.6,0.3c0.3,0.1,0.6,0.2,0.8,0.4c0.2,0.1,0.5,0.3,0.6,0.4c0.2,0.2,0.3,0.3,0.4,0.5c0.1,0.2,0.1,0.4,0.1,0.7
		c0,0.3-0.1,0.6-0.2,0.9c-0.1,0.3-0.4,0.5-0.6,0.6c-0.3,0.2-0.6,0.3-0.9,0.4c-0.3,0.1-0.7,0.1-1,0.1
		C205.5,238.2,204.8,238,204.3,237.7z M218.3,238h-1.1v-8.5c-0.1,0.1-0.2,0.2-0.4,0.3c-0.2,0.1-0.4,0.2-0.6,0.3
		c-0.2,0.1-0.4,0.2-0.7,0.3c-0.2,0.1-0.5,0.2-0.7,0.2v-1.1c0.2-0.1,0.5-0.2,0.8-0.3c0.3-0.1,0.5-0.2,0.8-0.4
		c0.3-0.1,0.5-0.3,0.8-0.5c0.2-0.2,0.4-0.3,0.6-0.5h0.4V238z M232.8,234.4H230v2.8h-0.9v-2.8h-2.8v-0.9h2.8v-2.8h0.9v2.8h2.8V234.4z
		 M244.7,235.2c0,0.4-0.1,0.8-0.3,1.2c-0.2,0.4-0.4,0.7-0.7,0.9c-0.3,0.3-0.7,0.5-1.1,0.6c-0.4,0.1-0.9,0.2-1.4,0.2
		c-0.9,0-1.7-0.2-2.2-0.5v-1.2c0.7,0.5,1.4,0.8,2.3,0.8c0.3,0,0.6,0,0.9-0.1c0.3-0.1,0.5-0.2,0.7-0.4c0.2-0.2,0.4-0.4,0.5-0.6
		c0.1-0.2,0.2-0.5,0.2-0.8c0-1.3-0.9-1.9-2.7-1.9H240v-1h0.8c1.6,0,2.4-0.6,2.4-1.8c0-1.1-0.6-1.7-1.8-1.7c-0.7,0-1.3,0.2-1.9,0.7
		v-1.1c0.6-0.4,1.4-0.6,2.2-0.6c0.4,0,0.8,0.1,1.1,0.2c0.3,0.1,0.6,0.3,0.9,0.5s0.4,0.5,0.5,0.7c0.1,0.3,0.2,0.6,0.2,0.9
		c0,1.3-0.7,2.1-2,2.5v0c0.3,0,0.6,0.1,0.9,0.2c0.3,0.1,0.5,0.3,0.7,0.5c0.2,0.2,0.4,0.4,0.5,0.7
		C244.6,234.6,244.7,234.9,244.7,235.2z"/>
	<path d="M166.8,118c0-1,0.2-1.9,0.6-2.7c0.4-0.8,1-1.4,1.7-1.8c0.8-0.4,1.7-0.7,2.7-0.7c0.7,0,1.3,0.1,2,0.3
		c0.6,0.2,1.1,0.5,1.5,0.9l-1,1.2c-0.3-0.3-0.7-0.5-1.1-0.6c-0.4-0.2-0.8-0.2-1.3-0.2c-1.1,0-1.9,0.3-2.4,1
		c-0.5,0.7-0.8,1.5-0.8,2.6c0,2.5,1.1,3.7,3.2,3.7c0.7,0,1.4-0.1,2-0.4v-2.2h-2v-1.4h3.7v4.6c-1.1,0.6-2.4,0.9-3.7,0.9
		c-1.1,0-2-0.2-2.8-0.7c-0.8-0.4-1.3-1.1-1.7-1.8C167,120,166.8,119.1,166.8,118z M177.7,117.4c0-0.4,0-0.9-0.1-1.7h1.7
		c0.1,0.4,0.1,0.7,0.1,1h0c0.4-0.8,1.1-1.2,2.2-1.2c0.2,0,0.3,0,0.4,0.1l-0.1,1.5c-0.1,0-0.3,0-0.5,0c-0.6,0-1.1,0.2-1.4,0.6
		c-0.3,0.4-0.5,0.9-0.5,1.5v3.8h-1.8V117.4z M190.1,119.3c0,0.8-0.2,1.4-0.5,2c-0.3,0.6-0.7,1-1.3,1.4c-0.6,0.3-1.2,0.5-2,0.5
		c-0.8,0-1.4-0.2-2-0.5c-0.6-0.3-1-0.8-1.3-1.4c-0.3-0.6-0.4-1.3-0.4-2c0-0.8,0.2-1.4,0.4-2c0.3-0.6,0.7-1,1.3-1.3
		c0.6-0.3,1.3-0.5,2-0.5c0.8,0,1.5,0.2,2,0.5c0.6,0.3,1,0.8,1.3,1.3C189.9,117.9,190.1,118.6,190.1,119.3z M184.3,119.3
		c0,0.7,0.2,1.3,0.5,1.8c0.3,0.4,0.8,0.7,1.5,0.7c0.7,0,1.2-0.2,1.5-0.7c0.3-0.5,0.5-1.1,0.5-1.8c0-0.7-0.2-1.3-0.5-1.8
		c-0.3-0.4-0.8-0.7-1.5-0.7c-0.7,0-1.2,0.2-1.5,0.7C184.5,118,184.3,118.6,184.3,119.3z M191.7,120.2v-4.5h1.8v4.2
		c0,0.6,0.1,1,0.4,1.4c0.2,0.3,0.6,0.5,1.1,0.5c0.6,0,1-0.2,1.3-0.6c0.3-0.4,0.5-0.9,0.5-1.5v-3.9h1.8v5.6c0,0.5,0,1.1,0.1,1.7H197
		c-0.1-0.3-0.1-0.6-0.1-0.9h0c-0.5,0.7-1.3,1-2.3,1c-0.9,0-1.6-0.3-2.1-0.8C192,121.8,191.7,121.1,191.7,120.2z M207.9,119.3
		c0,0.7-0.1,1.4-0.4,1.9c-0.3,0.6-0.6,1.1-1.1,1.4c-0.5,0.3-1.1,0.5-1.8,0.5c-0.8,0-1.5-0.2-2.1-0.7v3.9h-1.8v-9
		c0-0.4,0-0.9-0.1-1.7h1.7c0.1,0.4,0.1,0.7,0.1,0.9h0c0.6-0.7,1.3-1.1,2.4-1.1c0.7,0,1.3,0.2,1.8,0.5c0.5,0.3,0.8,0.8,1,1.4
		C207.8,118,207.9,118.6,207.9,119.3z M206.1,119.3c0-0.8-0.2-1.4-0.5-1.8c-0.3-0.4-0.7-0.6-1.3-0.6c-0.6,0-1,0.2-1.4,0.6
		c-0.4,0.4-0.5,0.8-0.5,1.4v2.3c0.3,0.2,0.6,0.3,0.8,0.4c0.3,0.1,0.6,0.1,0.9,0.1c0.6,0,1.1-0.2,1.4-0.7
		C205.9,120.7,206.1,120.1,206.1,119.3z M214.4,116.3l-0.7,1.1c-0.6-0.4-1.1-0.5-1.7-0.5c-0.4,0-0.7,0.1-0.9,0.2
		c-0.2,0.1-0.3,0.3-0.3,0.5c0,0.2,0,0.4,0.1,0.5c0.1,0.1,0.2,0.2,0.4,0.3c0.2,0.1,0.5,0.2,1,0.3c0.7,0.2,1.2,0.4,1.6,0.8
		c0.4,0.3,0.5,0.8,0.5,1.4c0,0.8-0.3,1.4-0.9,1.8c-0.6,0.4-1.3,0.6-2.1,0.6c-1.1,0-2-0.3-2.7-0.8l0.8-1.1c0.3,0.2,0.6,0.3,0.9,0.4
		c0.3,0.1,0.6,0.1,1,0.1c0.4,0,0.7-0.1,0.9-0.2c0.2-0.1,0.3-0.4,0.3-0.7c0-0.2,0-0.3-0.1-0.5c-0.1-0.1-0.2-0.2-0.4-0.3
		s-0.5-0.2-1-0.3c-0.7-0.2-1.3-0.4-1.6-0.8c-0.3-0.3-0.5-0.8-0.5-1.4c0-0.7,0.3-1.2,0.8-1.6c0.5-0.4,1.2-0.6,2.1-0.6
		C212.9,115.5,213.7,115.8,214.4,116.3z M226.9,119.3c0,0.8-0.2,1.4-0.5,2c-0.3,0.6-0.7,1-1.3,1.4c-0.6,0.3-1.2,0.5-2,0.5
		s-1.4-0.2-2-0.5c-0.6-0.3-1-0.8-1.3-1.4c-0.3-0.6-0.4-1.3-0.4-2c0-0.8,0.1-1.4,0.4-2s0.7-1,1.3-1.3c0.6-0.3,1.3-0.5,2-0.5
		s1.5,0.2,2,0.5s1,0.8,1.3,1.3C226.8,117.9,226.9,118.6,226.9,119.3z M221.1,119.3c0,0.7,0.2,1.3,0.5,1.8c0.3,0.4,0.8,0.7,1.5,0.7
		c0.7,0,1.2-0.2,1.5-0.7c0.3-0.5,0.5-1.1,0.5-1.8c0-0.7-0.2-1.3-0.5-1.8c-0.3-0.4-0.8-0.7-1.5-0.7c-0.7,0-1.2,0.2-1.5,0.7
		C221.3,118,221.1,118.6,221.1,119.3z M233,113.1l-0.4,1.2c-0.2-0.1-0.5-0.1-0.8-0.1c-0.8,0-1.2,0.4-1.2,1.2v0.3h1.7v1.3h-1.7v5.9
		h-1.8v-5.9h-1.2V116l1.2-0.2v-0.4c0-0.8,0.2-1.4,0.7-1.8c0.4-0.4,1.1-0.7,2-0.7C232.1,112.9,232.6,113,233,113.1z M243.9,115.8
		c0,0.6-0.1,1.2-0.4,1.7c-0.3,0.5-0.7,1-1.3,1.6c-0.6,0.6-1.5,1.4-2.8,2.4h4.8v1.5H237v-1.4l0.2-0.2c1.5-1.3,2.5-2.2,3.1-2.7
		c0.6-0.6,1-1,1.3-1.4c0.3-0.4,0.4-0.8,0.4-1.3c0-0.5-0.2-0.9-0.5-1.2c-0.3-0.3-0.8-0.5-1.4-0.5c-0.4,0-0.9,0.1-1.2,0.3
		c-0.4,0.2-0.7,0.5-1.1,0.8l-1.1-1c0.5-0.6,1-1,1.6-1.2c0.6-0.3,1.2-0.4,2-0.4c0.7,0,1.4,0.1,1.9,0.4c0.5,0.3,1,0.6,1.2,1.1
		C243.8,114.8,243.9,115.3,243.9,115.8z"/>
	<rect x="335" y="149" class="st0" width="60" height="61"/>
	<rect x="407" y="172" class="st2" width="60" height="38"/>
	<rect x="479" y="155" class="st3" width="60" height="55"/>
	<path class="st1" d="M395.3,237.6c-0.7,0.4-1.6,0.6-2.7,0.6c-1.4,0-2.5-0.4-3.3-1.3c-0.8-0.9-1.3-2.1-1.3-3.5
		c0-1.6,0.5-2.8,1.4-3.8c0.9-1,2.1-1.4,3.6-1.4c0.9,0,1.7,0.1,2.3,0.4v1.2c-0.7-0.4-1.5-0.6-2.3-0.6c-1.1,0-2,0.4-2.7,1.1
		c-0.7,0.8-1,1.8-1,3c0,1.2,0.3,2.1,1,2.9c0.7,0.7,1.5,1.1,2.6,1.1c1,0,1.8-0.2,2.6-0.7V237.6z M400.1,238.2c-1,0-1.9-0.3-2.5-1
		c-0.6-0.7-0.9-1.5-0.9-2.6c0-1.2,0.3-2.1,1-2.8c0.6-0.7,1.5-1,2.6-1c1,0,1.9,0.3,2.4,1c0.6,0.6,0.9,1.5,0.9,2.7c0,1.1-0.3,2-1,2.7
		C402,237.8,401.1,238.2,400.1,238.2z M400.2,231.8c-0.7,0-1.3,0.2-1.7,0.7c-0.4,0.5-0.6,1.2-0.6,2c0,0.8,0.2,1.5,0.6,2
		c0.4,0.5,1,0.7,1.7,0.7c0.7,0,1.3-0.2,1.7-0.7c0.4-0.5,0.6-1.1,0.6-2c0-0.9-0.2-1.6-0.6-2C401.4,232,400.9,231.8,400.2,231.8z
		 M406.5,238h-1.1v-10.4h1.1V238z M411.7,238.2c-1,0-1.9-0.3-2.5-1c-0.6-0.7-0.9-1.5-0.9-2.6c0-1.2,0.3-2.1,1-2.8
		c0.6-0.7,1.5-1,2.6-1c1,0,1.9,0.3,2.4,1c0.6,0.6,0.9,1.5,0.9,2.7c0,1.1-0.3,2-1,2.7C413.6,237.8,412.7,238.2,411.7,238.2z
		 M411.8,231.8c-0.7,0-1.3,0.2-1.7,0.7c-0.4,0.5-0.6,1.2-0.6,2c0,0.8,0.2,1.5,0.6,2c0.4,0.5,1,0.7,1.7,0.7c0.7,0,1.3-0.2,1.7-0.7
		c0.4-0.5,0.6-1.1,0.6-2c0-0.9-0.2-1.6-0.6-2C413,232,412.5,231.8,411.8,231.8z M420.6,232.1c-0.2-0.2-0.5-0.2-0.8-0.2
		c-0.5,0-0.9,0.2-1.2,0.7c-0.3,0.5-0.5,1.1-0.5,1.8v3.6H417v-7h1.1v1.4h0c0.2-0.5,0.4-0.9,0.7-1.1c0.3-0.3,0.7-0.4,1.1-0.4
		c0.3,0,0.5,0,0.7,0.1V232.1z M421.4,237.7v-1.2c0.6,0.5,1.3,0.7,2,0.7c1,0,1.5-0.3,1.5-1c0-0.2,0-0.3-0.1-0.5
		c-0.1-0.1-0.2-0.2-0.3-0.3c-0.1-0.1-0.3-0.2-0.5-0.3c-0.2-0.1-0.4-0.2-0.6-0.3c-0.3-0.1-0.6-0.2-0.8-0.4c-0.2-0.1-0.4-0.3-0.6-0.4
		c-0.2-0.2-0.3-0.3-0.4-0.5c-0.1-0.2-0.1-0.4-0.1-0.7c0-0.3,0.1-0.6,0.2-0.9c0.1-0.3,0.4-0.5,0.6-0.6c0.3-0.2,0.5-0.3,0.9-0.4
		c0.3-0.1,0.7-0.1,1-0.1c0.6,0,1.1,0.1,1.6,0.3v1.1c-0.5-0.3-1.1-0.5-1.8-0.5c-0.2,0-0.4,0-0.6,0.1c-0.2,0-0.3,0.1-0.4,0.2
		c-0.1,0.1-0.2,0.2-0.3,0.3c-0.1,0.1-0.1,0.3-0.1,0.4c0,0.2,0,0.3,0.1,0.5c0.1,0.1,0.2,0.2,0.3,0.3c0.1,0.1,0.3,0.2,0.5,0.3
		c0.2,0.1,0.4,0.2,0.6,0.3c0.3,0.1,0.6,0.2,0.8,0.4c0.2,0.1,0.5,0.3,0.6,0.4c0.2,0.2,0.3,0.3,0.4,0.5c0.1,0.2,0.1,0.4,0.1,0.7
		c0,0.3-0.1,0.6-0.2,0.9c-0.2,0.3-0.4,0.5-0.6,0.6c-0.3,0.2-0.5,0.3-0.9,0.4c-0.3,0.1-0.7,0.1-1,0.1
		C422.5,238.2,421.9,238,421.4,237.7z M435.4,238h-1.1v-8.5c-0.1,0.1-0.2,0.2-0.4,0.3c-0.2,0.1-0.4,0.2-0.6,0.3
		c-0.2,0.1-0.4,0.2-0.7,0.3c-0.2,0.1-0.5,0.2-0.7,0.2v-1.1c0.2-0.1,0.5-0.2,0.8-0.3c0.3-0.1,0.5-0.2,0.8-0.4
		c0.3-0.1,0.5-0.3,0.8-0.5c0.2-0.2,0.4-0.3,0.6-0.5h0.4V238z M449.9,234.4h-2.8v2.8h-0.9v-2.8h-2.8v-0.9h2.8v-2.8h0.9v2.8h2.8V234.4
		z M461.8,235.2c0,0.4-0.1,0.8-0.3,1.2c-0.2,0.4-0.4,0.7-0.7,0.9c-0.3,0.3-0.7,0.5-1.1,0.6c-0.4,0.1-0.9,0.2-1.4,0.2
		c-0.9,0-1.7-0.2-2.2-0.5v-1.2c0.7,0.5,1.4,0.8,2.3,0.8c0.3,0,0.6,0,0.9-0.1c0.3-0.1,0.5-0.2,0.7-0.4c0.2-0.2,0.4-0.4,0.5-0.6
		c0.1-0.2,0.2-0.5,0.2-0.8c0-1.3-0.9-1.9-2.7-1.9h-0.8v-1h0.8c1.6,0,2.4-0.6,2.4-1.8c0-1.1-0.6-1.7-1.8-1.7c-0.7,0-1.3,0.2-1.9,0.7
		v-1.1c0.6-0.4,1.4-0.6,2.2-0.6c0.4,0,0.8,0.1,1.1,0.2c0.3,0.1,0.6,0.3,0.9,0.5s0.4,0.5,0.5,0.7c0.1,0.3,0.2,0.6,0.2,0.9
		c0,1.3-0.7,2.1-2,2.5v0c0.3,0,0.6,0.1,0.9,0.2c0.3,0.1,0.5,0.3,0.7,0.5c0.2,0.2,0.4,0.4,0.5,0.7
		C461.7,234.6,461.8,234.9,461.8,235.2z M474.7,234.4h-2.8v2.8H471v-2.8h-2.8v-0.9h2.8v-2.8h0.9v2.8h2.8V234.4z M485.9,228.2v6.5
		h1.3v1h-1.3v2.3h-1.1v-2.3h-4.6v-1c0.4-0.5,0.9-1,1.3-1.5c0.4-0.6,0.9-1.1,1.3-1.7c0.4-0.6,0.8-1.1,1.1-1.7
		c0.3-0.6,0.6-1.1,0.9-1.6H485.9z M481.5,234.7h3.3v-4.8c-0.3,0.6-0.7,1.1-1,1.6c-0.3,0.5-0.6,0.9-0.9,1.3c-0.3,0.4-0.5,0.7-0.8,1
		S481.7,234.4,481.5,234.7z"/>
	<path d="M398.8,118c0-1,0.2-1.9,0.6-2.7c0.4-0.8,1-1.4,1.7-1.8c0.8-0.4,1.7-0.7,2.7-0.7c0.7,0,1.3,0.1,2,0.3
		c0.6,0.2,1.1,0.5,1.5,0.9l-1,1.2c-0.3-0.3-0.7-0.5-1.1-0.6c-0.4-0.2-0.8-0.2-1.3-0.2c-1.1,0-1.9,0.3-2.4,1
		c-0.5,0.7-0.8,1.5-0.8,2.6c0,2.5,1.1,3.7,3.2,3.7c0.7,0,1.4-0.1,2-0.4v-2.2h-2v-1.4h3.7v4.6c-1.1,0.6-2.4,0.9-3.7,0.9
		c-1.1,0-2-0.2-2.8-0.7c-0.8-0.4-1.3-1.1-1.7-1.8C399,120,398.8,119.1,398.8,118z M409.7,117.4c0-0.4,0-0.9-0.1-1.7h1.7
		c0.1,0.4,0.1,0.7,0.1,1h0c0.4-0.8,1.1-1.2,2.2-1.2c0.2,0,0.3,0,0.4,0.1l-0.1,1.5c-0.1,0-0.3,0-0.5,0c-0.6,0-1.1,0.2-1.4,0.6
		c-0.3,0.4-0.5,0.9-0.5,1.5v3.8h-1.8V117.4z M422.1,119.3c0,0.8-0.2,1.4-0.5,2c-0.3,0.6-0.7,1-1.3,1.4c-0.6,0.3-1.2,0.5-2,0.5
		c-0.8,0-1.4-0.2-2-0.5c-0.6-0.3-1-0.8-1.3-1.4c-0.3-0.6-0.4-1.3-0.4-2c0-0.8,0.1-1.4,0.4-2c0.3-0.6,0.7-1,1.3-1.3
		c0.6-0.3,1.3-0.5,2-0.5c0.8,0,1.5,0.2,2,0.5c0.6,0.3,1,0.8,1.3,1.3C422,117.9,422.1,118.6,422.1,119.3z M416.3,119.3
		c0,0.7,0.2,1.3,0.5,1.8c0.3,0.4,0.8,0.7,1.5,0.7c0.7,0,1.2-0.2,1.5-0.7c0.3-0.5,0.5-1.1,0.5-1.8c0-0.7-0.2-1.3-0.5-1.8
		c-0.3-0.4-0.8-0.7-1.5-0.7c-0.7,0-1.2,0.2-1.5,0.7C416.5,118,416.3,118.6,416.3,119.3z M423.7,120.2v-4.5h1.8v4.2
		c0,0.6,0.1,1,0.4,1.4c0.2,0.3,0.6,0.5,1.1,0.5c0.5,0,1-0.2,1.3-0.6c0.3-0.4,0.5-0.9,0.5-1.5v-3.9h1.8v5.6c0,0.5,0,1.1,0.1,1.7H429
		c-0.1-0.3-0.1-0.6-0.1-0.9h0c-0.5,0.7-1.3,1-2.3,1c-0.9,0-1.6-0.3-2.1-0.8C424,121.8,423.7,121.1,423.7,120.2z M439.9,119.3
		c0,0.7-0.1,1.4-0.4,1.9c-0.3,0.6-0.6,1.1-1.1,1.4c-0.5,0.3-1.1,0.5-1.8,0.5c-0.8,0-1.5-0.2-2.1-0.7v3.9h-1.8v-9
		c0-0.4,0-0.9-0.1-1.7h1.7c0.1,0.4,0.1,0.7,0.1,0.9h0c0.6-0.7,1.3-1.1,2.4-1.1c0.7,0,1.3,0.2,1.8,0.5c0.5,0.3,0.8,0.8,1,1.4
		C439.8,118,439.9,118.6,439.9,119.3z M438.1,119.3c0-0.8-0.2-1.4-0.5-1.8c-0.3-0.4-0.7-0.6-1.3-0.6c-0.6,0-1,0.2-1.4,0.6
		c-0.4,0.4-0.5,0.8-0.5,1.4v2.3c0.3,0.2,0.6,0.3,0.8,0.4c0.3,0.1,0.5,0.1,0.9,0.1c0.6,0,1.1-0.2,1.4-0.7
		C437.9,120.7,438.1,120.1,438.1,119.3z M446.4,116.3l-0.7,1.1c-0.6-0.4-1.1-0.5-1.7-0.5c-0.4,0-0.7,0.1-0.9,0.2
		c-0.2,0.1-0.3,0.3-0.3,0.5c0,0.2,0,0.4,0.1,0.5c0.1,0.1,0.2,0.2,0.4,0.3c0.2,0.1,0.5,0.2,1,0.3c0.7,0.2,1.2,0.4,1.6,0.8
		c0.4,0.3,0.5,0.8,0.5,1.4c0,0.8-0.3,1.4-0.9,1.8c-0.6,0.4-1.3,0.6-2.1,0.6c-1.1,0-2-0.3-2.7-0.8l0.8-1.1c0.3,0.2,0.6,0.3,0.9,0.4
		c0.3,0.1,0.6,0.1,1,0.1c0.4,0,0.7-0.1,0.9-0.2c0.2-0.1,0.3-0.4,0.3-0.7c0-0.2,0-0.3-0.1-0.5c-0.1-0.1-0.2-0.2-0.4-0.3
		s-0.5-0.2-1-0.3c-0.7-0.2-1.3-0.4-1.6-0.8c-0.3-0.3-0.5-0.8-0.5-1.4c0-0.7,0.3-1.2,0.8-1.6c0.5-0.4,1.2-0.6,2.1-0.6
		C444.9,115.5,445.7,115.8,446.4,116.3z M458.9,119.3c0,0.8-0.2,1.4-0.5,2c-0.3,0.6-0.7,1-1.3,1.4c-0.6,0.3-1.2,0.5-2,0.5
		c-0.8,0-1.4-0.2-2-0.5c-0.6-0.3-1-0.8-1.3-1.4c-0.3-0.6-0.4-1.3-0.4-2c0-0.8,0.1-1.4,0.4-2c0.3-0.6,0.7-1,1.3-1.3
		c0.6-0.3,1.3-0.5,2-0.5c0.8,0,1.5,0.2,2,0.5s1,0.8,1.3,1.3C458.8,117.9,458.9,118.6,458.9,119.3z M453.1,119.3
		c0,0.7,0.2,1.3,0.5,1.8c0.3,0.4,0.8,0.7,1.5,0.7c0.7,0,1.2-0.2,1.5-0.7c0.3-0.5,0.5-1.1,0.5-1.8c0-0.7-0.2-1.3-0.5-1.8
		c-0.3-0.4-0.8-0.7-1.5-0.7c-0.7,0-1.2,0.2-1.5,0.7C453.3,118,453.1,118.6,453.1,119.3z M465,113.1l-0.4,1.2
		c-0.2-0.1-0.5-0.1-0.8-0.1c-0.8,0-1.2,0.4-1.2,1.2v0.3h1.7v1.3h-1.7v5.9h-1.8v-5.9h-1.2V116l1.2-0.2v-0.4c0-0.8,0.2-1.4,0.7-1.8
		c0.4-0.4,1.1-0.7,2-0.7C464.1,112.9,464.6,113,465,113.1z M475.7,115.5c0,1.2-0.6,2-1.8,2.3v0c0.6,0.1,1.1,0.3,1.5,0.7
		c0.4,0.4,0.6,0.9,0.6,1.7c0,0.6-0.1,1.1-0.4,1.6c-0.3,0.5-0.7,0.8-1.3,1.1c-0.6,0.3-1.3,0.4-2.1,0.4c-0.8,0-1.4-0.1-2-0.4
		c-0.6-0.2-1.1-0.6-1.6-1.1l1-1.1c0.4,0.4,0.8,0.6,1.2,0.8c0.4,0.1,0.9,0.2,1.4,0.2c0.6,0,1.1-0.1,1.5-0.4c0.4-0.3,0.6-0.7,0.6-1.2
		c0-0.5-0.1-0.9-0.4-1.1c-0.3-0.2-0.7-0.4-1.3-0.4h-1.6v-1.5h1.4c0.5,0,0.9-0.1,1.2-0.3c0.3-0.2,0.4-0.6,0.4-1.1
		c0-0.5-0.1-0.8-0.4-1.1c-0.3-0.2-0.7-0.4-1.3-0.4c-0.8,0-1.6,0.3-2.4,0.9l-0.9-1.1c0.5-0.4,1-0.8,1.6-1c0.6-0.2,1.2-0.3,1.9-0.3
		c0.7,0,1.3,0.1,1.8,0.4c0.5,0.2,0.9,0.6,1.2,1C475.5,114.6,475.7,115,475.7,115.5z"/>
	<rect x="599" y="149" class="st0" width="60" height="61"/>
	<rect x="671" y="172" class="st2" width="60" height="38"/>
	<rect x="743" y="155" class="st3" width="60" height="55"/>
	<rect x="815" y="172" class="st4" width="60" height="38"/>
	<path class="st1" d="M682.4,237.6c-0.7,0.4-1.6,0.6-2.7,0.6c-1.4,0-2.5-0.4-3.3-1.3c-0.8-0.9-1.3-2.1-1.3-3.5
		c0-1.6,0.5-2.8,1.4-3.8c0.9-1,2.1-1.4,3.6-1.4c0.9,0,1.7,0.1,2.3,0.4v1.2c-0.7-0.4-1.5-0.6-2.3-0.6c-1.1,0-2,0.4-2.7,1.1
		c-0.7,0.8-1,1.8-1,3c0,1.2,0.3,2.1,1,2.9c0.7,0.7,1.5,1.1,2.6,1.1c1,0,1.8-0.2,2.6-0.7V237.6z M687.2,238.2c-1,0-1.9-0.3-2.5-1
		c-0.6-0.7-0.9-1.5-0.9-2.6c0-1.2,0.3-2.1,1-2.8c0.6-0.7,1.5-1,2.6-1c1,0,1.9,0.3,2.4,1c0.6,0.6,0.9,1.5,0.9,2.7c0,1.1-0.3,2-1,2.7
		C689.1,237.8,688.2,238.2,687.2,238.2z M687.3,231.8c-0.7,0-1.3,0.2-1.7,0.7c-0.4,0.5-0.6,1.2-0.6,2c0,0.8,0.2,1.5,0.6,2
		c0.4,0.5,1,0.7,1.7,0.7c0.7,0,1.3-0.2,1.7-0.7c0.4-0.5,0.6-1.1,0.6-2c0-0.9-0.2-1.6-0.6-2C688.5,232,688,231.8,687.3,231.8z
		 M693.6,238h-1.1v-10.4h1.1V238z M698.8,238.2c-1,0-1.9-0.3-2.5-1c-0.6-0.7-0.9-1.5-0.9-2.6c0-1.2,0.3-2.1,1-2.8
		c0.6-0.7,1.5-1,2.6-1c1,0,1.9,0.3,2.4,1c0.6,0.6,0.9,1.5,0.9,2.7c0,1.1-0.3,2-1,2.7C700.7,237.8,699.8,238.2,698.8,238.2z
		 M698.8,231.8c-0.7,0-1.3,0.2-1.7,0.7c-0.4,0.5-0.6,1.2-0.6,2c0,0.8,0.2,1.5,0.6,2c0.4,0.5,1,0.7,1.7,0.7c0.7,0,1.3-0.2,1.7-0.7
		c0.4-0.5,0.6-1.1,0.6-2c0-0.9-0.2-1.6-0.6-2C700.1,232,699.6,231.8,698.8,231.8z M707.7,232.1c-0.2-0.2-0.5-0.2-0.8-0.2
		c-0.5,0-0.9,0.2-1.2,0.7c-0.3,0.5-0.5,1.1-0.5,1.8v3.6H704v-7h1.1v1.4h0c0.2-0.5,0.4-0.9,0.7-1.1c0.3-0.3,0.7-0.4,1.1-0.4
		c0.3,0,0.5,0,0.7,0.1V232.1z M708.5,237.7v-1.2c0.6,0.5,1.3,0.7,2,0.7c1,0,1.5-0.3,1.5-1c0-0.2,0-0.3-0.1-0.5
		c-0.1-0.1-0.2-0.2-0.3-0.3c-0.1-0.1-0.3-0.2-0.5-0.3c-0.2-0.1-0.4-0.2-0.6-0.3c-0.3-0.1-0.6-0.2-0.8-0.4c-0.2-0.1-0.4-0.3-0.6-0.4
		c-0.2-0.2-0.3-0.3-0.4-0.5c-0.1-0.2-0.1-0.4-0.1-0.7c0-0.3,0.1-0.6,0.2-0.9c0.2-0.3,0.4-0.5,0.6-0.6c0.3-0.2,0.5-0.3,0.9-0.4
		c0.3-0.1,0.7-0.1,1-0.1c0.6,0,1.1,0.1,1.6,0.3v1.1c-0.5-0.3-1.1-0.5-1.8-0.5c-0.2,0-0.4,0-0.6,0.1c-0.2,0-0.3,0.1-0.4,0.2
		c-0.1,0.1-0.2,0.2-0.3,0.3c-0.1,0.1-0.1,0.3-0.1,0.4c0,0.2,0,0.3,0.1,0.5c0.1,0.1,0.2,0.2,0.3,0.3c0.1,0.1,0.3,0.2,0.5,0.3
		c0.2,0.1,0.4,0.2,0.6,0.3c0.3,0.1,0.6,0.2,0.8,0.4c0.2,0.1,0.5,0.3,0.6,0.4c0.2,0.2,0.3,0.3,0.4,0.5c0.1,0.2,0.1,0.4,0.1,0.7
		c0,0.3-0.1,0.6-0.2,0.9c-0.2,0.3-0.4,0.5-0.6,0.6c-0.3,0.2-0.5,0.3-0.9,0.4c-0.3,0.1-0.7,0.1-1,0.1
		C709.6,238.2,709,238,708.5,237.7z M722.5,238h-1.1v-8.5c-0.1,0.1-0.2,0.2-0.4,0.3c-0.2,0.1-0.4,0.2-0.6,0.3
		c-0.2,0.1-0.4,0.2-0.7,0.3c-0.2,0.1-0.5,0.2-0.7,0.2v-1.1c0.2-0.1,0.5-0.2,0.8-0.3c0.3-0.1,0.5-0.2,0.8-0.4
		c0.3-0.1,0.5-0.3,0.8-0.5c0.2-0.2,0.4-0.3,0.6-0.5h0.4V238z M737,234.4h-2.8v2.8h-0.9v-2.8h-2.8v-0.9h2.8v-2.8h0.9v2.8h2.8V234.4z
		 M748.9,235.2c0,0.4-0.1,0.8-0.3,1.2c-0.2,0.4-0.4,0.7-0.7,0.9c-0.3,0.3-0.7,0.5-1.1,0.6c-0.4,0.1-0.9,0.2-1.4,0.2
		c-0.9,0-1.7-0.2-2.2-0.5v-1.2c0.7,0.5,1.4,0.8,2.3,0.8c0.3,0,0.7,0,0.9-0.1c0.3-0.1,0.5-0.2,0.7-0.4c0.2-0.2,0.4-0.4,0.5-0.6
		c0.1-0.2,0.2-0.5,0.2-0.8c0-1.3-0.9-1.9-2.7-1.9h-0.8v-1h0.8c1.6,0,2.4-0.6,2.4-1.8c0-1.1-0.6-1.7-1.8-1.7c-0.7,0-1.3,0.2-1.9,0.7
		v-1.1c0.6-0.4,1.4-0.6,2.2-0.6c0.4,0,0.8,0.1,1.1,0.2c0.3,0.1,0.6,0.3,0.9,0.5s0.4,0.5,0.5,0.7c0.1,0.3,0.2,0.6,0.2,0.9
		c0,1.3-0.7,2.1-2,2.5v0c0.3,0,0.6,0.1,0.9,0.2c0.3,0.1,0.5,0.3,0.7,0.5c0.2,0.2,0.4,0.4,0.5,0.7
		C748.8,234.6,748.9,234.9,748.9,235.2z M761.8,234.4H759v2.8h-0.9v-2.8h-2.8v-0.9h2.8v-2.8h0.9v2.8h2.8V234.4z M773.8,235
		c0,0.5-0.1,0.9-0.2,1.3c-0.2,0.4-0.4,0.7-0.7,1c-0.3,0.3-0.7,0.5-1.1,0.6c-0.4,0.2-0.9,0.2-1.4,0.2c-0.9,0-1.6-0.1-2-0.4v-1.2
		c0.7,0.4,1.3,0.6,2,0.6c0.4,0,0.7-0.1,1-0.2c0.3-0.1,0.5-0.3,0.7-0.4c0.2-0.2,0.4-0.4,0.5-0.7c0.1-0.3,0.2-0.6,0.2-0.9
		c0-0.6-0.2-1.1-0.6-1.5c-0.4-0.4-1-0.5-1.9-0.5c-0.1,0-0.3,0-0.4,0c-0.1,0-0.3,0-0.4,0c-0.1,0-0.3,0-0.4,0c-0.1,0-0.3,0-0.4,0
		l0.3-4.9h4.5v1h-3.6l-0.2,2.9c0.1,0,0.3,0,0.5,0c0.2,0,0.3,0,0.4,0c0.5,0,1,0.1,1.4,0.2c0.4,0.1,0.8,0.3,1,0.6
		c0.3,0.2,0.5,0.6,0.7,0.9C773.7,234.1,773.8,234.6,773.8,235z M786.6,234.4h-2.8v2.8h-0.9v-2.8h-2.8v-0.9h2.8v-2.8h0.9v2.8h2.8
		V234.4z M798.9,228.8c-0.2,0.3-0.3,0.6-0.5,1c-0.2,0.4-0.4,0.8-0.7,1.3s-0.5,1-0.7,1.6c-0.2,0.6-0.5,1.1-0.7,1.7
		c-0.2,0.6-0.4,1.2-0.6,1.8c-0.2,0.6-0.3,1.2-0.3,1.8h-1.2c0.1-0.6,0.2-1.2,0.4-1.8c0.2-0.6,0.4-1.2,0.6-1.8
		c0.2-0.6,0.4-1.2,0.7-1.7c0.2-0.5,0.5-1,0.7-1.5c0.2-0.5,0.4-0.9,0.6-1.2c0.2-0.4,0.3-0.6,0.5-0.8h-4.9v-1h6.2V228.8z"/>
	<path d="M698.8,118c0-1,0.2-1.9,0.6-2.7c0.4-0.8,1-1.4,1.7-1.8c0.8-0.4,1.7-0.7,2.7-0.7c0.7,0,1.3,0.1,2,0.3
		c0.6,0.2,1.1,0.5,1.5,0.9l-1,1.2c-0.3-0.3-0.7-0.5-1.1-0.6c-0.4-0.2-0.8-0.2-1.3-0.2c-1.1,0-1.9,0.3-2.4,1
		c-0.5,0.7-0.8,1.5-0.8,2.6c0,2.5,1.1,3.7,3.2,3.7c0.7,0,1.4-0.1,2-0.4v-2.2h-2v-1.4h3.7v4.6c-1.1,0.6-2.4,0.9-3.7,0.9
		c-1.1,0-2-0.2-2.8-0.7c-0.8-0.4-1.3-1.1-1.7-1.8C699,120,698.8,119.1,698.8,118z M709.7,117.4c0-0.4,0-0.9-0.1-1.7h1.7
		c0.1,0.4,0.1,0.7,0.1,1h0c0.4-0.8,1.1-1.2,2.2-1.2c0.2,0,0.3,0,0.4,0.1l-0.1,1.5c-0.1,0-0.3,0-0.5,0c-0.6,0-1.1,0.2-1.4,0.6
		c-0.3,0.4-0.5,0.9-0.5,1.5v3.8h-1.8V117.4z M722.1,119.3c0,0.8-0.2,1.4-0.5,2c-0.3,0.6-0.7,1-1.3,1.4c-0.6,0.3-1.2,0.5-2,0.5
		c-0.8,0-1.4-0.2-2-0.5c-0.6-0.3-1-0.8-1.3-1.4c-0.3-0.6-0.4-1.3-0.4-2c0-0.8,0.1-1.4,0.4-2c0.3-0.6,0.7-1,1.3-1.3
		c0.6-0.3,1.3-0.5,2-0.5c0.8,0,1.5,0.2,2,0.5c0.6,0.3,1,0.8,1.3,1.3C722,117.9,722.1,118.6,722.1,119.3z M716.3,119.3
		c0,0.7,0.2,1.3,0.5,1.8c0.3,0.4,0.8,0.7,1.5,0.7c0.7,0,1.2-0.2,1.5-0.7c0.3-0.5,0.5-1.1,0.5-1.8c0-0.7-0.2-1.3-0.5-1.8
		c-0.3-0.4-0.8-0.7-1.5-0.7c-0.7,0-1.2,0.2-1.5,0.7C716.5,118,716.3,118.6,716.3,119.3z M723.7,120.2v-4.5h1.8v4.2
		c0,0.6,0.1,1,0.3,1.4c0.2,0.3,0.6,0.5,1.1,0.5c0.6,0,1-0.2,1.3-0.6c0.3-0.4,0.5-0.9,0.5-1.5v-3.9h1.8v5.6c0,0.5,0,1.1,0.1,1.7H729
		c-0.1-0.3-0.1-0.6-0.1-0.9h0c-0.5,0.7-1.3,1-2.3,1c-0.9,0-1.6-0.3-2.1-0.8C724,121.8,723.7,121.1,723.7,120.2z M739.9,119.3
		c0,0.7-0.1,1.4-0.4,1.9c-0.3,0.6-0.6,1.1-1.1,1.4c-0.5,0.3-1.1,0.5-1.8,0.5c-0.8,0-1.5-0.2-2.1-0.7v3.9h-1.8v-9
		c0-0.4,0-0.9-0.1-1.7h1.7c0.1,0.4,0.1,0.7,0.1,0.9h0c0.6-0.7,1.3-1.1,2.4-1.1c0.7,0,1.3,0.2,1.8,0.5c0.5,0.3,0.8,0.8,1,1.4
		C739.8,118,739.9,118.6,739.9,119.3z M738.1,119.3c0-0.8-0.2-1.4-0.5-1.8c-0.3-0.4-0.7-0.6-1.3-0.6c-0.6,0-1,0.2-1.4,0.6
		c-0.4,0.4-0.5,0.8-0.5,1.4v2.3c0.3,0.2,0.6,0.3,0.8,0.4c0.3,0.1,0.5,0.1,0.9,0.1c0.6,0,1.1-0.2,1.4-0.7
		C737.9,120.7,738.1,120.1,738.1,119.3z M746.4,116.3l-0.7,1.1c-0.6-0.4-1.1-0.5-1.7-0.5c-0.4,0-0.7,0.1-0.9,0.2
		c-0.2,0.1-0.3,0.3-0.3,0.5c0,0.2,0,0.4,0.1,0.5c0.1,0.1,0.2,0.2,0.4,0.3c0.2,0.1,0.5,0.2,1,0.3c0.7,0.2,1.2,0.4,1.6,0.8
		c0.4,0.3,0.5,0.8,0.5,1.4c0,0.8-0.3,1.4-0.9,1.8c-0.6,0.4-1.3,0.6-2.1,0.6c-1.1,0-2-0.3-2.7-0.8l0.8-1.1c0.3,0.2,0.6,0.3,0.9,0.4
		c0.3,0.1,0.6,0.1,1,0.1c0.4,0,0.7-0.1,0.9-0.2c0.2-0.1,0.3-0.4,0.3-0.7c0-0.2,0-0.3-0.1-0.5c-0.1-0.1-0.2-0.2-0.4-0.3
		s-0.5-0.2-1-0.3c-0.7-0.2-1.3-0.4-1.6-0.8c-0.3-0.3-0.5-0.8-0.5-1.4c0-0.7,0.3-1.2,0.8-1.6c0.5-0.4,1.2-0.6,2.1-0.6
		C744.9,115.5,745.7,115.8,746.4,116.3z M758.9,119.3c0,0.8-0.2,1.4-0.5,2c-0.3,0.6-0.7,1-1.3,1.4c-0.6,0.3-1.2,0.5-2,0.5
		c-0.8,0-1.4-0.2-2-0.5c-0.6-0.3-1-0.8-1.3-1.4c-0.3-0.6-0.4-1.3-0.4-2c0-0.8,0.1-1.4,0.4-2s0.7-1,1.3-1.3c0.6-0.3,1.3-0.5,2-0.5
		c0.8,0,1.5,0.2,2,0.5c0.6,0.3,1,0.8,1.3,1.3S758.9,118.6,758.9,119.3z M753.2,119.3c0,0.7,0.2,1.3,0.5,1.8c0.3,0.4,0.8,0.7,1.5,0.7
		c0.7,0,1.2-0.2,1.5-0.7c0.3-0.5,0.5-1.1,0.5-1.8c0-0.7-0.2-1.3-0.5-1.8c-0.3-0.4-0.8-0.7-1.5-0.7c-0.7,0-1.2,0.2-1.5,0.7
		C753.3,118,753.2,118.6,753.2,119.3z M765,113.1l-0.4,1.2c-0.2-0.1-0.5-0.1-0.8-0.1c-0.8,0-1.2,0.4-1.2,1.2v0.3h1.7v1.3h-1.7v5.9
		h-1.8v-5.9h-1.2V116l1.2-0.2v-0.4c0-0.8,0.2-1.4,0.7-1.8c0.4-0.4,1.1-0.7,2-0.7C764.1,112.9,764.6,113,765,113.1z M776.4,120.8
		h-1.2v2.2h-1.8v-2.2h-4.9v-1.4l3.2-6.4h1.9l-3.1,6.2h2.9v-2.5h1.8v2.5h1.2V120.8z"/>
	<rect x="935" y="149" class="st0" width="60" height="61"/>
	<rect x="1007" y="172" class="st2" width="60" height="38"/>
	<rect x="1079" y="155" class="st3" width="60" height="55"/>
	<rect x="1151" y="172" class="st4" width="60" height="38"/>
	<rect x="1223" y="165" class="st5" width="60" height="45"/>
	<path class="st1" d="M1042,237.6c-0.7,0.4-1.6,0.6-2.7,0.6c-1.4,0-2.5-0.4-3.4-1.3c-0.8-0.9-1.3-2.1-1.3-3.5c0-1.6,0.5-2.8,1.4-3.8
		c1-1,2.1-1.4,3.6-1.4c0.9,0,1.7,0.1,2.3,0.4v1.2c-0.7-0.4-1.5-0.6-2.3-0.6c-1.1,0-2,0.4-2.7,1.1c-0.7,0.8-1.1,1.8-1.1,3
		c0,1.2,0.3,2.1,1,2.9c0.7,0.7,1.5,1.1,2.6,1.1c1,0,1.8-0.2,2.6-0.7V237.6z M1046.8,238.2c-1,0-1.9-0.3-2.5-1
		c-0.6-0.7-0.9-1.5-0.9-2.6c0-1.2,0.3-2.1,1-2.8c0.6-0.7,1.5-1,2.6-1c1,0,1.9,0.3,2.4,1c0.6,0.6,0.9,1.5,0.9,2.7
		c0,1.1-0.3,2-0.9,2.7C1048.7,237.8,1047.8,238.2,1046.8,238.2z M1046.8,231.8c-0.7,0-1.3,0.2-1.7,0.7c-0.4,0.5-0.6,1.2-0.6,2
		c0,0.8,0.2,1.5,0.6,2c0.4,0.5,1,0.7,1.7,0.7c0.7,0,1.3-0.2,1.7-0.7c0.4-0.5,0.6-1.1,0.6-2c0-0.9-0.2-1.6-0.6-2
		S1047.6,231.8,1046.8,231.8z M1053.2,238h-1.1v-10.4h1.1V238z M1058.4,238.2c-1,0-1.9-0.3-2.5-1c-0.6-0.7-0.9-1.5-0.9-2.6
		c0-1.2,0.3-2.1,1-2.8c0.6-0.7,1.5-1,2.6-1c1,0,1.9,0.3,2.4,1c0.6,0.6,0.9,1.5,0.9,2.7c0,1.1-0.3,2-0.9,2.7
		C1060.3,237.8,1059.4,238.2,1058.4,238.2z M1058.4,231.8c-0.7,0-1.3,0.2-1.7,0.7c-0.4,0.5-0.6,1.2-0.6,2c0,0.8,0.2,1.5,0.6,2
		c0.4,0.5,1,0.7,1.7,0.7c0.7,0,1.3-0.2,1.7-0.7c0.4-0.5,0.6-1.1,0.6-2c0-0.9-0.2-1.6-0.6-2S1059.2,231.8,1058.4,231.8z
		 M1067.3,232.1c-0.2-0.2-0.5-0.2-0.9-0.2c-0.5,0-0.9,0.2-1.2,0.7c-0.3,0.5-0.5,1.1-0.5,1.8v3.6h-1.1v-7h1.1v1.4h0
		c0.1-0.5,0.4-0.9,0.7-1.1c0.3-0.3,0.7-0.4,1.1-0.4c0.3,0,0.5,0,0.7,0.1V232.1z M1068.1,237.7v-1.2c0.6,0.5,1.3,0.7,2,0.7
		c1,0,1.5-0.3,1.5-1c0-0.2,0-0.3-0.1-0.5c-0.1-0.1-0.2-0.2-0.3-0.3c-0.1-0.1-0.3-0.2-0.5-0.3c-0.2-0.1-0.4-0.2-0.6-0.3
		c-0.3-0.1-0.6-0.2-0.8-0.4c-0.2-0.1-0.4-0.3-0.6-0.4c-0.2-0.2-0.3-0.3-0.4-0.5c-0.1-0.2-0.1-0.4-0.1-0.7c0-0.3,0.1-0.6,0.2-0.9
		c0.2-0.3,0.4-0.5,0.6-0.6c0.2-0.2,0.5-0.3,0.9-0.4c0.3-0.1,0.7-0.1,1-0.1c0.6,0,1.2,0.1,1.6,0.3v1.1c-0.5-0.3-1.1-0.5-1.8-0.5
		c-0.2,0-0.4,0-0.6,0.1c-0.2,0-0.3,0.1-0.4,0.2c-0.1,0.1-0.2,0.2-0.3,0.3c-0.1,0.1-0.1,0.3-0.1,0.4c0,0.2,0,0.3,0.1,0.5
		c0.1,0.1,0.2,0.2,0.3,0.3c0.1,0.1,0.3,0.2,0.5,0.3c0.2,0.1,0.4,0.2,0.6,0.3c0.3,0.1,0.6,0.2,0.8,0.4c0.2,0.1,0.5,0.3,0.6,0.4
		c0.2,0.2,0.3,0.3,0.4,0.5c0.1,0.2,0.1,0.4,0.1,0.7c0,0.3-0.1,0.6-0.2,0.9c-0.2,0.3-0.3,0.5-0.6,0.6c-0.2,0.2-0.6,0.3-0.9,0.4
		s-0.7,0.1-1.1,0.1C1069.2,238.2,1068.6,238,1068.1,237.7z M1082.1,238h-1.1v-8.5c-0.1,0.1-0.2,0.2-0.4,0.3
		c-0.2,0.1-0.3,0.2-0.6,0.3c-0.2,0.1-0.4,0.2-0.7,0.3c-0.2,0.1-0.5,0.2-0.7,0.2v-1.1c0.2-0.1,0.5-0.2,0.8-0.3
		c0.3-0.1,0.6-0.2,0.8-0.4c0.3-0.1,0.5-0.3,0.8-0.5c0.2-0.2,0.4-0.3,0.6-0.5h0.4V238z M1096.6,234.4h-2.8v2.8h-0.9v-2.8h-2.8v-0.9
		h2.8v-2.8h0.9v2.8h2.8V234.4z M1108.5,235.2c0,0.4-0.1,0.8-0.3,1.2c-0.2,0.4-0.4,0.7-0.7,0.9c-0.3,0.3-0.7,0.5-1.1,0.6
		c-0.4,0.1-0.9,0.2-1.4,0.2c-0.9,0-1.7-0.2-2.2-0.5v-1.2c0.7,0.5,1.4,0.8,2.3,0.8c0.3,0,0.7,0,0.9-0.1c0.3-0.1,0.5-0.2,0.7-0.4
		c0.2-0.2,0.3-0.4,0.5-0.6c0.1-0.2,0.2-0.5,0.2-0.8c0-1.3-0.9-1.9-2.7-1.9h-0.8v-1h0.8c1.6,0,2.4-0.6,2.4-1.8c0-1.1-0.6-1.7-1.8-1.7
		c-0.7,0-1.3,0.2-2,0.7v-1.1c0.6-0.4,1.4-0.6,2.2-0.6c0.4,0,0.8,0.1,1.1,0.2c0.3,0.1,0.6,0.3,0.9,0.5c0.2,0.2,0.4,0.5,0.5,0.7
		c0.1,0.3,0.2,0.6,0.2,0.9c0,1.3-0.7,2.1-1.9,2.5v0c0.3,0,0.6,0.1,0.9,0.2c0.3,0.1,0.5,0.3,0.7,0.5c0.2,0.2,0.4,0.4,0.5,0.7
		C1108.4,234.6,1108.5,234.9,1108.5,235.2z M1121.4,234.4h-2.8v2.8h-0.9v-2.8h-2.8v-0.9h2.8v-2.8h0.9v2.8h2.8V234.4z M1133.4,235
		c0,0.5-0.1,0.9-0.2,1.3c-0.2,0.4-0.4,0.7-0.7,1c-0.3,0.3-0.7,0.5-1.1,0.6c-0.4,0.2-0.9,0.2-1.4,0.2c-0.9,0-1.6-0.1-2-0.4v-1.2
		c0.7,0.4,1.3,0.6,2,0.6c0.4,0,0.7-0.1,1-0.2c0.3-0.1,0.5-0.3,0.7-0.4c0.2-0.2,0.3-0.4,0.5-0.7c0.1-0.3,0.2-0.6,0.2-0.9
		c0-0.6-0.2-1.1-0.6-1.5c-0.4-0.4-1.1-0.5-1.9-0.5c-0.1,0-0.3,0-0.4,0c-0.2,0-0.3,0-0.4,0c-0.2,0-0.3,0-0.4,0s-0.3,0-0.4,0l0.3-4.9
		h4.5v1h-3.6l-0.2,2.9c0.2,0,0.3,0,0.5,0c0.2,0,0.3,0,0.4,0c0.5,0,1,0.1,1.4,0.2c0.4,0.1,0.8,0.3,1,0.6c0.3,0.2,0.5,0.6,0.6,0.9
		C1133.3,234.1,1133.4,234.6,1133.4,235z M1146.2,234.4h-2.8v2.8h-0.9v-2.8h-2.8v-0.9h2.8v-2.8h0.9v2.8h2.8V234.4z M1158.5,228.8
		c-0.2,0.3-0.3,0.6-0.6,1c-0.2,0.4-0.4,0.8-0.7,1.3s-0.5,1-0.7,1.6c-0.2,0.6-0.5,1.1-0.7,1.7c-0.2,0.6-0.4,1.2-0.6,1.8
		c-0.2,0.6-0.3,1.2-0.4,1.8h-1.2c0.1-0.6,0.2-1.2,0.4-1.8c0.2-0.6,0.4-1.2,0.6-1.8c0.2-0.6,0.5-1.2,0.7-1.7c0.2-0.5,0.5-1,0.7-1.5
		c0.2-0.5,0.4-0.9,0.6-1.2c0.2-0.4,0.3-0.6,0.5-0.8h-4.9v-1h6.2V228.8z M1171,234.4h-2.8v2.8h-0.9v-2.8h-2.8v-0.9h2.8v-2.8h0.9v2.8
		h2.8V234.4z M1183.3,232.5c0,0.9-0.1,1.7-0.3,2.4c-0.2,0.7-0.4,1.3-0.8,1.8c-0.3,0.5-0.8,0.9-1.2,1.1c-0.5,0.3-1,0.4-1.7,0.4
		c-0.7,0-1.2-0.1-1.7-0.3v-1.1c0.5,0.3,1.1,0.5,1.7,0.5c0.4,0,0.8-0.1,1.2-0.3c0.3-0.2,0.7-0.4,0.9-0.8c0.2-0.4,0.4-0.8,0.5-1.3
		c0.1-0.5,0.2-1.1,0.2-1.8h0c-0.4,0.8-1.2,1.3-2.2,1.3c-0.4,0-0.8-0.1-1.2-0.2c-0.3-0.2-0.7-0.4-0.9-0.6c-0.3-0.3-0.5-0.6-0.6-1
		c-0.1-0.4-0.2-0.8-0.2-1.2c0-0.5,0.1-0.9,0.2-1.3c0.2-0.4,0.4-0.7,0.7-1c0.3-0.3,0.6-0.5,1-0.7c0.4-0.2,0.8-0.2,1.3-0.2
		c0.5,0,0.9,0.1,1.3,0.3c0.4,0.2,0.7,0.5,1,0.9c0.3,0.4,0.5,0.8,0.6,1.4C1183.2,231.2,1183.3,231.8,1183.3,232.5z M1182.1,231.5
		c0-0.4,0-0.7-0.1-1c-0.1-0.3-0.2-0.6-0.4-0.8c-0.2-0.2-0.4-0.4-0.6-0.5c-0.2-0.1-0.5-0.2-0.8-0.2c-0.3,0-0.5,0.1-0.8,0.2
		c-0.2,0.1-0.4,0.3-0.6,0.5c-0.2,0.2-0.3,0.4-0.4,0.7c-0.1,0.3-0.1,0.6-0.1,0.9c0,0.3,0,0.7,0.1,0.9c0.1,0.3,0.2,0.5,0.4,0.7
		c0.2,0.2,0.4,0.3,0.6,0.4c0.2,0.1,0.5,0.2,0.8,0.2c0.3,0,0.5,0,0.7-0.1c0.2-0.1,0.4-0.2,0.6-0.4c0.2-0.2,0.3-0.4,0.4-0.6
		C1182,232,1182.1,231.8,1182.1,231.5z"/>
	<path d="M1070.8,118c0-1,0.2-1.9,0.6-2.7c0.4-0.8,1-1.4,1.7-1.8c0.8-0.4,1.7-0.7,2.7-0.7c0.7,0,1.3,0.1,2,0.3
		c0.6,0.2,1.1,0.5,1.5,0.9l-1,1.2c-0.3-0.3-0.7-0.5-1.1-0.6c-0.4-0.2-0.8-0.2-1.3-0.2c-1.1,0-1.9,0.3-2.4,1
		c-0.5,0.7-0.8,1.5-0.8,2.6c0,2.5,1.1,3.7,3.2,3.7c0.7,0,1.3-0.1,2-0.4v-2.2h-2v-1.4h3.7v4.6c-1.1,0.6-2.4,0.9-3.7,0.9
		c-1.1,0-2-0.2-2.8-0.7c-0.8-0.4-1.3-1.1-1.7-1.8C1071,120,1070.8,119.1,1070.8,118z M1081.7,117.4c0-0.4,0-0.9-0.1-1.7h1.7
		c0.1,0.4,0.1,0.7,0.1,1h0c0.4-0.8,1.2-1.2,2.2-1.2c0.2,0,0.3,0,0.4,0.1l-0.1,1.5c-0.1,0-0.3,0-0.5,0c-0.6,0-1.1,0.2-1.5,0.6
		c-0.3,0.4-0.5,0.9-0.5,1.5v3.8h-1.8V117.4z M1094.1,119.3c0,0.8-0.2,1.4-0.5,2c-0.3,0.6-0.7,1-1.3,1.4c-0.6,0.3-1.2,0.5-2,0.5
		c-0.8,0-1.5-0.2-2-0.5c-0.6-0.3-1-0.8-1.3-1.4c-0.3-0.6-0.4-1.3-0.4-2c0-0.8,0.1-1.4,0.4-2c0.3-0.6,0.7-1,1.3-1.3
		c0.6-0.3,1.2-0.5,2.1-0.5c0.8,0,1.5,0.2,2,0.5c0.6,0.3,1,0.8,1.3,1.3C1093.9,117.9,1094.1,118.6,1094.1,119.3z M1088.3,119.3
		c0,0.7,0.2,1.3,0.5,1.8c0.3,0.4,0.8,0.7,1.5,0.7c0.7,0,1.2-0.2,1.5-0.7c0.3-0.5,0.5-1.1,0.5-1.8c0-0.7-0.2-1.3-0.5-1.8
		c-0.3-0.4-0.8-0.7-1.5-0.7c-0.7,0-1.2,0.2-1.5,0.7C1088.5,118,1088.3,118.6,1088.3,119.3z M1095.7,120.2v-4.5h1.8v4.2
		c0,0.6,0.1,1,0.3,1.4s0.6,0.5,1.1,0.5c0.6,0,1-0.2,1.3-0.6c0.3-0.4,0.5-0.9,0.5-1.5v-3.9h1.8v5.6c0,0.5,0,1.1,0.1,1.7h-1.7
		c-0.1-0.3-0.1-0.6-0.1-0.9h0c-0.5,0.7-1.3,1-2.3,1c-0.9,0-1.6-0.3-2.1-0.8C1096,121.8,1095.7,121.1,1095.7,120.2z M1111.9,119.3
		c0,0.7-0.1,1.4-0.4,1.9s-0.6,1.1-1.2,1.4c-0.5,0.3-1.1,0.5-1.8,0.5c-0.8,0-1.6-0.2-2.1-0.7v3.9h-1.8v-9c0-0.4,0-0.9-0.1-1.7h1.7
		c0.1,0.4,0.1,0.7,0.1,0.9h0c0.6-0.7,1.3-1.1,2.3-1.1c0.7,0,1.3,0.2,1.8,0.5c0.5,0.3,0.8,0.8,1,1.4
		C1111.8,118,1111.9,118.6,1111.9,119.3z M1110.1,119.3c0-0.8-0.2-1.4-0.5-1.8c-0.3-0.4-0.7-0.6-1.3-0.6c-0.5,0-1,0.2-1.4,0.6
		c-0.3,0.4-0.5,0.8-0.5,1.4v2.3c0.3,0.2,0.6,0.3,0.8,0.4c0.3,0.1,0.5,0.1,0.9,0.1c0.6,0,1.1-0.2,1.4-0.7
		C1109.9,120.7,1110.1,120.1,1110.1,119.3z M1118.4,116.3l-0.7,1.1c-0.6-0.4-1.1-0.5-1.7-0.5c-0.4,0-0.7,0.1-0.9,0.2
		c-0.2,0.1-0.3,0.3-0.3,0.5c0,0.2,0,0.4,0.1,0.5c0.1,0.1,0.2,0.2,0.4,0.3c0.2,0.1,0.6,0.2,1,0.3c0.7,0.2,1.2,0.4,1.6,0.8
		c0.4,0.3,0.6,0.8,0.6,1.4c0,0.8-0.3,1.4-0.9,1.8c-0.6,0.4-1.3,0.6-2.1,0.6c-1.1,0-2-0.3-2.7-0.8l0.8-1.1c0.3,0.2,0.6,0.3,0.9,0.4
		c0.3,0.1,0.6,0.1,1,0.1c0.4,0,0.7-0.1,0.9-0.2c0.2-0.1,0.3-0.4,0.3-0.7c0-0.2,0-0.3-0.1-0.5c-0.1-0.1-0.2-0.2-0.5-0.3
		c-0.2-0.1-0.5-0.2-0.9-0.3c-0.7-0.2-1.2-0.4-1.6-0.8c-0.3-0.3-0.5-0.8-0.5-1.4c0-0.7,0.3-1.2,0.8-1.6c0.5-0.4,1.2-0.6,2.1-0.6
		C1116.9,115.5,1117.7,115.8,1118.4,116.3z M1130.9,119.3c0,0.8-0.2,1.4-0.5,2c-0.3,0.6-0.7,1-1.3,1.4c-0.6,0.3-1.2,0.5-2,0.5
		s-1.4-0.2-2-0.5c-0.6-0.3-1-0.8-1.3-1.4c-0.3-0.6-0.5-1.3-0.5-2c0-0.8,0.2-1.4,0.5-2c0.3-0.6,0.7-1,1.3-1.3c0.6-0.3,1.2-0.5,2-0.5
		s1.5,0.2,2,0.5c0.6,0.3,1,0.8,1.3,1.3C1130.8,117.9,1130.9,118.6,1130.9,119.3z M1125.2,119.3c0,0.7,0.2,1.3,0.5,1.8
		c0.3,0.4,0.8,0.7,1.5,0.7c0.7,0,1.2-0.2,1.5-0.7c0.3-0.5,0.5-1.1,0.5-1.8c0-0.7-0.2-1.3-0.5-1.8c-0.3-0.4-0.8-0.7-1.5-0.7
		c-0.7,0-1.2,0.2-1.5,0.7C1125.3,118,1125.2,118.6,1125.2,119.3z M1137,113.1l-0.4,1.2c-0.2-0.1-0.5-0.1-0.8-0.1
		c-0.8,0-1.2,0.4-1.2,1.2v0.3h1.7v1.3h-1.7v5.9h-1.8v-5.9h-1.2V116l1.2-0.2v-0.4c0-0.8,0.2-1.4,0.7-1.8c0.4-0.4,1.1-0.7,2-0.7
		C1136.1,112.9,1136.6,113,1137,113.1z M1140.6,121.8l1-1.1c0.4,0.4,0.8,0.6,1.2,0.8s0.9,0.2,1.4,0.2c0.6,0,1.1-0.2,1.5-0.5
		c0.4-0.3,0.6-0.8,0.6-1.4c0-0.5-0.2-1-0.5-1.3c-0.3-0.3-0.7-0.5-1.3-0.5c-0.6,0-1.3,0.1-1.8,0.4h-1.2v-5.5h6.1v1.5h-4.4v2.5
		c0.5-0.2,1.2-0.3,1.8-0.3c0.6,0,1.1,0.1,1.6,0.4c0.5,0.3,0.8,0.6,1.1,1.1c0.3,0.5,0.4,1,0.4,1.6c0,0.7-0.2,1.3-0.5,1.8
		c-0.3,0.5-0.8,0.9-1.4,1.2c-0.6,0.3-1.3,0.4-2.1,0.4c-0.8,0-1.5-0.1-2.1-0.4C1141.6,122.7,1141.1,122.3,1140.6,121.8z"/>
	<rect x="1343" y="149" class="st0" width="60" height="61"/>
	<rect x="1415" y="172" class="st2" width="60" height="38"/>
	<rect x="1487" y="155" class="st3" width="60" height="55"/>
	<rect x="1559" y="172" class="st4" width="60" height="38"/>
	<rect x="1631" y="165" class="st5" width="60" height="45"/>
	<rect x="1703" y="191" class="st6" width="60" height="19"/>
	<path class="st1" d="M1474.1,237.6c-0.7,0.4-1.6,0.6-2.7,0.6c-1.4,0-2.5-0.4-3.3-1.3c-0.8-0.9-1.3-2.1-1.3-3.5
		c0-1.6,0.5-2.8,1.4-3.8c0.9-1,2.1-1.4,3.6-1.4c0.9,0,1.7,0.1,2.3,0.4v1.2c-0.7-0.4-1.5-0.6-2.3-0.6c-1.1,0-2,0.4-2.7,1.1
		c-0.7,0.8-1,1.8-1,3c0,1.2,0.3,2.1,1,2.9c0.7,0.7,1.5,1.1,2.6,1.1c1,0,1.8-0.2,2.6-0.7V237.6z M1478.9,238.2c-1,0-1.9-0.3-2.5-1
		c-0.6-0.7-0.9-1.5-0.9-2.6c0-1.2,0.3-2.1,1-2.8c0.6-0.7,1.5-1,2.6-1c1,0,1.9,0.3,2.4,1c0.6,0.6,0.9,1.5,0.9,2.7
		c0,1.1-0.3,2-0.9,2.7C1480.8,237.8,1479.9,238.2,1478.9,238.2z M1478.9,231.8c-0.7,0-1.3,0.2-1.7,0.7c-0.4,0.5-0.6,1.2-0.6,2
		c0,0.8,0.2,1.5,0.6,2c0.4,0.5,1,0.7,1.7,0.7c0.7,0,1.3-0.2,1.7-0.7c0.4-0.5,0.6-1.1,0.6-2c0-0.9-0.2-1.6-0.6-2
		S1479.7,231.8,1478.9,231.8z M1485.3,238h-1.1v-10.4h1.1V238z M1490.4,238.2c-1,0-1.9-0.3-2.5-1c-0.6-0.7-0.9-1.5-0.9-2.6
		c0-1.2,0.3-2.1,1-2.8c0.6-0.7,1.5-1,2.6-1c1,0,1.8,0.3,2.4,1c0.6,0.6,0.9,1.5,0.9,2.7c0,1.1-0.3,2-0.9,2.7
		C1492.4,237.8,1491.5,238.2,1490.4,238.2z M1490.5,231.8c-0.7,0-1.3,0.2-1.7,0.7c-0.4,0.5-0.6,1.2-0.6,2c0,0.8,0.2,1.5,0.6,2
		c0.4,0.5,1,0.7,1.7,0.7c0.7,0,1.3-0.2,1.7-0.7c0.4-0.5,0.6-1.1,0.6-2c0-0.9-0.2-1.6-0.6-2C1491.8,232,1491.3,231.8,1490.5,231.8z
		 M1499.4,232.1c-0.2-0.2-0.5-0.2-0.8-0.2c-0.5,0-0.9,0.2-1.2,0.7c-0.3,0.5-0.5,1.1-0.5,1.8v3.6h-1.1v-7h1.1v1.4h0
		c0.2-0.5,0.4-0.9,0.7-1.1c0.3-0.3,0.7-0.4,1.1-0.4c0.3,0,0.5,0,0.7,0.1V232.1z M1500.2,237.7v-1.2c0.6,0.5,1.3,0.7,2,0.7
		c1,0,1.5-0.3,1.5-1c0-0.2-0.1-0.3-0.1-0.5c-0.1-0.1-0.2-0.2-0.4-0.3c-0.1-0.1-0.3-0.2-0.5-0.3c-0.2-0.1-0.4-0.2-0.6-0.3
		c-0.3-0.1-0.6-0.2-0.8-0.4c-0.2-0.1-0.4-0.3-0.6-0.4c-0.2-0.2-0.3-0.3-0.4-0.5c-0.1-0.2-0.1-0.4-0.1-0.7c0-0.3,0.1-0.6,0.2-0.9
		c0.2-0.3,0.3-0.5,0.6-0.6c0.2-0.2,0.5-0.3,0.9-0.4c0.3-0.1,0.7-0.1,1-0.1c0.6,0,1.1,0.1,1.6,0.3v1.1c-0.5-0.3-1.1-0.5-1.8-0.5
		c-0.2,0-0.4,0-0.6,0.1c-0.2,0-0.3,0.1-0.4,0.2c-0.1,0.1-0.2,0.2-0.3,0.3c-0.1,0.1-0.1,0.3-0.1,0.4c0,0.2,0,0.3,0.1,0.5
		c0.1,0.1,0.2,0.2,0.3,0.3c0.1,0.1,0.3,0.2,0.5,0.3c0.2,0.1,0.4,0.2,0.6,0.3c0.3,0.1,0.6,0.2,0.8,0.4c0.2,0.1,0.4,0.3,0.6,0.4
		c0.2,0.2,0.3,0.3,0.4,0.5c0.1,0.2,0.1,0.4,0.1,0.7c0,0.3-0.1,0.6-0.2,0.9c-0.1,0.3-0.3,0.5-0.6,0.6c-0.2,0.2-0.5,0.3-0.9,0.4
		c-0.3,0.1-0.7,0.1-1,0.1C1501.3,238.2,1500.7,238,1500.2,237.7z M1514.2,238h-1.1v-8.5c-0.1,0.1-0.2,0.2-0.4,0.3
		c-0.2,0.1-0.3,0.2-0.6,0.3c-0.2,0.1-0.4,0.2-0.7,0.3c-0.2,0.1-0.4,0.2-0.7,0.2v-1.1c0.2-0.1,0.5-0.2,0.8-0.3
		c0.3-0.1,0.6-0.2,0.8-0.4c0.3-0.1,0.5-0.3,0.8-0.5c0.2-0.2,0.4-0.3,0.6-0.5h0.4V238z M1528.7,234.4h-2.8v2.8h-0.9v-2.8h-2.8v-0.9
		h2.8v-2.8h0.9v2.8h2.8V234.4z M1540.6,235.2c0,0.4-0.1,0.8-0.2,1.2c-0.2,0.4-0.4,0.7-0.7,0.9c-0.3,0.3-0.7,0.5-1.1,0.6
		c-0.4,0.1-0.9,0.2-1.4,0.2c-0.9,0-1.7-0.2-2.2-0.5v-1.2c0.7,0.5,1.4,0.8,2.3,0.8c0.3,0,0.6,0,0.9-0.1c0.3-0.1,0.5-0.2,0.7-0.4
		c0.2-0.2,0.3-0.4,0.5-0.6c0.1-0.2,0.2-0.5,0.2-0.8c0-1.3-0.9-1.9-2.7-1.9h-0.8v-1h0.8c1.6,0,2.4-0.6,2.4-1.8c0-1.1-0.6-1.7-1.8-1.7
		c-0.7,0-1.3,0.2-1.9,0.7v-1.1c0.6-0.4,1.4-0.6,2.2-0.6c0.4,0,0.8,0.1,1.1,0.2c0.3,0.1,0.6,0.3,0.9,0.5s0.4,0.5,0.6,0.7
		c0.1,0.3,0.2,0.6,0.2,0.9c0,1.3-0.7,2.1-1.9,2.5v0c0.3,0,0.6,0.1,0.9,0.2c0.3,0.1,0.5,0.3,0.7,0.5c0.2,0.2,0.4,0.4,0.5,0.7
		C1540.5,234.6,1540.6,234.9,1540.6,235.2z M1553.5,234.4h-2.8v2.8h-0.9v-2.8h-2.8v-0.9h2.8v-2.8h0.9v2.8h2.8V234.4z M1565.5,235
		c0,0.5-0.1,0.9-0.2,1.3c-0.2,0.4-0.4,0.7-0.7,1c-0.3,0.3-0.7,0.5-1.1,0.6c-0.4,0.2-0.9,0.2-1.4,0.2c-0.9,0-1.6-0.1-2-0.4v-1.2
		c0.7,0.4,1.3,0.6,2,0.6c0.4,0,0.7-0.1,1-0.2c0.3-0.1,0.5-0.3,0.7-0.4c0.2-0.2,0.4-0.4,0.5-0.7c0.1-0.3,0.2-0.6,0.2-0.9
		c0-0.6-0.2-1.1-0.7-1.5c-0.4-0.4-1-0.5-1.9-0.5c-0.1,0-0.3,0-0.4,0c-0.2,0-0.3,0-0.4,0c-0.1,0-0.3,0-0.4,0c-0.1,0-0.3,0-0.4,0
		l0.3-4.9h4.5v1h-3.6l-0.2,2.9c0.1,0,0.3,0,0.5,0c0.2,0,0.3,0,0.4,0c0.5,0,1,0.1,1.4,0.2c0.4,0.1,0.8,0.3,1,0.6
		c0.3,0.2,0.5,0.6,0.7,0.9C1565.4,234.1,1565.5,234.6,1565.5,235z M1578.3,234.4h-2.8v2.8h-0.9v-2.8h-2.8v-0.9h2.8v-2.8h0.9v2.8h2.8
		V234.4z M1590.6,228.8c-0.2,0.3-0.3,0.6-0.5,1c-0.2,0.4-0.4,0.8-0.7,1.3s-0.5,1-0.7,1.6c-0.2,0.6-0.5,1.1-0.7,1.7
		c-0.2,0.6-0.4,1.2-0.6,1.8c-0.2,0.6-0.3,1.2-0.3,1.8h-1.2c0.1-0.6,0.2-1.2,0.4-1.8c0.2-0.6,0.4-1.2,0.6-1.8
		c0.2-0.6,0.4-1.2,0.7-1.7c0.2-0.5,0.5-1,0.7-1.5c0.2-0.5,0.4-0.9,0.6-1.2c0.2-0.4,0.4-0.6,0.5-0.8h-4.9v-1h6.2V228.8z
		 M1603.1,234.4h-2.8v2.8h-0.9v-2.8h-2.8v-0.9h2.8v-2.8h0.9v2.8h2.8V234.4z M1615.4,232.5c0,0.9-0.1,1.7-0.3,2.4
		c-0.2,0.7-0.4,1.3-0.8,1.8c-0.3,0.5-0.8,0.9-1.2,1.1c-0.5,0.3-1.1,0.4-1.7,0.4c-0.6,0-1.2-0.1-1.7-0.3v-1.1
		c0.5,0.3,1.1,0.5,1.7,0.5c0.4,0,0.8-0.1,1.2-0.3c0.3-0.2,0.7-0.4,0.9-0.8c0.2-0.4,0.4-0.8,0.6-1.3c0.1-0.5,0.2-1.1,0.2-1.8h0
		c-0.4,0.8-1.1,1.3-2.2,1.3c-0.4,0-0.8-0.1-1.2-0.2c-0.3-0.2-0.7-0.4-0.9-0.6c-0.3-0.3-0.5-0.6-0.6-1c-0.1-0.4-0.2-0.8-0.2-1.2
		c0-0.5,0.1-0.9,0.2-1.3c0.2-0.4,0.4-0.7,0.7-1c0.3-0.3,0.6-0.5,1-0.7c0.4-0.2,0.8-0.2,1.3-0.2c0.5,0,0.9,0.1,1.3,0.3
		c0.4,0.2,0.7,0.5,1,0.9c0.3,0.4,0.5,0.8,0.6,1.4C1615.3,231.2,1615.4,231.8,1615.4,232.5z M1614.2,231.5c0-0.4-0.1-0.7-0.2-1
		c-0.1-0.3-0.2-0.6-0.4-0.8c-0.2-0.2-0.4-0.4-0.6-0.5c-0.2-0.1-0.5-0.2-0.8-0.2c-0.3,0-0.5,0.1-0.8,0.2c-0.2,0.1-0.4,0.3-0.6,0.5
		c-0.2,0.2-0.3,0.4-0.4,0.7c-0.1,0.3-0.1,0.6-0.1,0.9c0,0.3,0,0.7,0.1,0.9c0.1,0.3,0.2,0.5,0.4,0.7c0.2,0.2,0.4,0.3,0.6,0.4
		c0.2,0.1,0.5,0.2,0.8,0.2c0.3,0,0.5,0,0.7-0.1c0.2-0.1,0.4-0.2,0.6-0.4c0.2-0.2,0.3-0.4,0.4-0.6
		C1614.1,232,1614.2,231.8,1614.2,231.5z M1627.9,234.4h-2.8v2.8h-0.9v-2.8h-2.8v-0.9h2.8v-2.8h0.9v2.8h2.8V234.4z M1638.6,230.8
		c0-0.3,0-0.6-0.1-0.8c-0.1-0.2-0.2-0.4-0.4-0.6c-0.2-0.2-0.3-0.3-0.6-0.3s-0.5-0.1-0.7-0.1c-0.2,0-0.4,0-0.7,0.1
		c-0.2,0.1-0.4,0.1-0.6,0.2c-0.2,0.1-0.4,0.2-0.6,0.4c-0.2,0.1-0.3,0.3-0.5,0.5V229c0.3-0.3,0.7-0.5,1.1-0.7
		c0.4-0.2,0.9-0.2,1.4-0.2c0.4,0,0.8,0.1,1.1,0.2c0.3,0.1,0.6,0.3,0.9,0.5c0.2,0.2,0.4,0.5,0.6,0.8c0.2,0.3,0.2,0.7,0.2,1.1
		c0,0.4,0,0.7-0.1,1.1c-0.1,0.3-0.2,0.6-0.4,0.9c-0.2,0.3-0.4,0.5-0.7,0.8c-0.3,0.3-0.6,0.5-1,0.8c-0.5,0.3-0.8,0.6-1.1,0.8
		c-0.3,0.2-0.5,0.5-0.7,0.7c-0.2,0.2-0.3,0.4-0.4,0.6c-0.1,0.2-0.1,0.4-0.1,0.7h4.9v1h-6.1v-0.5c0-0.4,0-0.8,0.1-1.1
		c0.1-0.3,0.2-0.6,0.5-0.9c0.2-0.3,0.5-0.6,0.8-0.9c0.3-0.3,0.8-0.6,1.2-1c0.3-0.3,0.7-0.5,0.9-0.7c0.2-0.2,0.4-0.5,0.6-0.7
		c0.1-0.2,0.2-0.5,0.3-0.7C1638.6,231.3,1638.6,231,1638.6,230.8z"/>
	<path d="M1514.8,118c0-1,0.2-1.9,0.6-2.7c0.4-0.8,1-1.4,1.7-1.8c0.8-0.4,1.7-0.7,2.7-0.7c0.7,0,1.3,0.1,2,0.3
		c0.6,0.2,1.1,0.5,1.5,0.9l-1,1.2c-0.3-0.3-0.7-0.5-1.1-0.6c-0.4-0.2-0.8-0.2-1.3-0.2c-1.1,0-1.9,0.3-2.4,1
		c-0.5,0.7-0.8,1.5-0.8,2.6c0,2.5,1.1,3.7,3.2,3.7c0.7,0,1.3-0.1,2-0.4v-2.2h-2v-1.4h3.7v4.6c-1.1,0.6-2.4,0.9-3.7,0.9
		c-1.1,0-2-0.2-2.8-0.7c-0.8-0.4-1.3-1.1-1.7-1.8C1515,120,1514.8,119.1,1514.8,118z M1525.7,117.4c0-0.4,0-0.9-0.1-1.7h1.7
		c0.1,0.4,0.1,0.7,0.1,1h0c0.4-0.8,1.2-1.2,2.2-1.2c0.2,0,0.3,0,0.4,0.1l-0.1,1.5c-0.1,0-0.3,0-0.5,0c-0.6,0-1.1,0.2-1.5,0.6
		c-0.3,0.4-0.5,0.9-0.5,1.5v3.8h-1.8V117.4z M1538.1,119.3c0,0.8-0.2,1.4-0.5,2c-0.3,0.6-0.7,1-1.3,1.4c-0.6,0.3-1.2,0.5-2,0.5
		c-0.8,0-1.5-0.2-2-0.5c-0.6-0.3-1-0.8-1.3-1.4c-0.3-0.6-0.4-1.3-0.4-2c0-0.8,0.1-1.4,0.4-2c0.3-0.6,0.7-1,1.3-1.3
		c0.6-0.3,1.2-0.5,2.1-0.5c0.8,0,1.5,0.2,2,0.5c0.6,0.3,1,0.8,1.3,1.3C1537.9,117.9,1538.1,118.6,1538.1,119.3z M1532.3,119.3
		c0,0.7,0.2,1.3,0.5,1.8c0.3,0.4,0.8,0.7,1.5,0.7c0.7,0,1.2-0.2,1.5-0.7c0.3-0.5,0.5-1.1,0.5-1.8c0-0.7-0.2-1.3-0.5-1.8
		c-0.3-0.4-0.8-0.7-1.5-0.7c-0.7,0-1.2,0.2-1.5,0.7C1532.5,118,1532.3,118.6,1532.3,119.3z M1539.7,120.2v-4.5h1.8v4.2
		c0,0.6,0.1,1,0.3,1.4s0.6,0.5,1.1,0.5c0.6,0,1-0.2,1.3-0.6c0.3-0.4,0.5-0.9,0.5-1.5v-3.9h1.8v5.6c0,0.5,0,1.1,0.1,1.7h-1.7
		c-0.1-0.3-0.1-0.6-0.1-0.9h0c-0.5,0.7-1.3,1-2.3,1c-0.9,0-1.6-0.3-2.1-0.8C1540,121.8,1539.7,121.1,1539.7,120.2z M1555.9,119.3
		c0,0.7-0.1,1.4-0.4,1.9s-0.6,1.1-1.2,1.4c-0.5,0.3-1.1,0.5-1.8,0.5c-0.8,0-1.6-0.2-2.1-0.7v3.9h-1.8v-9c0-0.4,0-0.9-0.1-1.7h1.7
		c0.1,0.4,0.1,0.7,0.1,0.9h0c0.6-0.7,1.3-1.1,2.3-1.1c0.7,0,1.3,0.2,1.8,0.5c0.5,0.3,0.8,0.8,1,1.4
		C1555.8,118,1555.9,118.6,1555.9,119.3z M1554.1,119.3c0-0.8-0.2-1.4-0.5-1.8c-0.3-0.4-0.7-0.6-1.3-0.6c-0.5,0-1,0.2-1.4,0.6
		c-0.3,0.4-0.5,0.8-0.5,1.4v2.3c0.3,0.2,0.6,0.3,0.8,0.4c0.3,0.1,0.5,0.1,0.9,0.1c0.6,0,1.1-0.2,1.4-0.7
		C1553.9,120.7,1554.1,120.1,1554.1,119.3z M1562.4,116.3l-0.7,1.1c-0.6-0.4-1.1-0.5-1.7-0.5c-0.4,0-0.7,0.1-0.9,0.2
		c-0.2,0.1-0.3,0.3-0.3,0.5c0,0.2,0,0.4,0.1,0.5c0.1,0.1,0.2,0.2,0.4,0.3c0.2,0.1,0.6,0.2,1,0.3c0.7,0.2,1.2,0.4,1.6,0.8
		c0.4,0.3,0.6,0.8,0.6,1.4c0,0.8-0.3,1.4-0.9,1.8c-0.6,0.4-1.3,0.6-2.1,0.6c-1.1,0-2-0.3-2.7-0.8l0.8-1.1c0.3,0.2,0.6,0.3,0.9,0.4
		c0.3,0.1,0.6,0.1,1,0.1c0.4,0,0.7-0.1,0.9-0.2c0.2-0.1,0.3-0.4,0.3-0.7c0-0.2,0-0.3-0.1-0.5c-0.1-0.1-0.2-0.2-0.5-0.3
		c-0.2-0.1-0.5-0.2-0.9-0.3c-0.7-0.2-1.2-0.4-1.6-0.8c-0.3-0.3-0.5-0.8-0.5-1.4c0-0.7,0.3-1.2,0.8-1.6c0.5-0.4,1.2-0.6,2.1-0.6
		C1560.9,115.5,1561.7,115.8,1562.4,116.3z M1574.9,119.3c0,0.8-0.2,1.4-0.5,2c-0.3,0.6-0.7,1-1.3,1.4c-0.6,0.3-1.2,0.5-2,0.5
		s-1.4-0.2-2-0.5c-0.6-0.3-1-0.8-1.3-1.4c-0.3-0.6-0.5-1.3-0.5-2c0-0.8,0.2-1.4,0.5-2c0.3-0.6,0.7-1,1.3-1.3c0.6-0.3,1.2-0.5,2-0.5
		s1.5,0.2,2,0.5c0.6,0.3,1,0.8,1.3,1.3C1574.8,117.9,1574.9,118.6,1574.9,119.3z M1569.2,119.3c0,0.7,0.2,1.3,0.5,1.8
		c0.3,0.4,0.8,0.7,1.5,0.7c0.7,0,1.2-0.2,1.5-0.7c0.3-0.5,0.5-1.1,0.5-1.8c0-0.7-0.2-1.3-0.5-1.8c-0.3-0.4-0.8-0.7-1.5-0.7
		c-0.7,0-1.2,0.2-1.5,0.7C1569.3,118,1569.2,118.6,1569.2,119.3z M1581,113.1l-0.4,1.2c-0.2-0.1-0.5-0.1-0.8-0.1
		c-0.8,0-1.2,0.4-1.2,1.2v0.3h1.7v1.3h-1.7v5.9h-1.8v-5.9h-1.2V116l1.2-0.2v-0.4c0-0.8,0.2-1.4,0.7-1.8c0.4-0.4,1.1-0.7,2-0.7
		C1580.1,112.9,1580.6,113,1581,113.1z M1592.3,119.6c0,0.7-0.1,1.3-0.4,1.9s-0.7,1-1.3,1.3c-0.6,0.3-1.2,0.5-2,0.5
		c-1.3,0-2.2-0.4-2.9-1.3c-0.6-0.8-1-2-1-3.4c0-1.2,0.2-2.2,0.5-3c0.3-0.9,0.9-1.5,1.5-2c0.7-0.5,1.5-0.7,2.4-0.7
		c0.9,0,1.7,0.2,2.4,0.7l-0.6,1.3c-0.6-0.3-1.1-0.5-1.7-0.5c-0.8,0-1.4,0.3-1.8,0.8c-0.5,0.5-0.7,1.3-0.8,2.3
		c0.4-0.3,0.7-0.5,1.2-0.7c0.4-0.1,0.9-0.2,1.4-0.2c0.6,0,1.2,0.1,1.6,0.4c0.5,0.3,0.9,0.6,1.1,1.1
		C1592.2,118.4,1592.3,118.9,1592.3,119.6z M1590.5,119.6c0-0.6-0.2-1-0.5-1.3c-0.3-0.3-0.7-0.5-1.3-0.5c-0.8,0-1.5,0.3-2.2,1
		c0,1,0.2,1.7,0.5,2.2c0.3,0.5,0.8,0.7,1.5,0.7c0.6,0,1.1-0.2,1.4-0.6C1590.3,120.8,1590.5,120.3,1590.5,119.6z"/>
	<path class="st7" d="M16.9,40.2L14.1,50h-1.3l-2-7.2c-0.1-0.3-0.1-0.6-0.2-1h0c0,0.3-0.1,0.7-0.2,1l-2,7.2H7l-2.9-9.8h1.3l2.1,7.5
		c0.1,0.3,0.1,0.6,0.2,1h0c0-0.2,0.1-0.6,0.2-1l2.2-7.5h1.1l2.1,7.6c0.1,0.3,0.1,0.6,0.2,0.9h0c0-0.2,0.1-0.6,0.2-0.9l2-7.5H16.9z
		 M24,50h-1.1v-4c0-1.5-0.5-2.2-1.6-2.2c-0.5,0-1,0.2-1.4,0.6c-0.4,0.4-0.6,1-0.6,1.6v4h-1.1V39.6h1.1v4.5h0
		c0.5-0.9,1.3-1.3,2.3-1.3c1.6,0,2.4,1,2.4,2.9V50z M31.8,46.8h-4.9c0,0.8,0.2,1.4,0.6,1.8c0.4,0.4,1,0.6,1.7,0.6
		c0.8,0,1.5-0.3,2.2-0.8v1.1c-0.6,0.4-1.4,0.7-2.4,0.7c-1,0-1.8-0.3-2.3-1c-0.6-0.6-0.8-1.5-0.8-2.7c0-1.1,0.3-2,0.9-2.7
		c0.6-0.7,1.4-1,2.3-1s1.6,0.3,2.1,0.9c0.5,0.6,0.8,1.4,0.8,2.5V46.8z M30.6,45.8c0-0.6-0.2-1.2-0.5-1.5c-0.3-0.4-0.7-0.5-1.3-0.5
		c-0.5,0-1,0.2-1.3,0.6c-0.4,0.4-0.6,0.9-0.7,1.5H30.6z M39.3,50h-1.1v-4c0-1.5-0.5-2.2-1.6-2.2c-0.6,0-1,0.2-1.4,0.6
		c-0.4,0.4-0.5,1-0.5,1.6v4h-1.1v-7h1.1v1.2h0c0.5-0.9,1.3-1.3,2.3-1.3c0.8,0,1.4,0.2,1.8,0.7c0.4,0.5,0.6,1.2,0.6,2.1V50z
		 M51.2,49.4c0,2.6-1.2,3.9-3.7,3.9c-0.9,0-1.6-0.2-2.3-0.5v-1.1c0.8,0.4,1.5,0.7,2.3,0.7c1.7,0,2.6-0.9,2.6-2.7v-0.8h0
		c-0.5,0.9-1.3,1.3-2.4,1.3c-0.9,0-1.6-0.3-2.1-0.9c-0.5-0.6-0.8-1.5-0.8-2.5c0-1.2,0.3-2.1,0.9-2.8c0.6-0.7,1.4-1.1,2.4-1.1
		c0.9,0,1.6,0.4,2.1,1.1h0v-1h1.1V49.4z M50.1,46.8v-1c0-0.6-0.2-1-0.6-1.4c-0.4-0.4-0.8-0.6-1.4-0.6c-0.7,0-1.2,0.3-1.6,0.8
		c-0.4,0.5-0.6,1.2-0.6,2.1c0,0.8,0.2,1.4,0.6,1.9c0.4,0.5,0.9,0.7,1.5,0.7c0.6,0,1.1-0.2,1.5-0.7C49.9,48.1,50.1,47.5,50.1,46.8z
		 M57.1,44.1c-0.2-0.2-0.5-0.2-0.8-0.2c-0.5,0-0.9,0.2-1.2,0.7c-0.3,0.5-0.5,1.1-0.5,1.8V50h-1.1v-7h1.1v1.4h0
		c0.2-0.5,0.4-0.9,0.7-1.1c0.3-0.3,0.7-0.4,1.1-0.4c0.3,0,0.5,0,0.7,0.1V44.1z M61.3,50.2c-1,0-1.9-0.3-2.5-1
		c-0.6-0.7-0.9-1.5-0.9-2.6c0-1.2,0.3-2.1,1-2.8c0.6-0.7,1.5-1,2.6-1c1,0,1.9,0.3,2.4,1c0.6,0.6,0.9,1.5,0.9,2.7c0,1.1-0.3,2-1,2.7
		C63.2,49.8,62.3,50.2,61.3,50.2z M61.4,43.8c-0.7,0-1.3,0.2-1.7,0.7c-0.4,0.5-0.6,1.2-0.6,2c0,0.8,0.2,1.5,0.6,2
		c0.4,0.5,1,0.7,1.7,0.7c0.7,0,1.3-0.2,1.7-0.7c0.4-0.5,0.6-1.1,0.6-2c0-0.9-0.2-1.5-0.6-2C62.6,44,62.1,43.8,61.4,43.8z M72.2,50
		h-1.1v-1.1h0c-0.5,0.8-1.2,1.3-2.2,1.3c-1.7,0-2.5-1-2.5-3V43h1.1v4c0,1.5,0.6,2.2,1.7,2.2c0.5,0,1-0.2,1.3-0.6
		c0.4-0.4,0.5-0.9,0.5-1.6v-4h1.1V50z M75.6,49L75.6,49l0,4.2h-1.1V43h1.1v1.2h0c0.6-0.9,1.4-1.4,2.4-1.4c0.9,0,1.6,0.3,2.1,0.9
		c0.5,0.6,0.8,1.5,0.8,2.5c0,1.2-0.3,2.1-0.9,2.8c-0.6,0.7-1.3,1.1-2.3,1.1C76.8,50.2,76.1,49.8,75.6,49z M75.6,46.2v1
		c0,0.6,0.2,1.1,0.6,1.5c0.4,0.4,0.9,0.6,1.4,0.6c0.7,0,1.2-0.3,1.6-0.8c0.4-0.5,0.6-1.2,0.6-2.2c0-0.8-0.2-1.4-0.5-1.8
		c-0.4-0.4-0.8-0.7-1.5-0.7c-0.7,0-1.2,0.2-1.6,0.7C75.8,44.9,75.6,45.5,75.6,46.2z M83.3,41.2c-0.2,0-0.4-0.1-0.5-0.2
		c-0.1-0.1-0.2-0.3-0.2-0.5c0-0.2,0.1-0.4,0.2-0.5c0.1-0.1,0.3-0.2,0.5-0.2c0.2,0,0.4,0.1,0.5,0.2c0.1,0.1,0.2,0.3,0.2,0.5
		c0,0.2-0.1,0.4-0.2,0.5C83.7,41.2,83.5,41.2,83.3,41.2z M83.8,50h-1.1v-7h1.1V50z M91.9,50h-1.1v-4c0-1.5-0.5-2.2-1.6-2.2
		c-0.6,0-1,0.2-1.4,0.6c-0.4,0.4-0.5,1-0.5,1.6v4h-1.1v-7h1.1v1.2h0c0.5-0.9,1.3-1.3,2.3-1.3c0.8,0,1.4,0.2,1.8,0.7
		c0.4,0.5,0.6,1.2,0.6,2.1V50z M100,49.4c0,2.6-1.2,3.9-3.7,3.9c-0.9,0-1.6-0.2-2.3-0.5v-1.1c0.8,0.4,1.5,0.7,2.3,0.7
		c1.7,0,2.6-0.9,2.6-2.7v-0.8h0c-0.5,0.9-1.3,1.3-2.4,1.3c-0.9,0-1.6-0.3-2.1-0.9c-0.5-0.6-0.8-1.5-0.8-2.5c0-1.2,0.3-2.1,0.9-2.8
		c0.6-0.7,1.4-1.1,2.4-1.1c0.9,0,1.6,0.4,2.1,1.1h0v-1h1.1V49.4z M98.9,46.8v-1c0-0.6-0.2-1-0.6-1.4c-0.4-0.4-0.8-0.6-1.4-0.6
		c-0.7,0-1.2,0.3-1.6,0.8c-0.4,0.5-0.6,1.2-0.6,2.1c0,0.8,0.2,1.4,0.6,1.9c0.4,0.5,0.9,0.7,1.5,0.7c0.6,0,1.1-0.2,1.5-0.7
		C98.7,48.1,98.9,47.5,98.9,46.8z M110.9,49.7c-0.5,0.3-1.2,0.5-1.9,0.5c-1,0-1.8-0.3-2.4-1c-0.6-0.7-0.9-1.5-0.9-2.5
		c0-1.2,0.3-2.1,1-2.8c0.7-0.7,1.5-1.1,2.6-1.1c0.6,0,1.2,0.1,1.6,0.3v1.1c-0.5-0.4-1.1-0.5-1.7-0.5c-0.7,0-1.3,0.3-1.8,0.8
		c-0.5,0.5-0.7,1.2-0.7,2c0,0.8,0.2,1.5,0.6,1.9c0.4,0.5,1,0.7,1.7,0.7c0.6,0,1.2-0.2,1.7-0.6V49.7z M115.5,50.2c-1,0-1.9-0.3-2.5-1
		c-0.6-0.7-0.9-1.5-0.9-2.6c0-1.2,0.3-2.1,1-2.8c0.6-0.7,1.5-1,2.6-1c1,0,1.9,0.3,2.4,1c0.6,0.6,0.9,1.5,0.9,2.7c0,1.1-0.3,2-1,2.7
		C117.4,49.8,116.6,50.2,115.5,50.2z M115.6,43.8c-0.7,0-1.3,0.2-1.7,0.7c-0.4,0.5-0.6,1.2-0.6,2c0,0.8,0.2,1.5,0.6,2
		c0.4,0.5,1,0.7,1.7,0.7c0.7,0,1.3-0.2,1.7-0.7c0.4-0.5,0.6-1.1,0.6-2c0-0.9-0.2-1.5-0.6-2C116.9,44,116.3,43.8,115.6,43.8z
		 M121.9,50h-1.1V39.6h1.1V50z M127.1,50.2c-1,0-1.9-0.3-2.5-1c-0.6-0.7-0.9-1.5-0.9-2.6c0-1.2,0.3-2.1,1-2.8c0.6-0.7,1.5-1,2.6-1
		c1,0,1.9,0.3,2.4,1c0.6,0.6,0.9,1.5,0.9,2.7c0,1.1-0.3,2-1,2.7C129,49.8,128.2,50.2,127.1,50.2z M127.2,43.8
		c-0.7,0-1.3,0.2-1.7,0.7c-0.4,0.5-0.6,1.2-0.6,2c0,0.8,0.2,1.5,0.6,2c0.4,0.5,1,0.7,1.7,0.7c0.7,0,1.3-0.2,1.7-0.7
		c0.4-0.5,0.6-1.1,0.6-2c0-0.9-0.2-1.5-0.6-2C128.5,44,127.9,43.8,127.2,43.8z M136,44.1c-0.2-0.2-0.5-0.2-0.8-0.2
		c-0.5,0-0.9,0.2-1.2,0.7c-0.3,0.5-0.5,1.1-0.5,1.8V50h-1.1v-7h1.1v1.4h0c0.2-0.5,0.4-0.9,0.7-1.1c0.3-0.3,0.7-0.4,1.1-0.4
		c0.3,0,0.5,0,0.7,0.1V44.1z M136.8,49.7v-1.2c0.6,0.5,1.3,0.7,2,0.7c1,0,1.5-0.3,1.5-1c0-0.2,0-0.3-0.1-0.5
		c-0.1-0.1-0.2-0.2-0.3-0.3c-0.1-0.1-0.3-0.2-0.5-0.3c-0.2-0.1-0.4-0.2-0.6-0.3c-0.3-0.1-0.6-0.2-0.8-0.4c-0.2-0.1-0.4-0.3-0.6-0.4
		c-0.2-0.2-0.3-0.3-0.4-0.5c-0.1-0.2-0.1-0.4-0.1-0.7c0-0.3,0.1-0.6,0.2-0.9c0.2-0.3,0.4-0.5,0.6-0.6c0.2-0.2,0.5-0.3,0.9-0.4
		c0.3-0.1,0.7-0.1,1-0.1c0.6,0,1.1,0.1,1.6,0.3v1.1c-0.5-0.3-1.1-0.5-1.8-0.5c-0.2,0-0.4,0-0.6,0.1c-0.2,0-0.3,0.1-0.4,0.2
		c-0.1,0.1-0.2,0.2-0.3,0.3c-0.1,0.1-0.1,0.3-0.1,0.4c0,0.2,0,0.3,0.1,0.5c0.1,0.1,0.2,0.2,0.3,0.3c0.1,0.1,0.3,0.2,0.5,0.3
		c0.2,0.1,0.4,0.2,0.6,0.3c0.3,0.1,0.6,0.2,0.8,0.4c0.2,0.1,0.5,0.3,0.6,0.4c0.2,0.2,0.3,0.3,0.4,0.5c0.1,0.2,0.1,0.4,0.1,0.7
		c0,0.3-0.1,0.6-0.2,0.9c-0.1,0.3-0.4,0.5-0.6,0.6c-0.3,0.2-0.5,0.3-0.9,0.4c-0.3,0.1-0.7,0.1-1,0.1C138,50.2,137.4,50,136.8,49.7z
		 M155.9,43l-2.1,7h-1.2l-1.4-5c-0.1-0.2-0.1-0.4-0.1-0.6h0c0,0.2-0.1,0.4-0.1,0.6l-1.6,5h-1.1l-2.1-7h1.2l1.4,5.3
		c0,0.2,0.1,0.4,0.1,0.6h0.1c0-0.2,0.1-0.4,0.1-0.6l1.6-5.2h1l1.4,5.3c0,0.2,0.1,0.4,0.1,0.6h0.1c0-0.2,0-0.4,0.1-0.6l1.4-5.3H155.9
		z M157.7,41.2c-0.2,0-0.4-0.1-0.5-0.2c-0.1-0.1-0.2-0.3-0.2-0.5c0-0.2,0.1-0.4,0.2-0.5c0.1-0.1,0.3-0.2,0.5-0.2
		c0.2,0,0.4,0.1,0.5,0.2c0.1,0.1,0.2,0.3,0.2,0.5c0,0.2-0.1,0.4-0.2,0.5C158.1,41.2,157.9,41.2,157.7,41.2z M158.3,50h-1.1v-7h1.1
		V50z M163.8,49.9c-0.3,0.1-0.6,0.2-1,0.2c-1.2,0-1.8-0.7-1.8-2.1V44h-1.2v-1h1.2v-1.7l1.1-0.4V43h1.8v1H162v3.9
		c0,0.5,0.1,0.8,0.2,1c0.2,0.2,0.4,0.3,0.8,0.3c0.3,0,0.5-0.1,0.7-0.2V49.9z M171.1,50H170v-4c0-1.5-0.5-2.2-1.6-2.2
		c-0.5,0-1,0.2-1.4,0.6c-0.4,0.4-0.6,1-0.6,1.6v4h-1.1V39.6h1.1v4.5h0c0.5-0.9,1.3-1.3,2.3-1.3c1.6,0,2.4,1,2.4,2.9V50z M173.8,41.2
		c-0.2,0-0.4-0.1-0.5-0.2c-0.1-0.1-0.2-0.3-0.2-0.5c0-0.2,0.1-0.4,0.2-0.5c0.1-0.1,0.3-0.2,0.5-0.2c0.2,0,0.4,0.1,0.5,0.2
		c0.1,0.1,0.2,0.3,0.2,0.5c0,0.2-0.1,0.4-0.2,0.5C174.2,41.2,174,41.2,173.8,41.2z M174.4,50h-1.1v-7h1.1V50z M182.4,50h-1.1v-4
		c0-1.5-0.5-2.2-1.6-2.2c-0.6,0-1,0.2-1.4,0.6c-0.4,0.4-0.5,1-0.5,1.6v4h-1.1v-7h1.1v1.2h0c0.5-0.9,1.3-1.3,2.3-1.3
		c0.8,0,1.4,0.2,1.8,0.7c0.4,0.5,0.6,1.2,0.6,2.1V50z M194,43l-3.2,8.1c-0.6,1.4-1.4,2.2-2.4,2.2c-0.3,0-0.5,0-0.7-0.1v-1
		c0.2,0.1,0.5,0.1,0.7,0.1c0.6,0,1-0.3,1.3-1l0.6-1.3l-2.7-7h1.2l1.9,5.4c0,0.1,0.1,0.2,0.1,0.5h0c0-0.1,0.1-0.3,0.1-0.5l2-5.4H194z
		 M198.1,50.2c-1,0-1.9-0.3-2.5-1c-0.6-0.7-0.9-1.5-0.9-2.6c0-1.2,0.3-2.1,1-2.8c0.6-0.7,1.5-1,2.6-1c1,0,1.9,0.3,2.4,1
		c0.6,0.6,0.9,1.5,0.9,2.7c0,1.1-0.3,2-0.9,2.7C200,49.8,199.2,50.2,198.1,50.2z M198.2,43.8c-0.7,0-1.3,0.2-1.7,0.7
		c-0.4,0.5-0.6,1.2-0.6,2c0,0.8,0.2,1.5,0.6,2c0.4,0.5,1,0.7,1.7,0.7c0.7,0,1.3-0.2,1.7-0.7c0.4-0.5,0.6-1.1,0.6-2
		c0-0.9-0.2-1.5-0.6-2C199.5,44,198.9,43.8,198.2,43.8z M209,50h-1.1v-1.1h0c-0.5,0.8-1.2,1.3-2.2,1.3c-1.7,0-2.5-1-2.5-3V43h1.1v4
		c0,1.5,0.6,2.2,1.7,2.2c0.5,0,1-0.2,1.3-0.6c0.4-0.4,0.5-0.9,0.5-1.6v-4h1.1V50z M215,44.1c-0.2-0.2-0.5-0.2-0.8-0.2
		c-0.5,0-0.9,0.2-1.2,0.7c-0.3,0.5-0.5,1.1-0.5,1.8V50h-1.1v-7h1.1v1.4h0c0.2-0.5,0.4-0.9,0.7-1.1c0.3-0.3,0.7-0.4,1.1-0.4
		c0.3,0,0.5,0,0.7,0.1V44.1z M224.8,49.7c-0.5,0.3-1.2,0.5-1.9,0.5c-1,0-1.8-0.3-2.4-1c-0.6-0.7-0.9-1.5-0.9-2.5
		c0-1.2,0.3-2.1,1-2.8c0.7-0.7,1.5-1.1,2.6-1.1c0.6,0,1.2,0.1,1.6,0.3v1.1c-0.5-0.4-1.1-0.5-1.7-0.5c-0.7,0-1.3,0.3-1.8,0.8
		c-0.5,0.5-0.7,1.2-0.7,2c0,0.8,0.2,1.5,0.6,1.9c0.4,0.5,1,0.7,1.7,0.7c0.6,0,1.2-0.2,1.7-0.6V49.7z M232.3,50h-1.1v-4
		c0-1.5-0.5-2.2-1.6-2.2c-0.5,0-1,0.2-1.4,0.6c-0.4,0.4-0.6,1-0.6,1.6v4h-1.1V39.6h1.1v4.5h0c0.5-0.9,1.3-1.3,2.3-1.3
		c1.6,0,2.4,1,2.4,2.9V50z M239.4,50h-1.1v-1.1h0c-0.5,0.8-1.2,1.3-2.2,1.3c-0.7,0-1.2-0.2-1.6-0.6c-0.4-0.4-0.6-0.9-0.6-1.5
		c0-1.3,0.8-2.1,2.3-2.3l2.1-0.3c0-1.2-0.5-1.8-1.4-1.8c-0.8,0-1.6,0.3-2.3,0.9v-1.1c0.7-0.4,1.5-0.7,2.4-0.7c1.6,0,2.5,0.9,2.5,2.6
		V50z M238.3,46.5l-1.7,0.2c-0.5,0.1-0.9,0.2-1.2,0.4c-0.3,0.2-0.4,0.5-0.4,1c0,0.3,0.1,0.6,0.4,0.8c0.2,0.2,0.6,0.3,1,0.3
		c0.6,0,1-0.2,1.4-0.6c0.4-0.4,0.5-0.9,0.5-1.5V46.5z M245.2,44.1c-0.2-0.2-0.5-0.2-0.8-0.2c-0.5,0-0.9,0.2-1.2,0.7
		c-0.3,0.5-0.5,1.1-0.5,1.8V50h-1.1v-7h1.1v1.4h0c0.2-0.5,0.4-0.9,0.7-1.1c0.3-0.3,0.7-0.4,1.1-0.4c0.3,0,0.5,0,0.7,0.1V44.1z
		 M249.6,49.9c-0.3,0.1-0.6,0.2-1,0.2c-1.2,0-1.8-0.7-1.8-2.1V44h-1.2v-1h1.2v-1.7l1.1-0.4V43h1.8v1h-1.8v3.9c0,0.5,0.1,0.8,0.2,1
		c0.2,0.2,0.4,0.3,0.8,0.3c0.3,0,0.5-0.1,0.7-0.2V49.9z M258.4,40.6c-0.2-0.1-0.5-0.2-0.7-0.2c-0.8,0-1.2,0.5-1.2,1.5V43h1.6v1h-1.6
		v6h-1.1v-6h-1.2v-1h1.2v-1.1c0-0.7,0.2-1.3,0.6-1.7c0.4-0.4,1-0.6,1.6-0.6c0.3,0,0.6,0,0.8,0.1V40.6z M262.3,50.2
		c-1,0-1.9-0.3-2.5-1c-0.6-0.7-0.9-1.5-0.9-2.6c0-1.2,0.3-2.1,1-2.8c0.6-0.7,1.5-1,2.6-1c1,0,1.9,0.3,2.4,1c0.6,0.6,0.9,1.5,0.9,2.7
		c0,1.1-0.3,2-1,2.7C264.2,49.8,263.4,50.2,262.3,50.2z M262.4,43.8c-0.7,0-1.3,0.2-1.7,0.7c-0.4,0.5-0.6,1.2-0.6,2
		c0,0.8,0.2,1.5,0.6,2c0.4,0.5,1,0.7,1.7,0.7c0.7,0,1.3-0.2,1.7-0.7c0.4-0.5,0.6-1.1,0.6-2c0-0.9-0.2-1.5-0.6-2
		C263.7,44,263.1,43.8,262.4,43.8z M268.7,50h-1.1V39.6h1.1V50z M272.1,50H271V39.6h1.1V50z M277.3,50.2c-1,0-1.9-0.3-2.5-1
		c-0.6-0.7-0.9-1.5-0.9-2.6c0-1.2,0.3-2.1,1-2.8c0.6-0.7,1.5-1,2.6-1c1,0,1.9,0.3,2.4,1c0.6,0.6,0.9,1.5,0.9,2.7c0,1.1-0.3,2-1,2.7
		C279.2,49.8,278.3,50.2,277.3,50.2z M277.4,43.8c-0.7,0-1.3,0.2-1.7,0.7c-0.4,0.5-0.6,1.2-0.6,2c0,0.8,0.2,1.5,0.6,2
		c0.4,0.5,1,0.7,1.7,0.7c0.7,0,1.3-0.2,1.7-0.7c0.4-0.5,0.6-1.1,0.6-2c0-0.9-0.2-1.5-0.6-2C278.6,44,278.1,43.8,277.4,43.8z
		 M291.4,43l-2.1,7h-1.2l-1.4-5c-0.1-0.2-0.1-0.4-0.1-0.6h0c0,0.2-0.1,0.4-0.1,0.6l-1.6,5h-1.1l-2.1-7h1.2l1.4,5.3
		c0,0.2,0.1,0.4,0.1,0.6h0.1c0-0.2,0.1-0.4,0.1-0.6l1.6-5.2h1l1.4,5.3c0,0.2,0.1,0.4,0.1,0.6h0.1c0-0.2,0-0.4,0.1-0.6l1.4-5.3H291.4
		z M299.8,49.9c-0.3,0.1-0.6,0.2-1,0.2c-1.2,0-1.8-0.7-1.8-2.1V44h-1.2v-1h1.2v-1.7l1.1-0.4V43h1.8v1H298v3.9c0,0.5,0.1,0.8,0.2,1
		c0.2,0.2,0.4,0.3,0.8,0.3c0.3,0,0.5-0.1,0.7-0.2V49.9z M307.1,50H306v-4c0-1.5-0.5-2.2-1.6-2.2c-0.5,0-1,0.2-1.4,0.6
		c-0.4,0.4-0.6,1-0.6,1.6v4h-1.1V39.6h1.1v4.5h0c0.5-0.9,1.3-1.3,2.3-1.3c1.6,0,2.4,1,2.4,2.9V50z M314.8,46.8h-4.9
		c0,0.8,0.2,1.4,0.6,1.8c0.4,0.4,1,0.6,1.7,0.6c0.8,0,1.5-0.3,2.2-0.8v1.1c-0.6,0.4-1.4,0.7-2.4,0.7c-1,0-1.8-0.3-2.3-1
		c-0.6-0.6-0.8-1.5-0.8-2.7c0-1.1,0.3-2,0.9-2.7c0.6-0.7,1.4-1,2.3-1c0.9,0,1.6,0.3,2.1,0.9c0.5,0.6,0.8,1.4,0.8,2.5V46.8z
		 M313.7,45.8c0-0.6-0.2-1.2-0.5-1.5c-0.3-0.4-0.7-0.5-1.3-0.5c-0.5,0-1,0.2-1.3,0.6c-0.4,0.4-0.6,0.9-0.7,1.5H313.7z M326.3,49.4
		c0,2.6-1.2,3.9-3.7,3.9c-0.9,0-1.6-0.2-2.3-0.5v-1.1c0.8,0.4,1.5,0.7,2.3,0.7c1.7,0,2.6-0.9,2.6-2.7v-0.8h0
		c-0.5,0.9-1.3,1.3-2.4,1.3c-0.9,0-1.6-0.3-2.1-0.9c-0.5-0.6-0.8-1.5-0.8-2.5c0-1.2,0.3-2.1,0.9-2.8c0.6-0.7,1.4-1.1,2.4-1.1
		c0.9,0,1.6,0.4,2.1,1.1h0v-1h1.1V49.4z M325.2,46.8v-1c0-0.6-0.2-1-0.6-1.4c-0.4-0.4-0.8-0.6-1.4-0.6c-0.7,0-1.2,0.3-1.6,0.8
		c-0.4,0.5-0.6,1.2-0.6,2.1c0,0.8,0.2,1.4,0.6,1.9c0.4,0.5,0.9,0.7,1.5,0.7c0.6,0,1.1-0.2,1.5-0.7C325,48.1,325.2,47.5,325.2,46.8z
		 M334.3,50h-1.1v-1.1h0c-0.5,0.8-1.2,1.3-2.2,1.3c-1.7,0-2.5-1-2.5-3V43h1.1v4c0,1.5,0.6,2.2,1.7,2.2c0.5,0,1-0.2,1.3-0.6
		c0.4-0.4,0.5-0.9,0.5-1.6v-4h1.1V50z M337.1,41.2c-0.2,0-0.4-0.1-0.5-0.2c-0.1-0.1-0.2-0.3-0.2-0.5c0-0.2,0.1-0.4,0.2-0.5
		c0.1-0.1,0.3-0.2,0.5-0.2c0.2,0,0.4,0.1,0.5,0.2c0.1,0.1,0.2,0.3,0.2,0.5c0,0.2-0.1,0.4-0.2,0.5C337.5,41.2,337.3,41.2,337.1,41.2z
		 M337.7,50h-1.1v-7h1.1V50z M345.9,50h-1.1v-1.2h0c-0.5,0.9-1.3,1.4-2.4,1.4c-0.9,0-1.6-0.3-2.1-0.9c-0.5-0.6-0.8-1.5-0.8-2.6
		c0-1.2,0.3-2.1,0.9-2.8c0.6-0.7,1.4-1,2.3-1c1,0,1.7,0.4,2.1,1.1h0v-4.3h1.1V50z M344.8,46.8v-1c0-0.6-0.2-1-0.6-1.4
		c-0.4-0.4-0.8-0.6-1.4-0.6c-0.7,0-1.2,0.3-1.6,0.8c-0.4,0.5-0.6,1.2-0.6,2.1c0,0.8,0.2,1.4,0.6,1.9c0.4,0.5,0.9,0.7,1.5,0.7
		c0.6,0,1.1-0.2,1.5-0.7C344.6,48.1,344.8,47.5,344.8,46.8z M353.8,46.8h-4.9c0,0.8,0.2,1.4,0.6,1.8c0.4,0.4,1,0.6,1.7,0.6
		c0.8,0,1.5-0.3,2.2-0.8v1.1c-0.6,0.4-1.4,0.7-2.4,0.7c-1,0-1.8-0.3-2.3-1c-0.6-0.6-0.8-1.5-0.8-2.7c0-1.1,0.3-2,0.9-2.7
		c0.6-0.7,1.4-1,2.3-1c0.9,0,1.6,0.3,2.1,0.9c0.5,0.6,0.8,1.4,0.8,2.5V46.8z M352.7,45.8c0-0.6-0.2-1.2-0.5-1.5
		c-0.3-0.4-0.7-0.5-1.3-0.5c-0.5,0-1,0.2-1.3,0.6c-0.4,0.4-0.6,0.9-0.7,1.5H352.7z M356.6,50h-1.1V39.6h1.1V50z M359.5,41.2
		c-0.2,0-0.4-0.1-0.5-0.2s-0.2-0.3-0.2-0.5c0-0.2,0.1-0.4,0.2-0.5c0.1-0.1,0.3-0.2,0.5-0.2c0.2,0,0.4,0.1,0.5,0.2
		c0.1,0.1,0.2,0.3,0.2,0.5c0,0.2-0.1,0.4-0.2,0.5C359.8,41.2,359.7,41.2,359.5,41.2z M360,50h-1.1v-7h1.1V50z M368.1,50H367v-4
		c0-1.5-0.5-2.2-1.6-2.2c-0.6,0-1,0.2-1.4,0.6c-0.4,0.4-0.5,1-0.5,1.6v4h-1.1v-7h1.1v1.2h0c0.5-0.9,1.3-1.3,2.3-1.3
		c0.8,0,1.4,0.2,1.8,0.7c0.4,0.5,0.6,1.2,0.6,2.1V50z M375.8,46.8h-4.9c0,0.8,0.2,1.4,0.6,1.8c0.4,0.4,1,0.6,1.7,0.6
		c0.8,0,1.5-0.3,2.2-0.8v1.1c-0.6,0.4-1.4,0.7-2.4,0.7c-1,0-1.8-0.3-2.3-1c-0.6-0.6-0.8-1.5-0.8-2.7c0-1.1,0.3-2,0.9-2.7
		c0.6-0.7,1.4-1,2.3-1c0.9,0,1.6,0.3,2.1,0.9c0.5,0.6,0.8,1.4,0.8,2.5V46.8z M374.7,45.8c0-0.6-0.2-1.2-0.5-1.5
		c-0.3-0.4-0.7-0.5-1.3-0.5c-0.5,0-1,0.2-1.3,0.6c-0.4,0.4-0.6,0.9-0.7,1.5H374.7z M377.1,49.7v-1.2c0.6,0.5,1.3,0.7,2,0.7
		c1,0,1.5-0.3,1.5-1c0-0.2,0-0.3-0.1-0.5c-0.1-0.1-0.2-0.2-0.3-0.3c-0.1-0.1-0.3-0.2-0.5-0.3c-0.2-0.1-0.4-0.2-0.6-0.3
		c-0.3-0.1-0.6-0.2-0.8-0.4c-0.2-0.1-0.4-0.3-0.6-0.4c-0.2-0.2-0.3-0.3-0.4-0.5c-0.1-0.2-0.1-0.4-0.1-0.7c0-0.3,0.1-0.6,0.2-0.9
		c0.2-0.3,0.4-0.5,0.6-0.6c0.3-0.2,0.5-0.3,0.9-0.4c0.3-0.1,0.7-0.1,1-0.1c0.6,0,1.1,0.1,1.6,0.3v1.1c-0.5-0.3-1.1-0.5-1.8-0.5
		c-0.2,0-0.4,0-0.6,0.1c-0.2,0-0.3,0.1-0.4,0.2c-0.1,0.1-0.2,0.2-0.3,0.3c-0.1,0.1-0.1,0.3-0.1,0.4c0,0.2,0,0.3,0.1,0.5
		c0.1,0.1,0.2,0.2,0.3,0.3c0.1,0.1,0.3,0.2,0.5,0.3c0.2,0.1,0.4,0.2,0.6,0.3c0.3,0.1,0.6,0.2,0.8,0.4c0.2,0.1,0.5,0.3,0.6,0.4
		c0.2,0.2,0.3,0.3,0.4,0.5c0.1,0.2,0.1,0.4,0.1,0.7c0,0.3-0.1,0.6-0.2,0.9c-0.2,0.3-0.4,0.5-0.6,0.6c-0.3,0.2-0.5,0.3-0.9,0.4
		s-0.7,0.1-1,0.1C378.3,50.2,377.6,50,377.1,49.7z M388.5,49L388.5,49l0,1h-1.1V39.6h1.1v4.6h0c0.6-0.9,1.4-1.4,2.4-1.4
		c0.9,0,1.6,0.3,2.1,0.9c0.5,0.6,0.8,1.5,0.8,2.5c0,1.2-0.3,2.1-0.9,2.8c-0.6,0.7-1.3,1.1-2.3,1.1C389.7,50.2,389,49.8,388.5,49z
		 M388.5,46.2v1c0,0.6,0.2,1.1,0.6,1.5c0.4,0.4,0.9,0.6,1.4,0.6c0.7,0,1.2-0.3,1.6-0.8c0.4-0.5,0.6-1.2,0.6-2.2
		c0-0.8-0.2-1.4-0.5-1.8c-0.4-0.4-0.8-0.7-1.5-0.7c-0.7,0-1.2,0.2-1.6,0.7C388.7,44.9,388.5,45.5,388.5,46.2z M401.2,46.8h-4.9
		c0,0.8,0.2,1.4,0.6,1.8c0.4,0.4,1,0.6,1.7,0.6c0.8,0,1.5-0.3,2.2-0.8v1.1c-0.6,0.4-1.4,0.7-2.4,0.7c-1,0-1.8-0.3-2.3-1
		c-0.6-0.6-0.8-1.5-0.8-2.7c0-1.1,0.3-2,0.9-2.7c0.6-0.7,1.4-1,2.3-1c0.9,0,1.6,0.3,2.1,0.9c0.5,0.6,0.8,1.4,0.8,2.5V46.8z
		 M400,45.8c0-0.6-0.2-1.2-0.5-1.5c-0.3-0.4-0.7-0.5-1.3-0.5c-0.5,0-1,0.2-1.3,0.6c-0.4,0.4-0.6,0.9-0.7,1.5H400z M404,50h-1.1V39.6
		h1.1V50z M409.2,50.2c-1,0-1.9-0.3-2.5-1c-0.6-0.7-0.9-1.5-0.9-2.6c0-1.2,0.3-2.1,1-2.8c0.6-0.7,1.5-1,2.6-1c1,0,1.9,0.3,2.4,1
		c0.6,0.6,0.9,1.5,0.9,2.7c0,1.1-0.3,2-0.9,2.7C411.1,49.8,410.3,50.2,409.2,50.2z M409.3,43.8c-0.7,0-1.3,0.2-1.7,0.7
		c-0.4,0.5-0.6,1.2-0.6,2c0,0.8,0.2,1.5,0.6,2c0.4,0.5,1,0.7,1.7,0.7c0.7,0,1.3-0.2,1.7-0.7c0.4-0.5,0.6-1.1,0.6-2
		c0-0.9-0.2-1.5-0.6-2C410.6,44,410,43.8,409.3,43.8z M423.3,43l-2.1,7H420l-1.4-5c-0.1-0.2-0.1-0.4-0.1-0.6h0
		c0,0.2-0.1,0.4-0.1,0.6l-1.6,5h-1.1l-2.1-7h1.2l1.5,5.3c0,0.2,0.1,0.4,0.1,0.6h0.1c0-0.2,0.1-0.4,0.1-0.6L418,43h1l1.4,5.3
		c0,0.2,0.1,0.4,0.1,0.6h0.1c0-0.2,0-0.4,0.1-0.6l1.4-5.3H423.3z M433.5,50h-1.1v-1.1h0c-0.5,0.8-1.2,1.3-2.2,1.3
		c-0.7,0-1.2-0.2-1.6-0.6c-0.4-0.4-0.6-0.9-0.6-1.5c0-1.3,0.8-2.1,2.3-2.3l2.1-0.3c0-1.2-0.5-1.8-1.4-1.8c-0.8,0-1.6,0.3-2.3,0.9
		v-1.1c0.7-0.4,1.5-0.7,2.4-0.7c1.6,0,2.5,0.9,2.5,2.6V50z M432.3,46.5l-1.7,0.2c-0.5,0.1-0.9,0.2-1.2,0.4c-0.3,0.2-0.4,0.5-0.4,1
		c0,0.3,0.1,0.6,0.4,0.8c0.2,0.2,0.6,0.3,1,0.3c0.6,0,1-0.2,1.4-0.6c0.4-0.4,0.5-0.9,0.5-1.5V46.5z M435.1,49.7v-1.2
		c0.6,0.5,1.3,0.7,2,0.7c1,0,1.5-0.3,1.5-1c0-0.2,0-0.3-0.1-0.5c-0.1-0.1-0.2-0.2-0.3-0.3c-0.1-0.1-0.3-0.2-0.5-0.3
		c-0.2-0.1-0.4-0.2-0.6-0.3c-0.3-0.1-0.6-0.2-0.8-0.4c-0.2-0.1-0.4-0.3-0.6-0.4c-0.2-0.2-0.3-0.3-0.4-0.5c-0.1-0.2-0.1-0.4-0.1-0.7
		c0-0.3,0.1-0.6,0.2-0.9c0.2-0.3,0.4-0.5,0.6-0.6c0.3-0.2,0.5-0.3,0.9-0.4c0.3-0.1,0.7-0.1,1-0.1c0.6,0,1.1,0.1,1.6,0.3v1.1
		c-0.5-0.3-1.1-0.5-1.8-0.5c-0.2,0-0.4,0-0.6,0.1c-0.2,0-0.3,0.1-0.4,0.2c-0.1,0.1-0.2,0.2-0.3,0.3c-0.1,0.1-0.1,0.3-0.1,0.4
		c0,0.2,0,0.3,0.1,0.5c0.1,0.1,0.2,0.2,0.3,0.3c0.1,0.1,0.3,0.2,0.5,0.3c0.2,0.1,0.4,0.2,0.6,0.3c0.3,0.1,0.6,0.2,0.8,0.4
		c0.2,0.1,0.5,0.3,0.6,0.4c0.2,0.2,0.3,0.3,0.4,0.5c0.1,0.2,0.1,0.4,0.1,0.7c0,0.3-0.1,0.6-0.2,0.9c-0.2,0.3-0.4,0.5-0.6,0.6
		c-0.3,0.2-0.5,0.3-0.9,0.4c-0.3,0.1-0.7,0.1-1,0.1C436.3,50.2,435.7,50,435.1,49.7z M450.4,50h-1.1v-1.1h0
		c-0.5,0.8-1.2,1.3-2.2,1.3c-0.7,0-1.2-0.2-1.6-0.6c-0.4-0.4-0.6-0.9-0.6-1.5c0-1.3,0.8-2.1,2.3-2.3l2.1-0.3c0-1.2-0.5-1.8-1.4-1.8
		c-0.8,0-1.6,0.3-2.3,0.9v-1.1c0.7-0.4,1.5-0.7,2.4-0.7c1.6,0,2.5,0.9,2.5,2.6V50z M449.2,46.5l-1.7,0.2c-0.5,0.1-0.9,0.2-1.2,0.4
		c-0.3,0.2-0.4,0.5-0.4,1c0,0.3,0.1,0.6,0.4,0.8c0.2,0.2,0.6,0.3,1,0.3c0.6,0,1-0.2,1.4-0.6c0.4-0.4,0.5-0.9,0.5-1.5V46.5z
		 M458.3,50h-1.1v-4c0-1.5-0.5-2.2-1.6-2.2c-0.6,0-1,0.2-1.4,0.6c-0.4,0.4-0.5,1-0.5,1.6v4h-1.1v-7h1.1v1.2h0
		c0.5-0.9,1.3-1.3,2.3-1.3c0.8,0,1.4,0.2,1.8,0.7c0.4,0.5,0.6,1.2,0.6,2.1V50z M469.9,46.8h-4.9c0,0.8,0.2,1.4,0.6,1.8
		c0.4,0.4,1,0.6,1.7,0.6c0.8,0,1.5-0.3,2.2-0.8v1.1c-0.6,0.4-1.4,0.7-2.4,0.7c-1,0-1.8-0.3-2.3-1c-0.6-0.6-0.8-1.5-0.8-2.7
		c0-1.1,0.3-2,0.9-2.7c0.6-0.7,1.4-1,2.3-1c0.9,0,1.6,0.3,2.1,0.9c0.5,0.6,0.8,1.4,0.8,2.5V46.8z M468.7,45.8c0-0.6-0.2-1.2-0.5-1.5
		c-0.3-0.4-0.7-0.5-1.3-0.5c-0.5,0-1,0.2-1.3,0.6c-0.4,0.4-0.6,0.9-0.7,1.5H468.7z M476.7,43l-2.4,3.5l2.3,3.5h-1.3l-1.4-2.3
		c-0.1-0.1-0.2-0.3-0.3-0.5h0c0,0-0.1,0.2-0.3,0.5l-1.4,2.3h-1.3l2.4-3.4l-2.3-3.6h1.3l1.4,2.4c0.1,0.2,0.2,0.4,0.3,0.5h0l1.8-2.9
		H476.7z M483,50h-1.1v-1.1h0c-0.5,0.8-1.2,1.3-2.2,1.3c-0.7,0-1.2-0.2-1.6-0.6c-0.4-0.4-0.6-0.9-0.6-1.5c0-1.3,0.8-2.1,2.3-2.3
		l2.1-0.3c0-1.2-0.5-1.8-1.4-1.8c-0.8,0-1.6,0.3-2.3,0.9v-1.1c0.7-0.4,1.5-0.7,2.4-0.7c1.6,0,2.5,0.9,2.5,2.6V50z M481.9,46.5
		l-1.7,0.2c-0.5,0.1-0.9,0.2-1.2,0.4c-0.3,0.2-0.4,0.5-0.4,1c0,0.3,0.1,0.6,0.4,0.8c0.2,0.2,0.6,0.3,1,0.3c0.6,0,1-0.2,1.4-0.6
		c0.4-0.4,0.5-0.9,0.5-1.5V46.5z M495.1,50h-1.1v-4c0-0.8-0.1-1.3-0.4-1.7c-0.2-0.3-0.6-0.5-1.2-0.5c-0.5,0-0.9,0.2-1.2,0.7
		c-0.3,0.4-0.5,1-0.5,1.6v4h-1.1v-4.2c0-1.4-0.5-2.1-1.6-2.1c-0.5,0-0.9,0.2-1.2,0.6c-0.3,0.4-0.5,0.9-0.5,1.6v4h-1.1v-7h1.1v1.1h0
		c0.5-0.8,1.2-1.3,2.2-1.3c0.5,0,0.9,0.1,1.3,0.4c0.4,0.3,0.6,0.6,0.7,1c0.5-1,1.3-1.4,2.3-1.4c1.5,0,2.3,1,2.3,2.9V50z M498.3,49
		L498.3,49l0,4.2h-1.1V43h1.1v1.2h0c0.6-0.9,1.4-1.4,2.4-1.4c0.9,0,1.6,0.3,2.1,0.9c0.5,0.6,0.8,1.5,0.8,2.5c0,1.2-0.3,2.1-0.9,2.8
		c-0.6,0.7-1.3,1.1-2.3,1.1C499.5,50.2,498.8,49.8,498.3,49z M498.3,46.2v1c0,0.6,0.2,1.1,0.6,1.5c0.4,0.4,0.9,0.6,1.4,0.6
		c0.7,0,1.2-0.3,1.6-0.8c0.4-0.5,0.6-1.2,0.6-2.2c0-0.8-0.2-1.4-0.5-1.8c-0.4-0.4-0.8-0.7-1.5-0.7c-0.7,0-1.2,0.2-1.6,0.7
		C498.5,44.9,498.3,45.5,498.3,46.2z M506.5,50h-1.1V39.6h1.1V50z M514.4,46.8h-4.9c0,0.8,0.2,1.4,0.6,1.8c0.4,0.4,1,0.6,1.7,0.6
		c0.8,0,1.5-0.3,2.2-0.8v1.1c-0.6,0.4-1.4,0.7-2.4,0.7c-1,0-1.8-0.3-2.3-1c-0.6-0.6-0.8-1.5-0.8-2.7c0-1.1,0.3-2,0.9-2.7
		c0.6-0.7,1.4-1,2.3-1c0.9,0,1.6,0.3,2.1,0.9c0.5,0.6,0.8,1.4,0.8,2.5V46.8z M513.3,45.8c0-0.6-0.2-1.2-0.5-1.5
		c-0.3-0.4-0.7-0.5-1.3-0.5c-0.5,0-1,0.2-1.3,0.6c-0.4,0.4-0.6,0.9-0.7,1.5H513.3z M516.5,50.2c-0.2,0-0.4-0.1-0.5-0.2
		c-0.1-0.2-0.2-0.3-0.2-0.5c0-0.2,0.1-0.4,0.2-0.5c0.2-0.2,0.3-0.2,0.5-0.2c0.2,0,0.4,0.1,0.5,0.2c0.2,0.2,0.2,0.3,0.2,0.5
		c0,0.2-0.1,0.4-0.2,0.5C516.9,50.1,516.7,50.2,516.5,50.2z"/>
	<path d="M15.7,8.5L14.4,10C14,9.7,13.5,9.4,13,9.2c-0.5-0.2-1.1-0.3-1.7-0.3c-1.4,0-2.4,0.4-3.1,1.3c-0.7,0.8-1,2-1,3.4
		c0,1.4,0.3,2.5,1,3.4c0.7,0.8,1.7,1.3,3,1.3c0.6,0,1.2-0.1,1.8-0.3c0.5-0.2,1-0.6,1.4-0.9l1.4,1.5c-0.5,0.5-1.2,1-2,1.3
		c-0.8,0.3-1.7,0.5-2.6,0.5c-1.4,0-2.5-0.3-3.5-0.8c-1-0.6-1.7-1.4-2.2-2.4c-0.5-1-0.7-2.2-0.7-3.5c0-1.3,0.2-2.5,0.7-3.5
		c0.5-1,1.2-1.8,2.2-2.3c1-0.6,2.1-0.8,3.5-0.8c0.9,0,1.7,0.1,2.5,0.4S15.2,8,15.7,8.5z M26.3,15.3c0,1-0.2,1.8-0.6,2.6
		c-0.4,0.7-0.9,1.3-1.7,1.7c-0.7,0.4-1.6,0.6-2.6,0.6s-1.9-0.2-2.6-0.6c-0.7-0.4-1.3-1-1.7-1.8c-0.4-0.8-0.6-1.6-0.6-2.6
		c0-1,0.2-1.8,0.6-2.6c0.4-0.7,0.9-1.3,1.7-1.7c0.7-0.4,1.6-0.6,2.6-0.6c1,0,1.9,0.2,2.6,0.6s1.3,1,1.7,1.7
		C26.1,13.4,26.3,14.3,26.3,15.3z M18.9,15.3c0,1,0.2,1.7,0.6,2.3c0.4,0.6,1.1,0.9,1.9,0.9c0.9,0,1.5-0.3,1.9-0.9
		c0.4-0.6,0.6-1.4,0.6-2.3c0-0.9-0.2-1.7-0.6-2.2c-0.4-0.6-1.1-0.8-2-0.8c-0.9,0-1.5,0.3-1.9,0.8C19.1,13.6,18.9,14.3,18.9,15.3z
		 M30.7,7.3V20h-2.2V7.3H30.7z M42.7,15.3c0,1-0.2,1.8-0.6,2.6c-0.4,0.7-0.9,1.3-1.7,1.7c-0.7,0.4-1.6,0.6-2.6,0.6
		c-1,0-1.9-0.2-2.6-0.6c-0.7-0.4-1.3-1-1.7-1.8c-0.4-0.8-0.6-1.6-0.6-2.6c0-1,0.2-1.8,0.6-2.6c0.4-0.7,0.9-1.3,1.7-1.7
		c0.7-0.4,1.6-0.6,2.6-0.6s1.9,0.2,2.6,0.6c0.7,0.4,1.3,1,1.7,1.7S42.7,14.3,42.7,15.3z M35.3,15.3c0,1,0.2,1.7,0.6,2.3
		c0.4,0.6,1.1,0.9,1.9,0.9s1.5-0.3,1.9-0.9c0.4-0.6,0.6-1.4,0.6-2.3c0-0.9-0.2-1.7-0.6-2.2c-0.4-0.6-1.1-0.8-2-0.8
		c-0.9,0-1.5,0.3-1.9,0.8C35.5,13.6,35.3,14.3,35.3,15.3z M44.9,12.8c0-0.5-0.1-1.2-0.2-2.1h2.2c0.1,0.5,0.1,0.9,0.1,1.3h0
		c0.6-1,1.5-1.5,2.8-1.5c0.2,0,0.4,0,0.6,0.1l-0.1,1.9c-0.2,0-0.4-0.1-0.7-0.1c-0.8,0-1.4,0.3-1.9,0.8c-0.4,0.5-0.6,1.2-0.6,2V20
		h-2.2V12.8z M56.2,13.6c0-1.3,0.3-2.5,0.8-3.5c0.5-1,1.3-1.8,2.2-2.3c1-0.6,2.1-0.8,3.5-0.8c0.9,0,1.7,0.1,2.5,0.4
		c0.8,0.3,1.4,0.7,2,1.2L65.8,10c-0.4-0.3-0.9-0.6-1.4-0.8c-0.5-0.2-1.1-0.3-1.6-0.3c-1.4,0-2.4,0.4-3.1,1.3c-0.7,0.8-1,2-1,3.4
		c0,3.2,1.4,4.8,4.1,4.8c0.9,0,1.7-0.2,2.6-0.5V15h-2.6v-1.8h4.8v5.9c-1.4,0.8-3,1.2-4.8,1.2c-1.4,0-2.6-0.3-3.6-0.8
		c-1-0.6-1.7-1.4-2.2-2.4C56.4,16.1,56.2,15,56.2,13.6z M70.1,12.8c0-0.5-0.1-1.2-0.2-2.1h2.2c0.1,0.5,0.1,0.9,0.1,1.3h0
		c0.6-1,1.5-1.5,2.8-1.5c0.2,0,0.4,0,0.6,0.1l-0.1,1.9c-0.2,0-0.4-0.1-0.7-0.1c-0.8,0-1.4,0.3-1.9,0.8c-0.4,0.5-0.6,1.2-0.6,2V20
		h-2.2V12.8z M86.1,15.3c0,1-0.2,1.8-0.6,2.6c-0.4,0.7-0.9,1.3-1.7,1.7c-0.7,0.4-1.6,0.6-2.6,0.6s-1.9-0.2-2.6-0.6
		c-0.7-0.4-1.3-1-1.7-1.8c-0.4-0.8-0.6-1.6-0.6-2.6c0-1,0.2-1.8,0.6-2.6c0.4-0.7,0.9-1.3,1.7-1.7c0.7-0.4,1.6-0.6,2.6-0.6
		s1.9,0.2,2.6,0.6c0.7,0.4,1.3,1,1.7,1.7C85.9,13.4,86.1,14.3,86.1,15.3z M78.7,15.3c0,1,0.2,1.7,0.6,2.3c0.4,0.6,1.1,0.9,1.9,0.9
		s1.5-0.3,1.9-0.9c0.4-0.6,0.6-1.4,0.6-2.3c0-0.9-0.2-1.7-0.6-2.2c-0.4-0.6-1.1-0.8-2-0.8c-0.9,0-1.5,0.3-1.9,0.8
		C78.9,13.6,78.7,14.3,78.7,15.3z M88.2,16.4v-5.8h2.3v5.4c0,0.7,0.2,1.3,0.4,1.8c0.3,0.4,0.8,0.6,1.4,0.6c0.7,0,1.3-0.3,1.7-0.8
		c0.4-0.5,0.6-1.2,0.6-2v-5.1h2.2v7.2c0,0.6,0.1,1.4,0.2,2.1h-2.2c-0.1-0.4-0.1-0.8-0.1-1.1h0c-0.7,0.9-1.7,1.4-3,1.4
		c-1.2,0-2-0.4-2.6-1.1C88.5,18.5,88.2,17.5,88.2,16.4z M108.9,15.3c0,0.9-0.2,1.7-0.5,2.5c-0.3,0.8-0.8,1.4-1.5,1.8
		c-0.6,0.4-1.4,0.6-2.3,0.6c-1.1,0-2-0.3-2.7-0.9v5h-2.2V12.8c0-0.5-0.1-1.2-0.2-2.1h2.2c0.1,0.5,0.1,0.9,0.1,1.1h0
		c0.7-0.9,1.7-1.4,3-1.4c0.9,0,1.7,0.2,2.2,0.7c0.6,0.4,1,1,1.3,1.8C108.8,13.6,108.9,14.4,108.9,15.3z M106.6,15.3
		c0-1-0.2-1.8-0.6-2.3c-0.4-0.5-0.9-0.8-1.6-0.8s-1.3,0.2-1.7,0.7c-0.5,0.5-0.7,1.1-0.7,1.8v3c0.4,0.3,0.7,0.4,1.1,0.6
		c0.3,0.1,0.7,0.2,1.1,0.2c0.8,0,1.4-0.3,1.9-0.8C106.4,17.1,106.6,16.3,106.6,15.3z M113.4,20h-2.2v-9.4h2.2V20z M110.9,7.7
		c0-0.9,0.5-1.3,1.4-1.3c0.5,0,0.8,0.1,1.1,0.4c0.2,0.2,0.3,0.6,0.3,0.9c0,0.4-0.1,0.7-0.3,0.9c-0.2,0.2-0.6,0.4-1,0.4
		c-0.5,0-0.8-0.1-1.1-0.4S110.9,8.1,110.9,7.7z M116.2,12.8c0-0.5-0.1-1.2-0.2-2.1h2.2c0.1,0.4,0.1,0.7,0.1,1.1h0
		c0.3-0.4,0.7-0.7,1.2-1c0.5-0.3,1.1-0.4,1.9-0.4c0.8,0,1.4,0.2,1.9,0.5c0.5,0.3,0.9,0.7,1.1,1.3c0.2,0.5,0.4,1.1,0.4,1.7V20h-2.2
		v-5.7c0-0.6-0.2-1.1-0.5-1.5c-0.3-0.4-0.8-0.6-1.5-0.6c-0.7,0-1.3,0.2-1.7,0.7c-0.4,0.5-0.6,1.1-0.6,1.8V20h-2.2V12.8z M126.5,21.7
		c0-1,0.6-1.8,1.7-2.5c-0.3-0.2-0.4-0.3-0.6-0.5c-0.1-0.2-0.2-0.4-0.2-0.7c0-0.3,0.1-0.6,0.3-0.9c0.2-0.3,0.5-0.5,1-0.6
		c-1.1-0.6-1.6-1.5-1.6-2.8c0-1,0.4-1.9,1.1-2.5c0.7-0.6,1.7-0.9,3-0.9c0.3,0,0.6,0,0.9,0.1c0.3,0,0.5,0.1,0.8,0.2h3.4v1.8l-1.9-0.3
		c0.2,0.2,0.4,0.5,0.5,0.8c0.1,0.3,0.2,0.7,0.2,1.1c0,1-0.3,1.7-1,2.3c-0.7,0.5-1.7,0.8-2.9,0.8c-0.6,0-1,0.1-1.3,0.2
		c-0.3,0.1-0.4,0.3-0.4,0.5c0,0.2,0.1,0.4,0.4,0.5c0.3,0.1,0.7,0.2,1.3,0.2c1.7,0,2.9,0.3,3.7,0.7c0.8,0.4,1.2,1.1,1.2,2
		c0,1.1-0.5,2-1.4,2.5c-0.9,0.6-2.2,0.9-3.8,0.9c-1.4,0-2.5-0.3-3.2-0.8C126.9,23.4,126.5,22.7,126.5,21.7z M133,13.8
		c0-0.5-0.2-1-0.5-1.3c-0.3-0.3-0.8-0.5-1.5-0.5c-0.6,0-1.1,0.2-1.4,0.5c-0.3,0.3-0.5,0.7-0.5,1.2c0,0.5,0.2,1,0.5,1.3
		c0.3,0.3,0.8,0.5,1.5,0.5C132.4,15.5,133,14.9,133,13.8z M133.8,21.4c0-0.4-0.3-0.8-0.9-1c-0.6-0.2-1.7-0.3-3.2-0.3
		c-0.7,0.4-1,0.9-1,1.5c0,0.9,0.7,1.4,2.2,1.4c0.9,0,1.7-0.1,2.2-0.4C133.5,22.3,133.8,21.9,133.8,21.4z"/>
</g>
</svg>
