<?xml version="1.0" encoding="utf-8"?>
<!-- Generator: Adobe Illustrator 27.0.0, SVG Export Plug-In . SVG Version: 6.00 Build 0)  -->
<svg version="1.1" id="Layer_1" xmlns="http://www.w3.org/2000/svg" xmlns:xlink="http://www.w3.org/1999/xlink" x="0px" y="0px"
	 viewBox="0 0 1776.4 2801.5" style="enable-background:new 0 0 1776.4 2801.5;" xml:space="preserve">
<style type="text/css">
	.st0{fill:none;}
	.st1{clip-path:url(#SVGID_00000019654960189954608140000015547450232436390067_);}
	.st2{fill:#D2451E;}
	.st3{fill:#7EC67F;}
	.st4{fill:#FCB32E;}
	.st5{fill:#222D64;}
	.st6{clip-path:url(#SVGID_00000010282041422157474340000007513991968595801995_);}
	.st7{clip-path:url(#SVGID_00000080903216493256081390000002212852302274757767_);}
	.st8{fill:#D5D0CA;}
	.st9{fill:#009DDC;}
	.st10{clip-path:url(#SVGID_00000029758976052923909710000000975688837029388440_);}
	.st11{clip-path:url(#SVGID_00000170984965047420426800000006741589339603595662_);}
	.st12{opacity:0.3;}
	.st13{clip-path:url(#SVGID_00000100370514531927862330000016880822732720017063_);}
	.st14{fill:#C4C4C4;filter:url(#Adobe_OpacityMaskFilter);}
	.st15{mask:url(#mask0_216_735_00000056395700353759305470000003101132257979289250_);}
	.st16{fill-rule:evenodd;clip-rule:evenodd;fill:#7EC67F;}
	
		.st17{fill-rule:evenodd;clip-rule:evenodd;fill:#FFFFFF;filter:url(#Adobe_OpacityMaskFilter_00000095313775377967140080000003322088702213097634_);}
	.st18{mask:url(#path-145-inside-1_216_735_00000153669893394098524870000008138496846804199564_);fill:#FFFFFF;}
	.st19{fill-rule:evenodd;clip-rule:evenodd;fill:#004F9D;}
	
		.st20{fill-rule:evenodd;clip-rule:evenodd;fill:#FFFFFF;filter:url(#Adobe_OpacityMaskFilter_00000178913829916887783750000014356914543067070142_);}
	.st21{mask:url(#path-147-inside-2_216_735_00000064344286790652035550000015483455350801190837_);fill:#FFFFFF;}
	.st22{clip-path:url(#SVGID_00000098179504474383236850000010074889214992891822_);}
	.st23{clip-path:url(#SVGID_00000128478832479818145530000016208977910266057889_);}
	.st24{opacity:0.2;}
	.st25{fill:#FFFFFF;}
	.st26{opacity:0.8;}
	.st27{opacity:0.5;}
	.st28{opacity:0.4;}
	.st29{clip-path:url(#SVGID_00000122708069080854420170000004087915284554984602_);}
	.st30{fill:#FFFFFF;filter:url(#Adobe_OpacityMaskFilter_00000125593294295545315620000011873383721987514809_);}
	
		.st31{mask:url(#path-260-outside-3_216_735_00000173843848709607013020000007061593297767194529_);fill:none;stroke:#FFFFFF;stroke-width:4;}
	.st32{fill:#FFFFFF;filter:url(#Adobe_OpacityMaskFilter_00000000910598924105381730000001704077044368110013_);}
	
		.st33{mask:url(#path-261-outside-4_216_735_00000104666403434568903500000012684284179319957663_);fill:none;stroke:#FFFFFF;stroke-width:4;}
	.st34{fill:#FFFFFF;filter:url(#Adobe_OpacityMaskFilter_00000013166447133508239610000016238401326377688999_);}
	
		.st35{mask:url(#path-262-outside-5_216_735_00000142152519118099774630000016730367225677327517_);fill:none;stroke:#FFFFFF;stroke-width:4;}
	.st36{clip-path:url(#SVGID_00000010301035499979591100000012907746009173080987_);}
	.st37{clip-path:url(#SVGID_00000174589787745063023930000018275103102858133385_);}
	.st38{fill:#004F9D;}
	.st39{fill:#9FCBED;}
	.st40{clip-path:url(#SVGID_00000008133084480026979830000001084292235847851399_);}
	.st41{fill-rule:evenodd;clip-rule:evenodd;fill:url(#SVGID_00000119102125556768186220000008874586754856650175_);}
	.st42{fill-opacity:0.16;}
	.st43{clip-path:url(#SVGID_00000105399874805697474570000002245538940607183490_);}
	.st44{clip-path:url(#SVGID_00000088824503843893105750000007387254660017481623_);}
	.st45{fill:#80C7BC;}
	.st46{clip-path:url(#SVGID_00000025416979691812807600000006743416574510166672_);}
	.st47{clip-path:url(#SVGID_00000016062968008594430950000011343460801824424090_);}
	.st48{clip-path:url(#SVGID_00000171680194474104567980000005351809395249765554_);}
	.st49{clip-path:url(#SVGID_00000110437659984624220030000000503938194125530277_);}
	.st50{clip-path:url(#SVGID_00000127025039975245532900000000781255181649498552_);}
	.st51{clip-path:url(#SVGID_00000017490015160262221060000008329031073065771945_);}
	.st52{clip-path:url(#SVGID_00000059300069640080040070000002012608157245911227_);}
	.st53{clip-path:url(#SVGID_00000037667009219815448110000001015872228067938951_);}
	.st54{fill:#004F51;}
	.st55{fill:none;stroke:#C9C9C9;}
	.st56{clip-path:url(#SVGID_00000085242871902144298360000016081850311315994552_);}
	.st57{clip-path:url(#SVGID_00000108999745415829653060000000998507608771252901_);}
	.st58{fill-rule:evenodd;clip-rule:evenodd;fill:#009DDC;}
	.st59{fill-rule:evenodd;clip-rule:evenodd;fill:#D5D0CA;}
	.st60{fill:#004782;}
	.st61{fill:#0092BF;}
	.st62{fill:#8FB6D1;}
</style>
<rect x="1344" y="5265" class="st0" width="885" height="410"/>
<g>
	<defs>
		<rect id="SVGID_1_" x="77.2" y="-29.9" width="421" height="421"/>
	</defs>
	<clipPath id="SVGID_00000046311403954381009970000016327487364190008713_">
		<use xlink:href="#SVGID_1_"  style="overflow:visible;"/>
	</clipPath>
	<g style="clip-path:url(#SVGID_00000046311403954381009970000016327487364190008713_);">
		<path class="st2" d="M144.5,309.6c-8.5,0-15.3-6.9-15.3-15.3c0-40.6,16.2-79,45.6-108.1c8.2-8.1,17.3-15.4,27.1-21.6
			c7.2-4.5,16.6-2.4,21.2,4.7c4.5,7.2,2.4,16.6-4.7,21.2c-7.9,5-15.3,10.9-21.9,17.4c-23.5,23.3-36.5,54-36.5,86.3
			C159.9,302.7,153,309.6,144.5,309.6L144.5,309.6z"/>
		<path class="st3" d="M430.8,309.5c-8.5,0-15.3-6.9-15.3-15.3c0-5-0.3-9.9-0.9-14.8c-3.1-24.8-13.8-47.8-31-66.7
			c-10.5-11.6-23-21.1-37.1-28.3c-7.5-3.9-10.5-13.1-6.7-20.6c3.9-7.5,13.1-10.5,20.6-6.7c17.4,8.9,32.9,20.6,45.9,34.9
			c21.5,23.6,34.9,52.5,38.8,83.6c0.8,6.1,1.2,12.4,1.2,18.6C446.2,302.6,439.3,309.5,430.8,309.5L430.8,309.5z"/>
		<path class="st4" d="M215.8,192.1l-16.4-25.9c9.5-6,19.6-11,30.1-15c18.7-7,38.4-10.6,58.6-10.6c26.3,0,52.4,6.2,75.5,18l-14,27.3
			c-18.8-9.6-40.1-14.7-61.6-14.7c-16.5,0-32.6,2.9-47.8,8.6C231.7,183.1,223.4,187.2,215.8,192.1L215.8,192.1z"/>
		<path class="st5" d="M283.8,309.3c6.5,0,11.7-5.2,11.7-11.7c0-6.5-5.2-11.7-11.7-11.7c-6.5,0-11.7,5.2-11.7,11.7
			C272.1,304,277.3,309.3,283.8,309.3z"/>
		<path class="st5" d="M287.1,294.3h-5.3l0.9-99.1c0-0.6,0.6-1.1,1.4-1.1c0.7,0,1.3,0.5,1.4,1.1L287.1,294.3L287.1,294.3z"/>
		<path class="st5" d="M261.7,121.8h-9.1c-0.7,0-0.8-0.1-0.8-0.7V93.6c0-0.4,0.1-0.5,0.6-0.7c3.2-1.4,6.6-2.7,9.4-3.7
			c0.8-0.3,0.8-0.4,0.8,0.7v31.2C262.5,121.8,262.5,121.8,261.7,121.8z"/>
		<path class="st5" d="M294.6,121.8H268c-0.2,0-0.1-0.7,0-0.9c2.6-2.6,6.6-6.6,9.4-9.7c4.2-4.7,6.8-7.8,6.8-10.6
			c0-2.1-1.6-3.3-3.6-3.3c-2.8,0-4.5,1.7-4.7,5.1c0,0.6-0.2,0.5-0.5,0.3c-1.4-0.7-5.3-3.3-6.7-4.2c-0.3-0.2-0.3-0.4-0.2-0.8
			c1.9-5.6,6.5-8.7,13.9-8.7c8,0,12.9,3.7,12.9,9.4c0,6-5.5,9.8-12.7,15.1c2.5-0.1,9-0.6,12.4-0.6c0.4,0,0.6,0.1,0.6,0.5
			c0.1,2.8,0.1,5.4,0,7.7C295.4,121.7,295.4,121.8,294.6,121.8L294.6,121.8z"/>
		<path class="st5" d="M310.3,122.8c-7.1,0-12.7-4-12.8-8.8c0-0.5,0-0.7,0.4-0.8c2.8-0.9,6.2-2,9-2.8c0.4-0.1,0.5,0,0.4,0.6
			c-0.6,2.9,1.2,4.7,4,4.7c2.8,0,4-1.6,4-3.8c0-3.2-2.6-5.5-7.1-5.9c-0.1,0-0.1-0.2-0.1-0.5s0-0.5,0.1-0.5c2.5-0.8,6.4-2.6,6.4-5.6
			c0-2.1-1.7-3.4-3.6-3.4c-2.3,0-3.9,1.2-4.3,3.5c-0.1,1-0.1,1.4-0.5,1.4c-1.9-0.6-5.8-2-8-2.6c-0.4-0.1-0.5-0.4-0.4-0.7
			c1.3-5.7,6.9-8.4,14.4-8.4c7.4,0,12.4,2.9,12.4,8.4c0,2.9-2.1,6-4.9,7.1c4.6,1.4,6.5,4.6,6.5,8.1
			C326.3,119.2,320.9,122.9,310.3,122.8L310.3,122.8z"/>
	</g>
</g>
<g>
	<defs>
		<polygon id="SVGID_00000175287223921091580180000001899377450575883420_" points="87.2,1041.1 478.2,1041.1 498.2,1462.1 
			77.2,1462.1 		"/>
	</defs>
	<clipPath id="SVGID_00000039116425422228671110000010637585582338452354_">
		<use xlink:href="#SVGID_00000175287223921091580180000001899377450575883420_"  style="overflow:visible;"/>
	</clipPath>
	<g style="clip-path:url(#SVGID_00000039116425422228671110000010637585582338452354_);">
		<g>
			<defs>
				<rect id="SVGID_00000116915966034924341680000016014129599372087197_" x="139.5" y="1142.5" width="296.3" height="249.5"/>
			</defs>
			<clipPath id="SVGID_00000099659694763512029930000017363559751257710264_">
				<use xlink:href="#SVGID_00000116915966034924341680000016014129599372087197_"  style="overflow:visible;"/>
			</clipPath>
			<g style="clip-path:url(#SVGID_00000099659694763512029930000017363559751257710264_);">
				<path class="st8" d="M434.6,1392H139.5v-248.3c0-0.7,0.5-1.2,1.2-1.2s1.2,0.5,1.2,1.2v245.9h292.7c0.7,0,1.2,0.5,1.2,1.2
					C435.8,1391.4,435.3,1392,434.6,1392z"/>
				<path class="st9" d="M360.4,1167.9v223.4h37.5v-223.4H360.4z"/>
				<path class="st9" d="M294.6,1231.4v159.9h37.5v-159.9H294.6z"/>
				<path class="st9" d="M228.7,1279.6v111.7h37.5v-111.7H228.7z"/>
				<path class="st9" d="M162.9,1300.1v91.2h37.5v-91.2H162.9z"/>
			</g>
		</g>
	</g>
</g>
<g>
	<defs>
		<rect id="SVGID_00000080183136506400822630000016858846493959636644_" x="97.5" y="1894.6" width="421" height="422"/>
	</defs>
	<clipPath id="SVGID_00000031896245404981098920000008610308528450522265_">
		<use xlink:href="#SVGID_00000080183136506400822630000016858846493959636644_"  style="overflow:visible;"/>
	</clipPath>
	<g style="clip-path:url(#SVGID_00000031896245404981098920000008610308528450522265_);">
		<g>
			<defs>
				<rect id="SVGID_00000033348240735702228550000016141872537686296715_" x="136.5" y="2037.3" width="345" height="162.2"/>
			</defs>
			<clipPath id="SVGID_00000103966577638366448830000004275111567846611367_">
				<use xlink:href="#SVGID_00000033348240735702228550000016141872537686296715_"  style="overflow:visible;"/>
			</clipPath>
			<g style="clip-path:url(#SVGID_00000103966577638366448830000004275111567846611367_);">
				<path class="st8" d="M474.5,2046.3H147c-0.5,0-1-0.4-1-0.9c0-0.5,0.4-0.9,1-0.9h327.5c0.5,0,1,0.4,1,0.9
					C475.5,2045.9,475.1,2046.3,474.5,2046.3z"/>
				<path class="st8" d="M474.5,2084.4H147c-0.5,0-1-0.4-1-0.9s0.4-0.9,1-0.9h327.5c0.5,0,1,0.4,1,0.9S475.1,2084.4,474.5,2084.4z"
					/>
				<path class="st8" d="M474.5,2123H147c-0.5,0-1-0.4-1-0.9s0.4-0.9,1-0.9h327.5c0.5,0,1,0.4,1,0.9S475.1,2123,474.5,2123z"/>
				<path class="st8" d="M474.5,2161.4H147c-0.5,0-1-0.4-1-0.9c0-0.5,0.4-0.9,1-0.9h327.5c0.5,0,1,0.4,1,0.9
					C475.5,2161,475.1,2161.4,474.5,2161.4z"/>
				<path class="st8" d="M474.5,2199.4H147c-0.5,0-1-0.4-1-0.9s0.4-0.9,1-0.9h327.5c0.5,0,1,0.4,1,0.9S475.1,2199.4,474.5,2199.4z"
					/>
				<path class="st2" d="M140.4,2184.2c-1.1,0-2.1-0.4-2.9-1.2c-1.5-1.5-1.4-3.8,0.2-5.2l43.1-37.4c1.1-0.9,2.6-1.2,4-0.7l22,7.8
					l49.9-44.5c1.1-1,2.7-1.3,4.1-0.8l27.1,9.9l70.1-46.5c0.8-0.6,1.9-0.8,2.9-0.6l58.1,9.4l56.2-36.5c1.8-1.1,4.2-0.7,5.4,0.9
					c1.2,1.7,0.8,3.9-1,5.1l-57.5,37.4c-0.8,0.6-1.9,0.8-2.9,0.6l-58.1-9.4l-70.5,46.8c-1.1,0.7-2.4,0.9-3.7,0.4l-26.7-9.8
					l-49.9,44.5c-1.1,1-2.7,1.3-4.1,0.8l-22.1-7.8l-41.3,35.9C142.3,2183.9,141.3,2184.2,140.4,2184.2L140.4,2184.2z"/>
				<g class="st12">
					<path class="st2" d="M143.3,2176.9l39-34.5l24.4,9.1l52.6-45.9l29.2,9.8l70.9-45.9l59.1,8.4l59-38.7l-2.1,160.9h-334
						L143.3,2176.9z"/>
				</g>
			</g>
		</g>
	</g>
</g>
<g>
	<defs>
		<rect id="SVGID_00000017510262752175200790000002537621022440825496_" x="28.1" y="260.2" width="422" height="422"/>
	</defs>
	<clipPath id="SVGID_00000101093367981786302060000010166196917154424240_">
		<use xlink:href="#SVGID_00000017510262752175200790000002537621022440825496_"  style="overflow:visible;"/>
	</clipPath>
	<g style="clip-path:url(#SVGID_00000101093367981786302060000010166196917154424240_);">
		<defs>
			<filter id="Adobe_OpacityMaskFilter" filterUnits="userSpaceOnUse" x="110.4" y="366.2" width="257.5" height="245.5">
				<feColorMatrix  type="matrix" values="1 0 0 0 0  0 1 0 0 0  0 0 1 0 0  0 0 0 1 0"/>
			</filter>
		</defs>
		
			<mask maskUnits="userSpaceOnUse" x="110.4" y="366.2" width="257.5" height="245.5" id="mask0_216_735_00000056395700353759305470000003101132257979289250_">
			<path class="st14" d="M117.8,600.3V377.6l250,52.8v116.7L117.8,600.3z"/>
		</mask>
		<g class="st15">
			<path class="st4" d="M262.4,600.3V377.6h105.5v222.7H262.4z"/>
			<path class="st16" d="M174.5,377.6v222.7h74.1h17.3V377.6h-17.3H174.5z"/>
			<defs>
				
					<filter id="Adobe_OpacityMaskFilter_00000142136137559903482670000009359488325031005343_" filterUnits="userSpaceOnUse" x="172.9" y="376" width="94.6" height="225.9">
					<feColorMatrix  type="matrix" values="1 0 0 0 0  0 1 0 0 0  0 0 1 0 0  0 0 0 1 0"/>
				</filter>
			</defs>
			
				<mask maskUnits="userSpaceOnUse" x="172.9" y="376" width="94.6" height="225.9" id="path-145-inside-1_216_735_00000153669893394098524870000008138496846804199564_">
				
					<path style="fill-rule:evenodd;clip-rule:evenodd;fill:#FFFFFF;filter:url(#Adobe_OpacityMaskFilter_00000142136137559903482670000009359488325031005343_);" d="
					M174.5,377.6v222.7h74.1h17.3V377.6h-17.3H174.5z"/>
			</mask>
			<path class="st18" d="M174.5,600.3h-1.6v1.6h1.6V600.3z M174.5,377.6V376h-1.6v1.6H174.5z M265.8,600.3v1.6h1.6v-1.6H265.8z
				 M265.8,377.6h1.6V376h-1.6V377.6z M176.1,600.3V377.6h-3.2v222.7H176.1z M248.6,598.7h-74.1v3.2h74.1V598.7z M265.8,598.7h-17.3
				v3.2h17.3V598.7z M264.2,377.6v222.7h3.2V377.6H264.2z M248.6,379.2h17.3V376h-17.3V379.2z M174.5,379.2h74.1V376h-74.1V379.2z"
				/>
			<path class="st19" d="M112,367.8v242.3h47.4h18.3V367.8h-18.3H112z"/>
			<defs>
				
					<filter id="Adobe_OpacityMaskFilter_00000098921905522081737480000002392149115303258253_" filterUnits="userSpaceOnUse" x="110.4" y="366.2" width="68.9" height="245.5">
					<feColorMatrix  type="matrix" values="1 0 0 0 0  0 1 0 0 0  0 0 1 0 0  0 0 0 1 0"/>
				</filter>
			</defs>
			
				<mask maskUnits="userSpaceOnUse" x="110.4" y="366.2" width="68.9" height="245.5" id="path-147-inside-2_216_735_00000064344286790652035550000015483455350801190837_">
				
					<path style="fill-rule:evenodd;clip-rule:evenodd;fill:#FFFFFF;filter:url(#Adobe_OpacityMaskFilter_00000098921905522081737480000002392149115303258253_);" d="
					M112,367.8v242.3h47.4h18.3V367.8h-18.3H112z"/>
			</mask>
			<path class="st21" d="M112,610.1h-1.6v1.6h1.6V610.1z M112,367.8v-1.6h-1.6v1.6H112z M177.6,610.1v1.6h1.6v-1.6H177.6z
				 M177.6,367.8h1.6v-1.6h-1.6V367.8z M113.6,610.1V367.8h-3.2v242.3H113.6z M159.3,608.5H112v3.2h47.4V608.5z M177.6,608.5h-18.3
				v3.2h18.3V608.5z M176,367.8v242.3h3.2V367.8H176z M159.3,369.4h18.3v-3.2h-18.3V369.4z M112,369.4h47.4v-3.2H112V369.4z"/>
		</g>
	</g>
</g>
<g>
	<defs>
		<rect id="SVGID_00000026156331493559652670000015412527598626850211_" x="655.4" y="1881.6" width="421" height="421"/>
	</defs>
	<clipPath id="SVGID_00000177452973195815828110000011725898204612930703_">
		<use xlink:href="#SVGID_00000026156331493559652670000015412527598626850211_"  style="overflow:visible;"/>
	</clipPath>
	<g style="clip-path:url(#SVGID_00000177452973195815828110000011725898204612930703_);">
		<g>
			<defs>
				<rect id="SVGID_00000062897575579999981480000017054394999682954124_" x="698.3" y="1981" width="335.2" height="251.4"/>
			</defs>
			<clipPath id="SVGID_00000057122824907808522980000005406564584777287319_">
				<use xlink:href="#SVGID_00000062897575579999981480000017054394999682954124_"  style="overflow:visible;"/>
			</clipPath>
			<g style="clip-path:url(#SVGID_00000057122824907808522980000005406564584777287319_);">
				<g class="st24">
					<path class="st4" d="M741.1,1982.2h-41.6v41.5h41.6V1982.2z"/>
					<path class="st25" d="M742.3,2024.9h-44V1981h44V2024.9z M700.7,2022.5h39.2v-39.1h-39.2V2022.5z"/>
				</g>
				<path class="st4" d="M741.1,2026.1h-41.6v41.5h41.6V2026.1z"/>
				<path class="st25" d="M742.3,2068.8h-44v-43.9h44V2068.8L742.3,2068.8z M700.7,2066.4h39.2v-39.1h-39.2V2066.4L700.7,2066.4z"/>
				<g class="st26">
					<path class="st4" d="M741.1,2070h-41.6v41.5h41.6V2070z"/>
					<path class="st25" d="M742.3,2112.7h-44v-43.9h44V2112.7z M700.7,2110.3h39.2v-39.1h-39.2V2110.3z"/>
					<path class="st25" d="M742.3,2112.7h-44v-43.9h44V2112.7z M700.7,2110.3h39.2v-39.1h-39.2V2110.3z"/>
				</g>
				<path class="st4" d="M741.1,2114h-41.6v41.5h41.6V2114z"/>
				<path class="st25" d="M742.3,2156.7h-44v-43.9h44V2156.7z M700.7,2154.2h39.2v-39.1h-39.2V2154.2z"/>
				<path class="st4" d="M741.1,2157.9h-41.6v41.5h41.6V2157.9z"/>
				<path class="st25" d="M742.3,2200.6h-44v-43.9h44V2200.6z M700.7,2198.2h39.2v-39.1h-39.2V2198.2z"/>
				<g class="st24">
					<path class="st4" d="M741.1,2201.8h-41.6v41.5h41.6V2201.8z"/>
					<path class="st25" d="M742.3,2244.5h-44v-43.9h44V2244.5z M700.7,2242.1h39.2V2203h-39.2V2242.1z"/>
				</g>
				<path class="st4" d="M782.7,1982.2h-41.6v41.5h41.6V1982.2z"/>
				<path class="st25" d="M783.9,2024.9h-44V1981h44L783.9,2024.9L783.9,2024.9z M742.3,2022.5h39.2v-39.1h-39.2L742.3,2022.5
					L742.3,2022.5z"/>
				<g class="st26">
					<path class="st4" d="M782.7,2026.1h-41.6v41.5h41.6V2026.1z"/>
					<path class="st25" d="M783.9,2068.8h-44v-43.9h44L783.9,2068.8L783.9,2068.8z M742.3,2066.4h39.2v-39.1h-39.2L742.3,2066.4
						L742.3,2066.4z"/>
					<path class="st25" d="M783.9,2068.8h-44v-43.9h44L783.9,2068.8L783.9,2068.8z M742.3,2066.4h39.2v-39.1h-39.2L742.3,2066.4
						L742.3,2066.4z"/>
				</g>
				<path class="st4" d="M782.7,2070h-41.6v41.5h41.6V2070z"/>
				<path class="st25" d="M783.9,2112.7h-44v-43.9h44L783.9,2112.7L783.9,2112.7z M742.3,2110.3h39.2v-39.1h-39.2L742.3,2110.3
					L742.3,2110.3z"/>
				<g class="st27">
					<path class="st4" d="M782.7,2114h-41.6v41.5h41.6V2114z"/>
					<path class="st25" d="M783.9,2156.7h-44v-43.9h44L783.9,2156.7L783.9,2156.7z M742.3,2154.2h39.2v-39.1h-39.2L742.3,2154.2
						L742.3,2154.2z"/>
				</g>
				<g class="st26">
					<path class="st4" d="M782.7,2157.9h-41.6v41.5h41.6V2157.9z"/>
					<path class="st25" d="M783.9,2200.6h-44v-43.9h44L783.9,2200.6L783.9,2200.6z M742.3,2198.1h39.2v-39.1h-39.2L742.3,2198.1
						L742.3,2198.1z"/>
					<path class="st25" d="M783.9,2200.6h-44v-43.9h44L783.9,2200.6L783.9,2200.6z M742.3,2198.2h39.2v-39.1h-39.2L742.3,2198.2
						L742.3,2198.2z"/>
				</g>
				<path class="st4" d="M782.7,2201.8h-41.6v41.5h41.6V2201.8z"/>
				<path class="st25" d="M783.9,2244.5h-44v-43.9h44L783.9,2244.5L783.9,2244.5z M742.3,2242.1h39.2V2203h-39.2L742.3,2242.1
					L742.3,2242.1z"/>
				<g class="st27">
					<path class="st4" d="M824.3,1982.2h-41.6v41.5h41.6V1982.2z"/>
					<path class="st25" d="M825.5,2024.9h-44V1981h44V2024.9z M783.9,2022.5h39.2v-39.1h-39.2V2022.5z"/>
					<path class="st25" d="M825.5,2024.9h-44V1981h44V2024.9z M783.9,2022.5h39.2v-39.1h-39.2V2022.5z"/>
				</g>
				<g class="st24">
					<path class="st4" d="M824.3,2026.1h-41.6v41.5h41.6V2026.1z"/>
					<path class="st25" d="M825.5,2068.8h-44v-43.9h44V2068.8L825.5,2068.8z M783.9,2066.4h39.2v-39.1h-39.2V2066.4L783.9,2066.4z"
						/>
				</g>
				<g class="st26">
					<path class="st4" d="M824.3,2070h-41.6v41.5h41.6V2070z"/>
					<path class="st25" d="M825.5,2112.7h-44v-43.9h44V2112.7z M783.9,2110.3h39.2v-39.1h-39.2V2110.3z"/>
					<path class="st25" d="M825.5,2112.7h-44v-43.9h44V2112.7z M783.9,2110.3h39.2v-39.1h-39.2V2110.3z"/>
				</g>
				<g class="st24">
					<path class="st4" d="M824.3,2114h-41.6v41.5h41.6V2114z"/>
					<path class="st25" d="M825.5,2156.7h-44v-43.9h44V2156.7z M783.9,2154.2h39.2v-39.1h-39.2V2154.2z"/>
				</g>
				<path class="st4" d="M824.3,2157.9h-41.6v41.5h41.6V2157.9z"/>
				<path class="st25" d="M825.5,2200.6h-44v-43.9h44V2200.6z M783.9,2198.2h39.2v-39.1h-39.2V2198.2z"/>
				<g class="st26">
					<path class="st4" d="M824.3,2201.8h-41.6v41.5h41.6V2201.8z"/>
					<path class="st25" d="M825.5,2244.5h-44v-43.9h44V2244.5z M783.9,2242.1h39.2V2203h-39.2V2242.1z"/>
					<path class="st25" d="M825.5,2244.5h-44v-43.9h44V2244.5z M783.9,2242.1h39.2V2203h-39.2V2242.1z"/>
				</g>
				<path class="st4" d="M865.9,1982.2h-41.6v41.5h41.6V1982.2z"/>
				<path class="st25" d="M867.1,2024.9h-44V1981h44V2024.9z M825.5,2022.5h39.2v-39.1h-39.2V2022.5z"/>
				<path class="st4" d="M865.9,2026.1h-41.6v41.5h41.6V2026.1z"/>
				<path class="st25" d="M867.1,2068.8h-44v-43.9h44V2068.8L867.1,2068.8z M825.5,2066.4h39.2v-39.1h-39.2V2066.4L825.5,2066.4z"/>
				<path class="st4" d="M865.9,2070h-41.6v41.5h41.6V2070z"/>
				<path class="st25" d="M867.1,2112.7h-44v-43.9h44V2112.7z M825.5,2110.3h39.2v-39.1h-39.2V2110.3z"/>
				<g class="st26">
					<path class="st4" d="M865.9,2114h-41.6v41.5h41.6V2114z"/>
					<path class="st25" d="M867.1,2156.7h-44v-43.9h44V2156.7z M825.5,2154.2h39.2v-39.1h-39.2V2154.2z"/>
					<path class="st25" d="M867.1,2156.7h-44v-43.9h44V2156.7z M825.5,2154.2h39.2v-39.1h-39.2V2154.2z"/>
				</g>
				<path class="st4" d="M865.9,2157.9h-41.6v41.5h41.6V2157.9z"/>
				<path class="st25" d="M867.1,2200.6h-44v-43.9h44V2200.6z M825.5,2198.2h39.2v-39.1h-39.2V2198.2z"/>
				<g class="st28">
					<path class="st4" d="M865.9,2201.8h-41.6v41.5h41.6V2201.8z"/>
					<path class="st25" d="M867.1,2244.5h-44v-43.9h44V2244.5z M825.5,2242.1h39.2V2203h-39.2V2242.1z"/>
				</g>
				<g class="st27">
					<path class="st4" d="M907.5,1982.2h-41.6v41.5h41.6V1982.2z"/>
					<path class="st25" d="M908.7,2024.9h-44V1981h44V2024.9z M867.1,2022.5h39.2v-39.1h-39.2V2022.5z"/>
				</g>
				<g class="st24">
					<path class="st4" d="M907.5,2026.1h-41.6v41.5h41.6V2026.1z"/>
					<path class="st25" d="M908.7,2068.8h-44v-43.9h44V2068.8L908.7,2068.8z M867.1,2066.4h39.2v-39.1h-39.2V2066.4L867.1,2066.4z"
						/>
				</g>
				<g class="st24">
					<path class="st4" d="M907.5,2070h-41.6v41.5h41.6V2070z"/>
					<path class="st25" d="M908.7,2112.7h-44v-43.9h44V2112.7z M867.1,2110.3h39.2v-39.1h-39.2V2110.3z"/>
				</g>
				<g class="st24">
					<path class="st4" d="M907.5,2114h-41.6v41.5h41.6V2114z"/>
					<path class="st25" d="M908.7,2156.7h-44v-43.9h44V2156.7z M867.1,2154.2h39.2v-39.1h-39.2V2154.2z"/>
				</g>
				<g class="st27">
					<path class="st4" d="M907.5,2157.9h-41.6v41.5h41.6V2157.9z"/>
					<path class="st25" d="M908.7,2200.6h-44v-43.9h44V2200.6z M867.1,2198.2h39.2v-39.1h-39.2V2198.2z"/>
				</g>
				<g class="st27">
					<path class="st4" d="M907.5,2201.8h-41.6v41.5h41.6V2201.8z"/>
					<path class="st25" d="M908.7,2244.5h-44v-43.9h44V2244.5z M867.1,2242.1h39.2V2203h-39.2V2242.1z"/>
				</g>
				<path class="st4" d="M949.1,1982.2h-41.6v41.5h41.6V1982.2z"/>
				<path class="st25" d="M950.3,2024.9h-44V1981h44V2024.9z M908.7,2022.5h39.2v-39.1h-39.2V2022.5z"/>
				<path class="st4" d="M949.1,2026.1h-41.6v41.5h41.6V2026.1z"/>
				<path class="st25" d="M950.3,2068.8h-44v-43.9h44V2068.8L950.3,2068.8z M908.7,2066.4h39.2v-39.1h-39.2V2066.4L908.7,2066.4z"/>
				<g class="st28">
					<path class="st4" d="M949.1,2070h-41.6v41.5h41.6V2070z"/>
					<path class="st25" d="M950.3,2112.7h-44v-43.9h44V2112.7z M908.7,2110.3h39.2v-39.1h-39.2V2110.3z"/>
				</g>
				<path class="st4" d="M949.1,2114h-41.6v41.5h41.6V2114z"/>
				<path class="st25" d="M950.3,2156.7h-44v-43.9h44V2156.7z M908.7,2154.2h39.2v-39.1h-39.2V2154.2z"/>
				<g class="st28">
					<path class="st4" d="M949.1,2157.9h-41.6v41.5h41.6V2157.9z"/>
					<path class="st25" d="M950.3,2200.6h-44v-43.9h44V2200.6z M908.7,2198.2h39.2v-39.1h-39.2V2198.2z"/>
				</g>
				<g class="st26">
					<path class="st4" d="M949.1,2201.8h-41.6v41.5h41.6V2201.8z"/>
					<path class="st25" d="M950.3,2244.5h-44v-43.9h44V2244.5z M908.7,2242.1h39.2V2203h-39.2V2242.1z"/>
					<path class="st25" d="M950.3,2244.5h-44v-43.9h44V2244.5z M908.7,2242.1h39.2V2203h-39.2V2242.1z"/>
				</g>
				<g class="st24">
					<path class="st4" d="M990.7,1982.2h-41.6v41.5h41.6V1982.2z"/>
					<path class="st25" d="M991.9,2024.9h-44V1981h44V2024.9z M950.3,2022.5h39.2v-39.1h-39.2V2022.5z"/>
				</g>
				<path class="st4" d="M990.7,2026.1h-41.6v41.5h41.6V2026.1z"/>
				<path class="st25" d="M991.9,2068.8h-44v-43.9h44V2068.8L991.9,2068.8z M950.3,2066.4h39.2v-39.1h-39.2V2066.4L950.3,2066.4z"/>
				<g class="st27">
					<path class="st4" d="M990.7,2070h-41.6v41.5h41.6V2070z"/>
					<path class="st25" d="M991.9,2112.7h-44v-43.9h44V2112.7z M950.3,2110.3h39.2v-39.1h-39.2V2110.3z"/>
				</g>
				<g class="st27">
					<path class="st4" d="M990.7,2114h-41.6v41.5h41.6V2114z"/>
					<path class="st25" d="M991.9,2156.7h-44v-43.9h44V2156.7z M950.3,2154.2h39.2v-39.1h-39.2V2154.2z"/>
				</g>
				<g class="st26">
					<path class="st4" d="M990.7,2157.9h-41.6v41.5h41.6V2157.9z"/>
					<path class="st25" d="M991.9,2200.6h-44v-43.9h44V2200.6z M950.3,2198.1h39.2v-39.1h-39.2V2198.1z"/>
					<path class="st25" d="M991.9,2200.6h-44v-43.9h44V2200.6z M950.3,2198.2h39.2v-39.1h-39.2V2198.2z"/>
				</g>
				<path class="st4" d="M990.7,2201.8h-41.6v41.5h41.6V2201.8z"/>
				<path class="st25" d="M991.9,2244.5h-44v-43.9h44V2244.5z M950.3,2242.1h39.2V2203h-39.2V2242.1z"/>
				<path class="st4" d="M1032.3,1982.2h-41.6v41.5h41.6V1982.2z"/>
				<path class="st25" d="M1033.5,2024.9h-44V1981h44V2024.9z M991.9,2022.5h39.2v-39.1h-39.2V2022.5z"/>
				<g class="st26">
					<path class="st4" d="M1032.3,2026.1h-41.6v41.5h41.6V2026.1z"/>
					<path class="st25" d="M1033.5,2068.8h-44v-43.9h44V2068.8L1033.5,2068.8z M991.9,2066.4h39.2v-39.1h-39.2V2066.4L991.9,2066.4z
						"/>
					<path class="st25" d="M1033.5,2068.8h-44v-43.9h44V2068.8L1033.5,2068.8z M991.9,2066.4h39.2v-39.1h-39.2V2066.4L991.9,2066.4z
						"/>
				</g>
				<g class="st26">
					<path class="st4" d="M1032.3,2070h-41.6v41.5h41.6V2070z"/>
					<path class="st25" d="M1033.5,2112.7h-44v-43.9h44V2112.7z M991.9,2110.3h39.2v-39.1h-39.2V2110.3z"/>
					<path class="st25" d="M1033.5,2112.7h-44v-43.9h44V2112.7z M991.9,2110.3h39.2v-39.1h-39.2V2110.3z"/>
				</g>
				<path class="st4" d="M1032.3,2114h-41.6v41.5h41.6V2114z"/>
				<path class="st25" d="M1033.5,2156.7h-44v-43.9h44V2156.7z M991.9,2154.2h39.2v-39.1h-39.2V2154.2z"/>
				<g class="st27">
					<path class="st4" d="M1032.3,2157.9h-41.6v41.5h41.6V2157.9z"/>
					<path class="st25" d="M1033.5,2200.6h-44v-43.9h44V2200.6z M991.9,2198.2h39.2v-39.1h-39.2V2198.2z"/>
				</g>
				<g class="st24">
					<path class="st4" d="M1032.3,2201.8h-41.6v41.5h41.6V2201.8z"/>
					<path class="st25" d="M1033.5,2244.5h-44v-43.9h44V2244.5z M991.9,2242.1h39.2V2203h-39.2V2242.1z"/>
				</g>
			</g>
		</g>
	</g>
</g>
<g>
	<defs>
		<rect id="SVGID_00000108305334201511928780000010908276504988735898_" x="70.3" y="1466.9" width="421" height="422"/>
	</defs>
	<clipPath id="SVGID_00000016793719669088129990000018298930200547722116_">
		<use xlink:href="#SVGID_00000108305334201511928780000010908276504988735898_"  style="overflow:visible;"/>
	</clipPath>
	<g style="clip-path:url(#SVGID_00000016793719669088129990000018298930200547722116_);">
		<path class="st4" d="M280.8,1574.4c19,0,37.7,4.5,54.6,13.1c16.9,8.6,31.6,21.1,42.8,36.4c11.2,15.3,18.7,33.1,21.8,51.9
			c3.1,18.8,1.7,38-4,56.1l-46.1-14.6c3.4-10.9,4.2-22.4,2.4-33.7c-1.9-11.3-6.3-21.9-13.1-31.1c-6.7-9.2-15.5-16.7-25.7-21.9
			c-10.2-5.2-21.4-7.8-32.8-7.8V1574.4z"/>
		<defs>
			
				<filter id="Adobe_OpacityMaskFilter_00000034084842639817359650000002361150960930837898_" filterUnits="userSpaceOnUse" x="278.8" y="1572.4" width="124.8" height="162">
				<feColorMatrix  type="matrix" values="1 0 0 0 0  0 1 0 0 0  0 0 1 0 0  0 0 0 1 0"/>
			</filter>
		</defs>
		
			<mask maskUnits="userSpaceOnUse" x="278.8" y="1572.4" width="124.8" height="162" id="path-260-outside-3_216_735_00000173843848709607013020000007061593297767194529_">
			
				<rect x="278" y="1572.4" style="fill:#FFFFFF;filter:url(#Adobe_OpacityMaskFilter_00000034084842639817359650000002361150960930837898_);" width="126" height="163"/>
			<path d="M280.8,1574.4c19,0,37.7,4.5,54.6,13.1c16.9,8.6,31.6,21.1,42.8,36.4c11.2,15.3,18.7,33.1,21.8,51.9
				c3.1,18.8,1.7,38-4,56.1l-46.1-14.6c3.4-10.9,4.2-22.4,2.4-33.7c-1.9-11.3-6.3-21.9-13.1-31.1c-6.7-9.2-15.5-16.7-25.7-21.9
				c-10.2-5.2-21.4-7.8-32.8-7.8V1574.4z"/>
		</mask>
		<path class="st31" d="M280.8,1574.4c19,0,37.7,4.5,54.6,13.1c16.9,8.6,31.6,21.1,42.8,36.4c11.2,15.3,18.7,33.1,21.8,51.9
			c3.1,18.8,1.7,38-4,56.1l-46.1-14.6c3.4-10.9,4.2-22.4,2.4-33.7c-1.9-11.3-6.3-21.9-13.1-31.1c-6.7-9.2-15.5-16.7-25.7-21.9
			c-10.2-5.2-21.4-7.8-32.8-7.8V1574.4z"/>
		<path class="st2" d="M160,1695.5c0,29,10.4,57.1,29.3,79.1c18.9,22,45.1,36.4,73.8,40.7c28.7,4.3,57.9-1.9,82.4-17.5
			c24.5-15.5,42.6-39.4,51-67.2l-46.3-14.1c-5,16.7-15.9,31-30.6,40.3c-14.7,9.3-32.2,13-49.4,10.5c-17.2-2.6-32.9-11.2-44.3-24.4
			c-11.4-13.2-17.6-30-17.6-47.5H160z"/>
		<defs>
			
				<filter id="Adobe_OpacityMaskFilter_00000180335659957049030020000000197882048216672661_" filterUnits="userSpaceOnUse" x="158" y="1693.5" width="241" height="125.1">
				<feColorMatrix  type="matrix" values="1 0 0 0 0  0 1 0 0 0  0 0 1 0 0  0 0 0 1 0"/>
			</filter>
		</defs>
		
			<mask maskUnits="userSpaceOnUse" x="158" y="1693.5" width="241" height="125.1" id="path-261-outside-4_216_735_00000104666403434568903500000012684284179319957663_">
			
				<rect x="158" y="1693.4" style="fill:#FFFFFF;filter:url(#Adobe_OpacityMaskFilter_00000180335659957049030020000000197882048216672661_);" width="241" height="126"/>
			<path d="M160,1695.5c0,29,10.4,57.1,29.3,79.1c18.9,22,45.1,36.4,73.8,40.7c28.7,4.3,57.9-1.9,82.4-17.5
				c24.5-15.5,42.6-39.4,51-67.2l-46.3-14.1c-5,16.7-15.9,31-30.6,40.3c-14.7,9.3-32.2,13-49.4,10.5c-17.2-2.6-32.9-11.2-44.3-24.4
				c-11.4-13.2-17.6-30-17.6-47.5H160z"/>
		</mask>
		<path class="st33" d="M160,1695.5c0,29,10.4,57.1,29.3,79.1c18.9,22,45.1,36.4,73.8,40.7c28.7,4.3,57.9-1.9,82.4-17.5
			c24.5-15.5,42.6-39.4,51-67.2l-46.3-14.1c-5,16.7-15.9,31-30.6,40.3c-14.7,9.3-32.2,13-49.4,10.5c-17.2-2.6-32.9-11.2-44.3-24.4
			c-11.4-13.2-17.6-30-17.6-47.5H160z"/>
		<path class="st3" d="M280.8,1574.4c-15.9,0-31.6,3.1-46.2,9.2c-14.7,6.1-28,15-39.2,26.3c-11.2,11.2-20.1,24.6-26.2,39.3
			s-9.2,30.5-9.2,46.4h48.3c0-9.5,1.9-19,5.5-27.8c3.6-8.8,9-16.8,15.7-23.6c6.7-6.8,14.7-12.1,23.5-15.8c8.8-3.6,18.2-5.5,27.7-5.5
			V1574.4z"/>
		<defs>
			
				<filter id="Adobe_OpacityMaskFilter_00000136412766896746814070000012488231934761170096_" filterUnits="userSpaceOnUse" x="158" y="1572.4" width="124.8" height="125.1">
				<feColorMatrix  type="matrix" values="1 0 0 0 0  0 1 0 0 0  0 0 1 0 0  0 0 0 1 0"/>
			</filter>
		</defs>
		
			<mask maskUnits="userSpaceOnUse" x="158" y="1572.4" width="124.8" height="125.1" id="path-262-outside-5_216_735_00000142152519118099774630000016730367225677327517_">
			
				<rect x="158" y="1572.4" style="fill:#FFFFFF;filter:url(#Adobe_OpacityMaskFilter_00000136412766896746814070000012488231934761170096_);" width="125" height="126"/>
			<path d="M280.8,1574.4c-15.9,0-31.6,3.1-46.2,9.2c-14.7,6.1-28,15-39.2,26.3c-11.2,11.2-20.1,24.6-26.2,39.3s-9.2,30.5-9.2,46.4
				h48.3c0-9.5,1.9-19,5.5-27.8c3.6-8.8,9-16.8,15.7-23.6c6.7-6.8,14.7-12.1,23.5-15.8c8.8-3.6,18.2-5.5,27.7-5.5V1574.4z"/>
		</mask>
		<path class="st35" d="M280.8,1574.4c-15.9,0-31.6,3.1-46.2,9.2c-14.7,6.1-28,15-39.2,26.3c-11.2,11.2-20.1,24.6-26.2,39.3
			s-9.2,30.5-9.2,46.4h48.3c0-9.5,1.9-19,5.5-27.8c3.6-8.8,9-16.8,15.7-23.6c6.7-6.8,14.7-12.1,23.5-15.8c8.8-3.6,18.2-5.5,27.7-5.5
			V1574.4z"/>
	</g>
</g>
<g>
	<defs>
		<rect id="SVGID_00000177460520763882057760000017632410434002230970_" x="1193.4" y="1878.6" width="424" height="422"/>
	</defs>
	<clipPath id="SVGID_00000127733487968566317050000004720360057777263783_">
		<use xlink:href="#SVGID_00000177460520763882057760000017632410434002230970_"  style="overflow:visible;"/>
	</clipPath>
	<g style="clip-path:url(#SVGID_00000127733487968566317050000004720360057777263783_);">
		<g>
			<defs>
				<rect id="SVGID_00000042013850825600346220000016683982182010597292_" x="1238.5" y="2023.2" width="331.8" height="173.2"/>
			</defs>
			<clipPath id="SVGID_00000090982176545557843540000000739579758228148158_">
				<use xlink:href="#SVGID_00000042013850825600346220000016683982182010597292_"  style="overflow:visible;"/>
			</clipPath>
			<g style="clip-path:url(#SVGID_00000090982176545557843540000000739579758228148158_);">
				<path class="st8" d="M1569.3,2033.6h-329.8c-0.5,0-1-0.4-1-1c0-0.6,0.4-1,1-1h329.8c0.5,0,1,0.4,1,1
					C1570.3,2033.1,1569.9,2033.6,1569.3,2033.6z"/>
				<path class="st8" d="M1569.3,2074h-329.8c-0.5,0-1-0.4-1-1c0-0.5,0.4-1,1-1h329.8c0.5,0,1,0.4,1,1
					C1570.3,2073.6,1569.9,2074,1569.3,2074z"/>
				<path class="st8" d="M1569.3,2115h-329.8c-0.5,0-1-0.4-1-1s0.4-1,1-1h329.8c0.5,0,1,0.4,1,1S1569.9,2115,1569.3,2115z"/>
				<path class="st8" d="M1569.3,2155.9h-329.8c-0.5,0-1-0.4-1-1c0-0.6,0.4-1,1-1h329.8c0.5,0,1,0.4,1,1
					C1570.3,2155.5,1569.9,2155.9,1569.3,2155.9z"/>
				<path class="st8" d="M1569.3,2196.4h-329.8c-0.5,0-1-0.4-1-1c0-0.5,0.4-1,1-1h329.8c0.5,0,1,0.4,1,1
					C1570.3,2195.9,1569.9,2196.4,1569.3,2196.4z"/>
				<path class="st38" d="M1248.8,2175.6c3.5,0,6.4-2.8,6.4-6.4c0-3.5-2.8-6.4-6.4-6.4c-3.5,0-6.4,2.9-6.4,6.4
					C1242.4,2172.8,1245.3,2175.6,1248.8,2175.6z"/>
				<path class="st25" d="M1248.8,2176.6c-4.1,0-7.4-3.3-7.4-7.3c0-4,3.3-7.3,7.4-7.3c4.1,0,7.4,3.3,7.4,7.3
					C1256.2,2173.3,1252.9,2176.6,1248.8,2176.6z M1248.8,2163.9c-3,0-5.4,2.4-5.4,5.4c0,3,2.4,5.4,5.4,5.4c3,0,5.4-2.4,5.4-5.4
					C1254.2,2166.3,1251.8,2163.9,1248.8,2163.9z"/>
				<path class="st9" d="M1391.7,2173.9c8.4,0,15.3-6.8,15.3-15.2c0-8.4-6.8-15.2-15.3-15.2c-8.4,0-15.3,6.8-15.3,15.2
					C1376.4,2167.1,1383.3,2173.9,1391.7,2173.9z"/>
				<path class="st38" d="M1336.3,2168.8c8.3,0,15-6.7,15-15c0-8.3-6.7-15-15-15c-8.3,0-15,6.7-15,15
					C1321.2,2162.1,1328,2168.8,1336.3,2168.8z"/>
				<path class="st25" d="M1336.3,2169.8c-8.8,0-16-7.2-16-15.9c0-8.8,7.2-15.9,16-15.9c8.8,0,16,7.2,16,15.9
					C1352.3,2162.7,1345.1,2169.8,1336.3,2169.8z M1336.3,2139.9c-7.8,0-14,6.3-14,14c0,7.7,6.3,14,14,14c7.8,0,14.1-6.3,14.1-14
					C1350.3,2146.1,1344,2139.9,1336.3,2139.9z"/>
				<path class="st38" d="M1439.7,2148.3c5.2,0,9.5-4.2,9.5-9.4s-4.2-9.4-9.5-9.4c-5.2,0-9.5,4.2-9.5,9.4
					S1434.5,2148.3,1439.7,2148.3z"/>
				<path class="st25" d="M1439.7,2149.3c-5.8,0-10.4-4.7-10.4-10.4c0-5.7,4.7-10.4,10.4-10.4s10.4,4.7,10.4,10.4
					C1450.1,2144.6,1445.4,2149.3,1439.7,2149.3z M1439.7,2130.4c-4.7,0-8.5,3.8-8.5,8.4s3.8,8.4,8.5,8.4c4.7,0,8.5-3.8,8.5-8.4
					S1444.4,2130.4,1439.7,2130.4z"/>
				<path class="st9" d="M1534.2,2145.4c5.7,0,10.4-4.6,10.4-10.3c0-5.7-4.7-10.3-10.4-10.3c-5.7,0-10.4,4.6-10.4,10.3
					C1523.9,2140.8,1528.5,2145.4,1534.2,2145.4z"/>
				<path class="st39" d="M1366,2115.2c14.2,0,25.7-11.4,25.7-25.5s-11.5-25.5-25.7-25.5s-25.7,11.4-25.7,25.5
					S1351.9,2115.2,1366,2115.2z"/>
				<path class="st25" d="M1366,2116.2c-14.7,0-26.6-11.9-26.6-26.5s11.9-26.5,26.6-26.5c14.7,0,26.6,11.9,26.6,26.5
					S1380.7,2116.2,1366,2116.2z M1366,2065.1c-13.6,0-24.7,11-24.7,24.6s11.1,24.6,24.7,24.6c13.6,0,24.7-11,24.7-24.6
					S1379.6,2065.1,1366,2065.1z"/>
				<path class="st39" d="M1394.4,2128.1c3.3,0,5.9-2.6,5.9-5.9s-2.6-5.9-5.9-5.9c-3.3,0-5.9,2.6-5.9,5.9
					S1391.2,2128.1,1394.4,2128.1z"/>
				<path class="st25" d="M1394.4,2129c-3.8,0-6.9-3.1-6.9-6.9s3.1-6.9,6.9-6.9c3.8,0,6.9,3.1,6.9,6.9S1398.2,2129,1394.4,2129z
					 M1394.4,2117.3c-2.7,0-4.9,2.2-4.9,4.9c0,2.7,2.2,4.9,4.9,4.9c2.7,0,4.9-2.2,4.9-4.9
					C1399.3,2119.5,1397.1,2117.3,1394.4,2117.3z"/>
				<path class="st39" d="M1313.1,2131.5c7.6,0,13.8-6.1,13.8-13.7s-6.2-13.7-13.8-13.7s-13.8,6.1-13.8,13.7
					S1305.5,2131.5,1313.1,2131.5z"/>
				<path class="st25" d="M1313.1,2132.5c-8.1,0-14.7-6.6-14.7-14.7s6.6-14.7,14.7-14.7s14.7,6.6,14.7,14.7
					S1321.3,2132.5,1313.1,2132.5z M1313.1,2105.1c-7.1,0-12.8,5.7-12.8,12.7c0,7,5.7,12.7,12.8,12.7s12.8-5.7,12.8-12.7
					C1325.9,2110.8,1320.2,2105.1,1313.1,2105.1z"/>
				<path class="st9" d="M1418.6,2125.1c3.5,0,6.3-2.8,6.3-6.2c0-3.5-2.8-6.2-6.3-6.2s-6.3,2.8-6.3,6.2
					C1412.4,2122.3,1415.2,2125.1,1418.6,2125.1z"/>
				<path class="st9" d="M1269.6,2148.8c4.6,0,8.3-3.7,8.3-8.3c0-4.6-3.7-8.3-8.3-8.3c-4.6,0-8.3,3.7-8.3,8.3
					C1261.2,2145.1,1265,2148.8,1269.6,2148.8z"/>
				<path class="st9" d="M1480.5,2078c15.2,0,27.5-12.3,27.5-27.4c0-15.1-12.3-27.4-27.5-27.4s-27.5,12.3-27.5,27.4
					C1453,2065.7,1465.3,2078,1480.5,2078z"/>
				<path class="st39" d="M1465.8,2113.4c5.7,0,10.4-4.6,10.4-10.3s-4.6-10.3-10.4-10.3c-5.7,0-10.4,4.6-10.4,10.3
					S1460.1,2113.4,1465.8,2113.4z"/>
				<path class="st25" d="M1465.8,2114.4c-0.3,0-0.7,0-1.1-0.1c-6.2-0.6-10.8-6.1-10.2-12.3c0.6-6.2,6.2-10.8,12.4-10.2
					c6.2,0.6,10.8,6.1,10.2,12.3C1476.6,2110,1471.6,2114.4,1465.8,2114.4z M1465.8,2093.7c-4.8,0-8.9,3.7-9.3,8.5
					c-0.5,5.1,3.3,9.7,8.5,10.2c5.1,0.5,9.8-3.3,10.2-8.4c0.5-5.1-3.3-9.7-8.5-10.2C1466.4,2093.8,1466.1,2093.7,1465.8,2093.7z"/>
				<path class="st39" d="M1404.8,2069c7.4,0,13.4-6,13.4-13.4s-6-13.3-13.4-13.3c-7.4,0-13.4,6-13.4,13.3S1397.4,2069,1404.8,2069z
					"/>
				<path class="st25" d="M1404.8,2070c-0.5,0-0.9,0-1.4-0.1c-3.8-0.4-7.3-2.2-9.7-5.1c-2.4-2.9-3.6-6.7-3.3-10.5
					c0.8-7.9,7.8-13.7,15.7-12.9c7.9,0.7,13.7,7.7,13,15.6c-0.3,3.8-2.2,7.2-5.1,9.7C1411.4,2068.8,1408.2,2070,1404.8,2070z
					 M1404.8,2043.3c-6.3,0-11.8,4.8-12.4,11.2c-0.3,3.3,0.7,6.5,2.8,9s5.1,4.1,8.4,4.4c3.3,0.3,6.5-0.7,9.1-2.8
					c2.6-2.1,4.1-5.1,4.4-8.4c0.7-6.8-4.4-12.8-11.2-13.5C1405.6,2043.3,1405.2,2043.3,1404.8,2043.3z"/>
				<path class="st9" d="M1486,2172.4c8.6,0,15.6-7,15.6-15.6s-7-15.6-15.6-15.6s-15.7,7-15.7,15.6S1477.4,2172.4,1486,2172.4z"/>
				<path class="st38" d="M1510.8,2117.9c9.5,0,17.2-7.7,17.2-17.1c0-9.5-7.7-17.2-17.2-17.2c-9.5,0-17.2,7.7-17.2,17.2
					C1493.6,2110.2,1501.3,2117.9,1510.8,2117.9z"/>
				<path class="st25" d="M1510.8,2118.8c-0.6,0-1.1,0-1.7-0.1c-10-0.9-17.4-9.8-16.4-19.7c0.4-4.8,2.8-9.2,6.5-12.3
					c3.8-3.1,8.5-4.5,13.3-4.1c10,0.9,17.4,9.8,16.4,19.7C1528.1,2111.8,1520.1,2118.8,1510.8,2118.8z M1510.8,2084.5
					c-3.8,0-7.4,1.3-10.3,3.7c-3.3,2.8-5.4,6.6-5.8,10.9c-0.8,8.9,5.7,16.8,14.7,17.6c8.9,0.8,16.9-5.7,17.7-14.6
					c0.8-8.9-5.8-16.8-14.7-17.6C1511.8,2084.5,1511.3,2084.5,1510.8,2084.5L1510.8,2084.5z"/>
				<path class="st39" d="M1548.4,2080.7c3.6,0,6.6-2.9,6.6-6.6c0-3.6-3-6.6-6.6-6.6c-3.7,0-6.6,3-6.6,6.6
					C1541.8,2077.8,1544.8,2080.7,1548.4,2080.7z"/>
				<path class="st25" d="M1548.4,2081.7c-0.2,0-0.5,0-0.7,0c-4.2-0.4-7.2-4.1-6.9-8.2c0.4-4.2,4.1-7.2,8.3-6.8
					c4.2,0.4,7.2,4.1,6.9,8.2C1555.6,2078.7,1552.3,2081.7,1548.4,2081.7L1548.4,2081.7z M1548.4,2068.5c-1.3,0-2.6,0.5-3.6,1.3
					c-1.2,1-1.9,2.3-2,3.8c-0.1,1.5,0.3,3,1.3,4.1c1,1.1,2.3,1.9,3.8,2c1.5,0.1,3-0.3,4.1-1.3c1.2-0.9,1.9-2.3,2-3.8
					c0.1-1.5-0.3-2.9-1.3-4.1c-1-1.2-2.3-1.9-3.8-2C1548.8,2068.5,1548.6,2068.5,1548.4,2068.5z"/>
				<path class="st9" d="M1539.5,2038.3c2.9,0,5.2-2.3,5.2-5.2s-2.3-5.2-5.2-5.2c-2.9,0-5.2,2.3-5.2,5.2
					S1536.6,2038.3,1539.5,2038.3z"/>
			</g>
		</g>
	</g>
</g>
<g>
	<defs>
		<rect id="SVGID_00000048468157210622422660000006677100941409784461_" x="642.8" y="1458.9" width="948" height="422"/>
	</defs>
	<clipPath id="SVGID_00000055691408007273215780000015631481030232053174_">
		<use xlink:href="#SVGID_00000048468157210622422660000006677100941409784461_"  style="overflow:visible;"/>
	</clipPath>
	<g style="clip-path:url(#SVGID_00000055691408007273215780000015631481030232053174_);">
		
			<linearGradient id="SVGID_00000141435592320831028760000000400050352633275291_" gradientUnits="userSpaceOnUse" x1="693.3753" y1="3994.5117" x2="1536.3424" y2="3992.8306" gradientTransform="matrix(1 0 0 -1 0 5676)">
			<stop  offset="0" style="stop-color:#004F9E"/>
			<stop  offset="1.000000e-04" style="stop-color:#0045C0"/>
			<stop  offset="1" style="stop-color:#A0CCED"/>
		</linearGradient>
		<path style="fill-rule:evenodd;clip-rule:evenodd;fill:url(#SVGID_00000141435592320831028760000000400050352633275291_);" d="
			M693.7,1550.7h155.1l39.8,17.6h647.6H983.3l39.8,17.6h513h-411.9l39.8,17.6h372.2h-258.4l39.8,17.6h218.6h-123.8l39.8,32.1h84.1
			v56.9H1452l-39.8,32.1h123.8h-218.6l-39.8,17.6h258.4H1164l-39.8,17.6h411.9h-513l-39.8,17.6h-94.8l-39.8,17.6h687.3H693.7V1550.7
			z"/>
		<path class="st42" d="M848.8,1812.5v-261.8l19.8,8.8l19.8,8.8v226.6L848.8,1812.5z"/>
		<path class="st42" d="M983.3,1794.9v-226.6l39.6,17.6v191.4L983.3,1794.9z"/>
		<path class="st42" d="M1124.2,1777.3v-191.4l39.6,17.6v156.2L1124.2,1777.3z"/>
		<path class="st42" d="M1277.7,1759.8v-156.2l39.6,17.6v121.2L1277.7,1759.8z"/>
		<path class="st42" d="M1412.3,1742.2v-121.1l39.6,31.8v57.5L1412.3,1742.2z"/>
	</g>
</g>
<g>
	<defs>
		<polygon id="SVGID_00000040537810954998464390000012714977465881971597_" points="582.2,1041.1 1025.2,1041.1 1025.2,1462.1 
			602.2,1462.1 		"/>
	</defs>
	<clipPath id="SVGID_00000121983161106530173520000017559359644182724787_">
		<use xlink:href="#SVGID_00000040537810954998464390000012714977465881971597_"  style="overflow:visible;"/>
	</clipPath>
	<g style="clip-path:url(#SVGID_00000121983161106530173520000017559359644182724787_);">
		<g>
			<defs>
				<rect id="SVGID_00000080922955011181198400000005715408265313968257_" x="659" y="1142.5" width="311.4" height="249.5"/>
			</defs>
			<clipPath id="SVGID_00000148628035243983626160000001991906215468614073_">
				<use xlink:href="#SVGID_00000080922955011181198400000005715408265313968257_"  style="overflow:visible;"/>
			</clipPath>
			<g style="clip-path:url(#SVGID_00000148628035243983626160000001991906215468614073_);">
				<path class="st45" d="M784.6,1157.5H660.4v46.4h124.2V1157.5z"/>
				<path class="st25" d="M785.9,1205.2H659v-48.9h126.9V1205.2z M661.7,1202.8h121.6v-44H661.7V1202.8z"/>
				<path class="st4" d="M881.3,1157.5h-96.7v46.4h96.7V1157.5z"/>
				<path class="st25" d="M882.6,1205.2h-99.4v-48.9h99.4L882.6,1205.2L882.6,1205.2z M785.9,1202.8H880v-44h-94.1L785.9,1202.8
					L785.9,1202.8z"/>
				<path class="st45" d="M749.3,1232.9h-88.9v46.4h88.9V1232.9z"/>
				<path class="st25" d="M750.6,1280.5H659v-48.9h91.6V1280.5z M661.7,1278.1h86.2v-44h-86.2V1278.1z"/>
				<path class="st9" d="M832.9,1232.9h-83.7v46.4h83.7V1232.9z"/>
				<path class="st25" d="M834.3,1280.5h-86.3v-48.9h86.3V1280.5z M750.6,1278.1h81v-44h-81V1278.1z"/>
				<path class="st45" d="M722.5,1312.7h-62.1v46.4h62.1V1312.7z"/>
				<path class="st25" d="M723.8,1360.3H659v-48.9h64.8V1360.3z M661.7,1357.9h59.4v-44h-59.4V1357.9z"/>
				<path class="st4" d="M777,1312.7h-54.5v46.4H777V1312.7z"/>
				<path class="st25" d="M778.3,1360.3h-57.2v-48.9h57.2L778.3,1360.3L778.3,1360.3z M723.8,1357.9h51.8v-44h-51.9L723.8,1357.9
					L723.8,1357.9z"/>
				<path class="st38" d="M947.6,1157.5h-66.3v46.4h66.3V1157.5z"/>
				<path class="st25" d="M948.9,1205.2H880v-48.9h68.9V1205.2z M882.6,1202.8h63.6v-44h-63.6V1202.8z"/>
				<path class="st38" d="M867.4,1232.9h-33.9v46.4h33.9V1232.9z"/>
				<path class="st25" d="M868.7,1280.5h-36.6v-48.9h36.6V1280.5z M834.8,1278.1H866v-44h-31.3V1278.1z"/>
				<path class="st38" d="M812,1312.7h-35v46.4h35V1312.7z"/>
				<path class="st25" d="M813.3,1360.3h-37.6v-48.9h37.6V1360.3z M778.3,1357.9h32.3v-44h-32.3V1357.9z"/>
				<path class="st8" d="M969,1392H659v-248.3c0-0.7,0.6-1.2,1.3-1.2c0.7,0,1.3,0.5,1.3,1.2v245.8H969c0.7,0,1.3,0.5,1.3,1.2
					C970.3,1391.4,969.8,1392,969,1392z"/>
			</g>
		</g>
	</g>
</g>
<g>
	<defs>
		<rect id="SVGID_00000031209818617421699670000001472572890983718591_" x="1128.2" y="1041.1" width="422" height="421"/>
	</defs>
	<clipPath id="SVGID_00000089567850629845898220000006853379786405708982_">
		<use xlink:href="#SVGID_00000031209818617421699670000001472572890983718591_"  style="overflow:visible;"/>
	</clipPath>
	<g style="clip-path:url(#SVGID_00000089567850629845898220000006853379786405708982_);">
		<g>
			<defs>
				<rect id="SVGID_00000161628190049224084130000015816909890092542619_" x="1175.1" y="1142.5" width="330.2" height="249.5"/>
			</defs>
			<clipPath id="SVGID_00000037666774843602703160000012921325581600164992_">
				<use xlink:href="#SVGID_00000161628190049224084130000015816909890092542619_"  style="overflow:visible;"/>
			</clipPath>
			<g style="clip-path:url(#SVGID_00000037666774843602703160000012921325581600164992_);">
				<path class="st8" d="M1504.3,1167.8h-327.3c-0.6,0-1-0.6-1-1.3c0-0.8,0.4-1.3,1-1.3h327.3c0.6,0,1,0.6,1,1.3
					C1505.2,1167.3,1504.8,1167.8,1504.3,1167.8z"/>
				<path class="st8" d="M1504.3,1223.5h-327.3c-0.6,0-1-0.6-1-1.3c0-0.8,0.4-1.3,1-1.3h327.3c0.6,0,1,0.6,1,1.3
					C1505.2,1222.9,1504.8,1223.5,1504.3,1223.5z"/>
				<path class="st8" d="M1504.3,1280h-327.3c-0.6,0-1-0.6-1-1.3c0-0.8,0.4-1.4,1-1.4h327.3c0.6,0,1,0.6,1,1.4
					C1505.2,1279.4,1504.8,1280,1504.3,1280z"/>
				<path class="st8" d="M1504.3,1336.3h-327.3c-0.6,0-1-0.6-1-1.3s0.4-1.3,1-1.3h327.3c0.6,0,1,0.6,1,1.3
					S1504.8,1336.3,1504.3,1336.3z"/>
				<path class="st8" d="M1504.3,1392h-327.3c-0.6,0-1-0.6-1-1.3s0.4-1.4,1-1.4h327.3c0.6,0,1,0.6,1,1.4S1504.8,1392,1504.3,1392z"
					/>
				<path class="st38" d="M1223.1,1262.8h-48v128.7h48V1262.8z"/>
				<path class="st9" d="M1293.5,1202.6h-48v83.8h48V1202.6z"/>
				<path class="st45" d="M1364,1142.5h-48v40.2h48V1142.5z"/>
				<path class="st9" d="M1434.5,1202.6h-48v116.2h48V1202.6z"/>
				<path class="st38" d="M1505,1262.8h-48v101.5h48V1262.8z"/>
			</g>
		</g>
	</g>
</g>
<g>
	<defs>
		<rect id="SVGID_00000075877058712173867350000009586569942552094139_" x="602.2" y="-29.9" width="423" height="421"/>
	</defs>
	<clipPath id="SVGID_00000034775662333346003590000008200666841706882223_">
		<use xlink:href="#SVGID_00000075877058712173867350000009586569942552094139_"  style="overflow:visible;"/>
	</clipPath>
	<g style="clip-path:url(#SVGID_00000034775662333346003590000008200666841706882223_);">
		<g>
			<defs>
				<rect id="SVGID_00000139997104090408303500000017500069346072954524_" x="657" y="131.9" width="314.5" height="164.9"/>
			</defs>
			<clipPath id="SVGID_00000170958787939302050910000004067589362362747285_">
				<use xlink:href="#SVGID_00000139997104090408303500000017500069346072954524_"  style="overflow:visible;"/>
			</clipPath>
			<g style="clip-path:url(#SVGID_00000170958787939302050910000004067589362362747285_);">
				<path class="st5" d="M684.3,189.2h-16c-1.3,0-1.5-0.3-1.5-1.1v-48c0-0.7,0.2-0.9,1-1.1c5.7-2.5,11.6-4.8,16.5-6.5
					c1.5-0.6,1.5-0.7,1.5,1.2V188C685.8,189.2,685.7,189.2,684.3,189.2z"/>
				<path class="st5" d="M742.3,189.2h-46.8c-0.4,0-0.2-1.3-0.1-1.6c4.5-4.5,11.6-11.5,16.5-17c7.4-8.3,12-13.6,12-18.5
					c0-3.7-2.9-5.8-6.3-5.8c-5,0-8,2.9-8.3,8.9c-0.1,1-0.4,0.8-0.8,0.6c-2.4-1.2-9.4-5.7-11.8-7.4c-0.6-0.4-0.6-0.7-0.3-1.4
					c3.3-9.7,11.4-15.1,24.4-15.1c14,0,22.7,6.5,22.7,16.4c0,10.6-9.7,17.2-22.4,26.4c4.4-0.2,15.8-1,21.7-1c0.7,0,1,0.2,1,0.9
					c0.2,4.8,0.2,9.4,0.1,13.4C743.7,189,743.7,189.2,742.3,189.2L742.3,189.2z"/>
				<path class="st5" d="M769.8,191.1c-12.4,0-22.4-7-22.5-15.4c0-0.9,0.1-1.2,0.7-1.4c4.9-1.6,10.9-3.4,15.8-5
					c0.7-0.2,0.9,0,0.7,1.1c-1,5.2,2.1,8.3,7,8.3c4.8,0,7.1-2.8,7.1-6.6c0-5.6-4.5-9.6-12.4-10.3c-0.2,0-0.3-0.4-0.3-0.8
					c0-0.4,0.1-0.8,0.3-0.9c4.4-1.4,11.3-4.5,11.3-9.8c0-3.7-3-5.9-6.3-5.9c-4.1,0-6.9,2.1-7.5,6.2c-0.3,1.7-0.3,2.5-0.8,2.4
					c-3.3-1-10.2-3.4-14-4.6c-0.7-0.3-0.9-0.7-0.7-1.3c2.2-10,12.2-14.7,25.2-14.7s21.8,5.1,21.8,14.7c0,5.2-3.7,10.6-8.6,12.4
					c8.2,2.5,11.5,8.1,11.5,14.2C798,184.7,788.4,191.1,769.8,191.1z"/>
				<path class="st9" d="M687.5,209.6h-17v87.2h17V209.6z"/>
				<path class="st9" d="M711.5,232.1h-17v64.6h17V232.1z"/>
				<path class="st9" d="M735.5,246.2h-17v50.5h17V246.2z"/>
				<path class="st9" d="M759.5,240.6h-17v56.2h17V240.6z"/>
				<path class="st9" d="M783.5,251h-17v45.7h17V251z"/>
				<path class="st9" d="M807.4,228.8h-17v67.9h17V228.8z"/>
				<path class="st9" d="M831.4,246.4h-17v50.4h17V246.4z"/>
				<path class="st9" d="M855.4,257.4h-17v39.4h17V257.4z"/>
				<path class="st9" d="M879.4,253h-17v43.8h17V253z"/>
				<path class="st9" d="M903.4,261.1h-17v35.6h17V261.1z"/>
				<path class="st9" d="M927.4,238.8h-17v57.9h17V238.8z"/>
				<path class="st9" d="M951.4,246.4h-17v50.4h17V246.4z"/>
				<path class="st38" d="M962.9,275.8h-303c-1.6,0-2.9-1.3-2.9-2.9c0-1.6,1.3-2.9,2.9-2.9h303c1.6,0,2.9,1.3,2.9,2.9
					C965.9,274.5,964.5,275.8,962.9,275.8z"/>
				<path class="st38" d="M958.7,256.8h-31.8c-7,0-12.7,5.7-12.7,12.7v6.8c0,7,5.7,12.7,12.7,12.7h31.8c7,0,12.7-5.7,12.7-12.7v-6.8
					C971.5,262.5,965.8,256.8,958.7,256.8z"/>
				<path class="st25" d="M935.8,274.3c0-1.6-0.7-2.2-1.9-2.2c-1.2,0-1.9,0.5-2.4,1.2l-0.8-0.8c0.7-1,1.8-1.6,3.3-1.6
					c1.8,0,3.2,1.1,3.2,3.3v5h-1.4l0.1-1.2c-0.6,0.8-1.4,1.4-2.7,1.4c-1.7,0-3-0.8-3-2.5c0-1.7,1.4-2.4,3.1-2.4h2.5V274.3z
					 M933.3,275.5c-1,0-1.8,0.4-1.8,1.3c0,0.9,0.7,1.4,2,1.4s2.3-0.7,2.3-1.7v-1H933.3z"/>
				<path class="st25" d="M938.9,271.2h1.5l2.2,4.7c0.2,0.5,0.4,1.4,0.4,1.4s0.2-0.8,0.4-1.4l2.1-4.7h1.4l-3.9,8.2h-0.3L938.9,271.2
					z"/>
				<path class="st25" d="M955.8,271.2v1h-1.6c0.4,0.4,0.7,1,0.7,1.7c0,1.7-1.3,2.9-3.2,2.9c-0.6,0-1.2-0.1-1.7-0.4
					c-0.4,0.1-0.7,0.4-0.7,0.8c0,0.5,0.4,0.8,1.1,0.8l2.1,0.2c2.3,0.2,3.4,1,3.4,2.6c0,1.8-1.6,2.9-4.3,2.9c-2.7,0-4.2-1-4.2-2.7
					c0-1.1,0.8-1.8,1.9-2.1c-0.8-0.3-1.1-0.8-1.1-1.5c0-0.7,0.4-1.2,1.1-1.5c-0.6-0.5-0.9-1.2-0.9-2c0-1.7,1.3-2.9,3.2-2.9
					c0.4,0,0.8,0.1,1.2,0.2H955.8z M948.8,280.8c0,1.1,0.9,1.7,2.8,1.7s2.9-0.6,2.9-1.7c0-0.9-0.5-1.3-2.2-1.4l-2-0.1
					C949.3,279.5,948.8,280,948.8,280.8z M953.6,273.9c0-1.1-0.7-1.8-1.9-1.8c-1.2,0-1.9,0.7-1.9,1.8c0,1.1,0.7,1.8,1.9,1.8
					C952.9,275.7,953.6,275,953.6,273.9z"/>
			</g>
		</g>
	</g>
</g>
<g>
	<defs>
		<rect id="SVGID_00000079472174759461353070000003327760724511431062_" x="683.5" y="276.5" width="423" height="422"/>
	</defs>
	<clipPath id="SVGID_00000036243862486680112400000001939313573198987960_">
		<use xlink:href="#SVGID_00000079472174759461353070000003327760724511431062_"  style="overflow:visible;"/>
	</clipPath>
	<g style="clip-path:url(#SVGID_00000036243862486680112400000001939313573198987960_);">
		<g>
			<defs>
				<rect id="SVGID_00000050633322079877248070000007513921416344612524_" x="697.2" y="430.8" width="396.6" height="142.9"/>
			</defs>
			<clipPath id="SVGID_00000079470643450934699660000008550630307808235676_">
				<use xlink:href="#SVGID_00000050633322079877248070000007513921416344612524_"  style="overflow:visible;"/>
			</clipPath>
			<g style="clip-path:url(#SVGID_00000079470643450934699660000008550630307808235676_);">
				<path class="st8" d="M1074.2,526.8H724.6c-10.8,0-19.6,8.8-19.6,19.5s8.8,19.5,19.6,19.5h349.6c10.8,0,19.6-8.7,19.6-19.5
					S1085,526.8,1074.2,526.8z"/>
				<path class="st45" d="M724.6,569.8c-13,0-23.5-10.5-23.5-23.4c0-12.9,10.5-23.4,23.5-23.4h213c13,0,23.5,10.5,23.5,23.4
					c0,12.9-10.5,23.4-23.5,23.4H724.6z"/>
				<path class="st25" d="M937.6,526.8c10.8,0,19.6,8.8,19.6,19.5c0,10.8-8.8,19.5-19.6,19.5h-213c-10.8,0-19.6-8.8-19.6-19.5
					c0-10.8,8.8-19.5,19.6-19.5H937.6z M937.6,519h-213c-15.1,0-27.4,12.3-27.4,27.4c0,15.1,12.3,27.3,27.4,27.3h213
					c15.1,0,27.4-12.3,27.4-27.3C965,531.3,952.7,519,937.6,519z"/>
				<path class="st5" d="M727.6,488.2h-16c-1.3,0-1.5-0.2-1.5-1.2v-48.2c0-0.7,0.3-0.9,1-1.2c5.7-2.5,11.6-4.8,16.5-6.6
					c1.5-0.6,1.5-0.7,1.5,1.2v54.7C729.1,488.2,729,488.2,727.6,488.2z"/>
				<path class="st5" d="M785.6,488.2h-46.8c-0.4,0-0.2-1.3-0.1-1.6c4.5-4.5,11.6-11.6,16.4-17c7.4-8.3,12-13.6,12-18.5
					c0-3.7-2.9-5.8-6.3-5.8c-5,0-8,3-8.3,9c-0.1,1-0.4,0.8-0.8,0.6c-2.4-1.2-9.4-5.7-11.9-7.4c-0.6-0.4-0.6-0.7-0.3-1.4
					c3.3-9.8,11.4-15.2,24.4-15.2c14,0,22.7,6.5,22.7,16.4c0,10.6-9.7,17.2-22.4,26.4c4.4-0.2,15.8-1,21.7-1c0.7,0,1,0.2,1,0.9
					c0.2,4.8,0.2,9.4,0.1,13.5C787.1,488.1,787,488.3,785.6,488.2L785.6,488.2z"/>
				<path class="st5" d="M813.1,490.1c-12.4,0-22.4-7.1-22.5-15.4c0-0.9,0.1-1.2,0.7-1.4c4.9-1.6,10.9-3.4,15.8-5
					c0.7-0.2,0.9,0,0.7,1.1c-1,5.2,2.1,8.3,7,8.3c4.9,0,7.1-2.8,7.1-6.6c0-5.6-4.5-9.6-12.4-10.3c-0.2,0-0.3-0.4-0.3-0.8
					s0.1-0.8,0.3-0.9c4.4-1.4,11.3-4.5,11.3-9.8c0-3.7-3-5.9-6.3-5.9c-4.1,0-6.9,2.1-7.6,6.2c-0.2,1.7-0.2,2.5-0.8,2.4
					c-3.3-1-10.2-3.4-14-4.6c-0.7-0.2-0.9-0.7-0.8-1.3c2.2-10,12.2-14.7,25.2-14.7s21.8,5.1,21.8,14.8c0,5.2-3.7,10.6-8.6,12.4
					c8.1,2.5,11.5,8.1,11.5,14.3C841.3,483.7,831.7,490.1,813.1,490.1z"/>
				<path class="st3" d="M1065.6,430.9h-71.8c-15.6,0-28.2,12.6-28.2,28.1v0c0,15.5,12.6,28.1,28.2,28.1h71.8
					c15.6,0,28.2-12.6,28.2-28.1v0C1093.8,443.5,1081.1,430.9,1065.6,430.9z"/>
				<path class="st25" d="M985.5,454.9h1.5l2.2,4.7c0.2,0.5,0.5,1.4,0.5,1.4s0.2-0.8,0.4-1.4l2.1-4.7h1.4l-3.9,8.2h-0.2L985.5,454.9
					z"/>
				<path class="st25" d="M994.8,461.3l1-0.6c0.5,0.8,1.2,1.4,2.3,1.4c1.1,0,1.7-0.5,1.7-1.2c0-0.9-0.7-1.1-2.1-1.5
					c-1.3-0.4-2.5-0.9-2.5-2.4c0-1.4,1.2-2.2,2.7-2.2c1.2,0,2.1,0.5,2.7,1.3l-0.9,0.7c-0.4-0.6-1-0.9-1.8-0.9c-0.9,0-1.4,0.4-1.4,1
					c0,0.8,0.5,1,1.9,1.4c1.4,0.4,2.7,0.9,2.7,2.5c0,1.4-0.9,2.4-3,2.4C996.5,463.1,995.3,462.3,994.8,461.3z"/>
				<path class="st25" d="M1008.5,448.9h1.4V463h-1.4V448.9z"/>
				<path class="st25" d="M1018,458c0-1.6-0.7-2.2-1.9-2.2c-1.2,0-1.9,0.5-2.4,1.2l-0.8-0.8c0.7-1,1.8-1.6,3.3-1.6
					c1.8,0,3.2,1.1,3.2,3.3v5h-1.4l0.1-1.2c-0.6,0.8-1.4,1.4-2.7,1.4c-1.7,0-3-0.8-3-2.5c0-1.7,1.4-2.5,3.1-2.5h2.5V458z
					 M1015.6,459.3c-1,0-1.9,0.4-1.9,1.3c0,0.9,0.7,1.4,2,1.4c1.3,0,2.3-0.7,2.3-1.7v-1H1015.6z"/>
				<path class="st25" d="M1021.5,461.3l1-0.6c0.5,0.8,1.2,1.4,2.4,1.4c1.1,0,1.7-0.5,1.7-1.2c0-0.9-0.7-1.1-2.1-1.5
					c-1.3-0.4-2.4-0.9-2.4-2.4c0-1.4,1.2-2.2,2.7-2.2c1.2,0,2.1,0.5,2.7,1.3l-0.9,0.7c-0.4-0.6-1-0.9-1.8-0.9c-0.9,0-1.4,0.4-1.4,1
					c0,0.8,0.5,1,1.9,1.4c1.4,0.4,2.7,0.9,2.7,2.5c0,1.4-0.9,2.4-3,2.4C1023.2,463.1,1022.1,462.3,1021.5,461.3z"/>
				<path class="st25" d="M1030.7,460.5v-4.5h-1.2v-1.2h1.2v-4.2h1.4v4.2h2.3v1.2h-2.3v4.5c0,1.1,0.4,1.4,1,1.4
					c0.6,0,0.8-0.2,1.1-0.5l0.7,0.9c-0.3,0.4-1,0.8-2,0.8C1031.6,463.2,1030.7,462.5,1030.7,460.5z"/>
				<path class="st25" d="M1044.1,462.3l-3.4-7.4h1.5l2.3,5c0.2,0.5,0.4,1.4,0.4,1.4s0.1-0.9,0.4-1.4l2.1-5h1.4l-5.3,12.2h-1.4
					L1044.1,462.3z"/>
				<path class="st25" d="M1054.4,462c1.2,0,2-0.5,2.6-1.1l0.8,0.8c-0.8,0.8-1.8,1.4-3.4,1.4c-2.7,0-4.4-1.8-4.4-4.2
					c0-2.4,1.8-4.2,4.2-4.2c2.6,0,4.2,2,4.1,4.7h-6.9C1051.5,460.9,1052.6,462,1054.4,462z M1056.9,458.4c-0.1-1.4-1-2.5-2.7-2.5
					c-1.5,0-2.6,1-2.8,2.5H1056.9z"/>
				<path class="st25" d="M1065.6,458c0-1.6-0.7-2.2-1.9-2.2c-1.2,0-1.9,0.5-2.4,1.2l-0.8-0.8c0.7-1,1.8-1.6,3.3-1.6
					c1.8,0,3.2,1.1,3.2,3.3v5h-1.4l0.1-1.2c-0.6,0.8-1.4,1.4-2.7,1.4c-1.7,0-3-0.8-3-2.5c0-1.7,1.4-2.5,3.1-2.5h2.5V458z
					 M1063.2,459.3c-1,0-1.8,0.4-1.8,1.3c0,0.9,0.7,1.4,2,1.4c1.3,0,2.3-0.7,2.3-1.7v-1H1063.2z"/>
				<path class="st25" d="M1069.9,454.9h1.4l0,1.6c0.5-1.2,1.4-1.7,2.4-1.7c0.6,0,1,0.1,1.4,0.4l-0.5,1.2c-0.2-0.2-0.6-0.3-1.1-0.3
					c-1.2,0-2.1,0.8-2.1,2.7v4.3h-1.4V454.9z"/>
			</g>
		</g>
	</g>
</g>
<g>
	<g>
		<defs>
			<rect id="SVGID_00000152963221543301893680000007946353444123375501_" x="1128.2" y="-29.9" width="422" height="421"/>
		</defs>
		<clipPath id="SVGID_00000135676523946371256610000011368053069344432539_">
			<use xlink:href="#SVGID_00000152963221543301893680000007946353444123375501_"  style="overflow:visible;"/>
		</clipPath>
		<g style="clip-path:url(#SVGID_00000135676523946371256610000011368053069344432539_);">
			<g>
				<defs>
					<rect id="SVGID_00000003071913784735472670000014057906020861614519_" x="1147.7" y="104.6" width="384.2" height="197.5"/>
				</defs>
				<clipPath id="SVGID_00000073722166350142497360000010953153059566400390_">
					<use xlink:href="#SVGID_00000003071913784735472670000014057906020861614519_"  style="overflow:visible;"/>
				</clipPath>
				<g style="clip-path:url(#SVGID_00000073722166350142497360000010953153059566400390_);">
					<path class="st3" d="M1503.8,104.6h-71.6c-15.5,0-28.1,12.6-28.1,28v0c0,15.5,12.6,28,28.1,28h71.6c15.5,0,28.1-12.6,28.1-28v0
						C1531.9,117.2,1519.3,104.6,1503.8,104.6z"/>
					<path class="st25" d="M1423.9,128.7h1.5l2.2,4.7c0.2,0.5,0.4,1.4,0.4,1.4s0.2-0.8,0.4-1.4l2.1-4.7h1.4l-3.9,8.2h-0.2
						L1423.9,128.7z"/>
					<path class="st25" d="M1433.1,135.1l1.1-0.6c0.5,0.8,1.2,1.4,2.3,1.4c1.1,0,1.7-0.5,1.7-1.2c0-0.9-0.7-1.1-2.1-1.5
						c-1.3-0.4-2.4-0.9-2.4-2.4c0-1.4,1.2-2.2,2.7-2.2c1.2,0,2.1,0.5,2.7,1.3l-0.9,0.7c-0.4-0.6-1-0.9-1.8-0.9c-0.9,0-1.4,0.4-1.4,1
						c0,0.8,0.5,1,1.9,1.4c1.4,0.4,2.7,0.9,2.7,2.5c0,1.4-0.9,2.4-2.9,2.4C1434.8,136.9,1433.7,136.1,1433.1,135.1z"/>
					<path class="st25" d="M1446.8,122.7h1.4v14.1h-1.4V122.7z"/>
					<path class="st25" d="M1456.3,131.9c0-1.6-0.7-2.2-1.9-2.2c-1.2,0-1.9,0.5-2.4,1.2l-0.8-0.8c0.7-1,1.8-1.6,3.3-1.6
						c1.8,0,3.2,1.1,3.2,3.3v5h-1.4l0.1-1.2c-0.5,0.8-1.4,1.4-2.7,1.4c-1.7,0-3-0.8-3-2.5c0-1.7,1.4-2.4,3.1-2.4h2.5V131.9z
						 M1453.9,133.1c-1,0-1.8,0.4-1.8,1.3c0,0.9,0.7,1.4,2,1.4c1.3,0,2.3-0.7,2.3-1.7v-1H1453.9z"/>
					<path class="st25" d="M1459.8,135.1l1.1-0.6c0.5,0.8,1.2,1.4,2.3,1.4c1.1,0,1.7-0.5,1.7-1.2c0-0.9-0.7-1.1-2.1-1.5
						c-1.3-0.4-2.4-0.9-2.4-2.4c0-1.4,1.2-2.2,2.7-2.2c1.2,0,2.1,0.5,2.7,1.3l-0.9,0.7c-0.4-0.6-1-0.9-1.8-0.9c-0.9,0-1.4,0.4-1.4,1
						c0,0.8,0.5,1,1.9,1.4c1.4,0.4,2.7,0.9,2.7,2.5c0,1.4-0.9,2.4-3,2.4C1461.5,136.9,1460.3,136.1,1459.8,135.1z"/>
					<path class="st25" d="M1468.9,134.3v-4.5h-1.3v-1.1h1.3v-4.2h1.3v4.2h2.3v1.1h-2.3v4.5c0,1.1,0.4,1.4,1,1.4
						c0.6,0,0.8-0.2,1.1-0.5l0.8,0.9c-0.3,0.4-1,0.8-2,0.8C1469.9,137,1468.9,136.3,1468.9,134.3z"/>
					<path class="st25" d="M1482.3,136.1l-3.4-7.4h1.5l2.3,5c0.2,0.5,0.4,1.4,0.4,1.4s0.1-0.9,0.4-1.4l2.1-5h1.4l-5.3,12.2h-1.4
						L1482.3,136.1z"/>
					<path class="st25" d="M1492.6,135.8c1.2,0,2-0.5,2.5-1.1l0.8,0.8c-0.7,0.8-1.8,1.4-3.4,1.4c-2.7,0-4.4-1.8-4.4-4.2
						c0-2.4,1.8-4.2,4.2-4.2c2.6,0,4.2,2,4.1,4.7h-6.9C1489.7,134.7,1490.8,135.8,1492.6,135.8z M1495.1,132.2
						c-0.1-1.4-1-2.5-2.7-2.5c-1.5,0-2.6,1-2.8,2.5H1495.1z"/>
					<path class="st25" d="M1503.8,131.9c0-1.6-0.7-2.2-1.9-2.2c-1.2,0-1.8,0.5-2.4,1.2l-0.8-0.8c0.7-1,1.8-1.6,3.3-1.6
						c1.8,0,3.2,1.1,3.2,3.3v5h-1.4l0.1-1.2c-0.6,0.8-1.4,1.4-2.7,1.4c-1.7,0-3-0.8-3-2.5c0-1.7,1.4-2.4,3.1-2.4h2.5V131.9z
						 M1501.4,133.1c-1,0-1.8,0.4-1.8,1.3c0,0.9,0.7,1.4,2,1.4c1.3,0,2.3-0.7,2.3-1.7v-1H1501.4z"/>
					<path class="st25" d="M1508.1,128.7h1.4l0,1.6c0.5-1.2,1.4-1.7,2.4-1.7c0.6,0,1,0.1,1.4,0.4l-0.5,1.2c-0.2-0.2-0.6-0.3-1.1-0.3
						c-1.2,0-2.1,0.8-2.1,2.7v4.2h-1.4V128.7z"/>
					<path class="st5" d="M1166.4,162h-16c-1.3,0-1.5-0.3-1.5-1.2v-48.1c0-0.7,0.2-0.9,1-1.2c5.7-2.5,11.6-4.7,16.5-6.5
						c1.5-0.6,1.5-0.7,1.5,1.2v54.6C1167.9,162,1167.8,162,1166.4,162z"/>
					<path class="st5" d="M1224.2,162h-46.7c-0.4,0-0.2-1.3-0.1-1.6c4.5-4.5,11.6-11.5,16.4-17c7.4-8.3,12-13.6,12-18.5
						c0-3.7-2.9-5.8-6.3-5.8c-5,0-8,2.9-8.3,8.9c-0.1,1-0.4,0.8-0.8,0.6c-2.4-1.2-9.4-5.7-11.8-7.4c-0.6-0.4-0.6-0.7-0.3-1.4
						c3.3-9.7,11.3-15.2,24.4-15.2c13.9,0,22.6,6.5,22.6,16.4c0,10.6-9.7,17.2-22.3,26.4c4.4-0.2,15.8-1,21.7-1c0.7,0,1,0.2,1,0.9
						c0.3,4.8,0.3,9.4,0.1,13.4C1225.7,161.8,1225.6,162,1224.2,162L1224.2,162z"/>
					<path class="st5" d="M1251.7,163.9c-12.4,0-22.3-7-22.4-15.4c0-0.9,0.1-1.2,0.7-1.4c4.9-1.6,10.9-3.4,15.8-5
						c0.8-0.2,0.9,0,0.8,1.1c-1,5.2,2.1,8.3,7,8.3c4.8,0,7-2.8,7-6.6c0-5.6-4.5-9.6-12.4-10.3c-0.2,0-0.3-0.4-0.3-0.8
						c0-0.4,0.1-0.8,0.3-0.9c4.4-1.4,11.2-4.5,11.2-9.8c0-3.7-3-5.9-6.3-5.9c-4.1,0-6.9,2.1-7.5,6.2c-0.2,1.7-0.2,2.5-0.8,2.4
						c-3.3-1-10.2-3.4-13.9-4.6c-0.7-0.3-0.9-0.7-0.7-1.3c2.2-9.9,12.1-14.7,25.2-14.7s21.8,5.1,21.8,14.7c0,5.2-3.7,10.6-8.6,12.4
						c8.1,2.5,11.5,8.1,11.5,14.2C1279.8,157.5,1270.3,163.9,1251.7,163.9z"/>
					<path class="st45" d="M1152.9,280.4l47.5-24.1l24.8,7l57.4-32.8l32.2,7.6l80.6-35.7l65.8,6.2l63.4-24.1v116.6h-370.4
						L1152.9,280.4z"/>
					<path class="st45" d="M1525.7,302.2h-372.3l-1.5-22.4l48.5-24.6l24.8,7l57.4-32.7l32.3,7.6l80.6-35.6h0.2l65.6,6.2l64.5-24.5
						V302.2L1525.7,302.2z M1155.2,300.2h368.5V186l-62.3,23.6h-0.2l-65.6-6.2l-80.7,35.7l-32.1-7.6l-57.4,32.8l-24.9-7l-46.6,23.7
						L1155.2,300.2z"/>
					<path class="st54" d="M1151.6,287.7c-1.4,0-2.7-0.7-3.4-2c-1.1-1.9-0.4-4.2,1.5-5.3l47.9-26.6c0.8-0.5,1.8-0.6,2.8-0.4
						l25.5,5.8l56.1-32c0.9-0.5,1.9-0.6,2.8-0.4l31,7.3l78.6-33.3c0.6-0.3,1.3-0.4,1.9-0.3l65.3,6.7l62.9-26.2
						c2-0.8,4.3,0.1,5.1,2.1c0.8,2-0.1,4.3-2.1,5.1l-63.8,26.5c-0.6,0.3-1.3,0.4-1.9,0.3l-65.3-6.7l-78.8,33.4
						c-0.8,0.3-1.6,0.4-2.4,0.2l-30.7-7.2l-56.1,32c-0.9,0.5-1.9,0.6-2.8,0.4l-25.5-5.8l-46.5,25.9
						C1152.9,287.5,1152.3,287.7,1151.6,287.7z"/>
				</g>
			</g>
		</g>
	</g>
	<rect x="1128.7" y="-29.4" class="st55" width="421" height="420"/>
</g>
<g>
	<defs>
		<rect id="SVGID_00000174603446378459311630000002253109970230559639_" x="1128.2" y="439.1" width="422" height="422"/>
	</defs>
	<clipPath id="SVGID_00000083799528200108968160000008718068318203623600_">
		<use xlink:href="#SVGID_00000174603446378459311630000002253109970230559639_"  style="overflow:visible;"/>
	</clipPath>
	<g style="clip-path:url(#SVGID_00000083799528200108968160000008718068318203623600_);">
		<g>
			<defs>
				<rect id="SVGID_00000049913552724695923780000014163072663371763890_" x="1145.8" y="583.7" width="384.9" height="154.3"/>
			</defs>
			<clipPath id="SVGID_00000170974061385069078880000004348311190070387865_">
				<use xlink:href="#SVGID_00000049913552724695923780000014163072663371763890_"  style="overflow:visible;"/>
			</clipPath>
			<g style="clip-path:url(#SVGID_00000170974061385069078880000004348311190070387865_);">
				<path class="st58" d="M1195.1,726.4c-0.8,0-1.8-0.1-2.6-0.2c-1.6,3.3-4.8,5.5-8.6,5.5c-1.6,0-3.1-0.3-4.3-1.1
					c-1.7,4.3-5.7,7.4-10.4,7.4c-4.7,0-9-3.3-10.6-7.9c-0.7,0.1-1.4,0.2-2.1,0.2c-5.9,0-10.7-5.1-10.7-11.3c0-4.2,2.1-7.8,5.3-9.7
					c-0.7-1.7-1.1-3.4-1.1-5.3c0-7.1,5.3-12.7,12-12.7c4,0,7.5,2,9.7,5.1c2-2.3,4.9-3.8,8.1-3.8c4.2,0,7.9,2.5,9.7,6.2
					c1.7-0.8,3.6-1.2,5.5-1.2c7.6,0,13.6,6.4,13.6,14.4C1208.5,720,1202.7,726.4,1195.1,726.4L1195.1,726.4z"/>
				<path class="st58" d="M1275.6,726.4c-0.8,0-1.8-0.1-2.6-0.2c-1.6,3.3-4.8,5.5-8.6,5.5c-1.6,0-3-0.3-4.3-1.1
					c-1.7,4.3-5.7,7.4-10.4,7.4c-4.7,0-9-3.3-10.6-7.9c-0.7,0.1-1.4,0.2-2.1,0.2c-5.9,0-10.7-5.1-10.7-11.3c0-4.2,2.1-7.8,5.3-9.7
					c-0.7-1.7-1.2-3.4-1.2-5.3c0-7.1,5.3-12.7,12.1-12.7c4,0,7.5,2,9.7,5.1c2-2.3,4.9-3.8,8.1-3.8c4.2,0,7.9,2.5,9.7,6.2
					c1.7-0.8,3.6-1.2,5.5-1.2c7.6,0,13.6,6.4,13.6,14.4C1289.1,720,1283.2,726.4,1275.6,726.4L1275.6,726.4z"/>
				<path class="st58" d="M1356.1,726.4c-0.8,0-1.8-0.1-2.6-0.2c-1.6,3.3-4.8,5.5-8.6,5.5c-1.6,0-3-0.3-4.3-1.1
					c-1.7,4.3-5.7,7.4-10.4,7.4c-4.7,0-9-3.3-10.6-7.9c-0.7,0.1-1.4,0.2-2.1,0.2c-5.9,0-10.7-5.1-10.7-11.3c0-4.2,2.1-7.8,5.3-9.7
					c-0.8-1.7-1.2-3.4-1.2-5.3c0-7.1,5.3-12.7,12.1-12.7c4,0,7.4,2,9.7,5.1c2-2.3,4.9-3.8,8.1-3.8c4.2,0,7.9,2.5,9.6,6.2
					c1.7-0.8,3.6-1.2,5.5-1.2c7.5,0,13.6,6.4,13.6,14.4C1369.6,720,1363.7,726.4,1356.1,726.4L1356.1,726.4z"/>
				<path class="st58" d="M1436.7,726.4c-0.8,0-1.8-0.1-2.6-0.2c-1.6,3.3-4.8,5.5-8.6,5.5c-1.6,0-3-0.3-4.3-1.1
					c-1.7,4.3-5.7,7.4-10.4,7.4s-9-3.3-10.6-7.9c-0.7,0.1-1.4,0.2-2.1,0.2c-5.9,0-10.7-5.1-10.7-11.3c0-4.2,2.1-7.8,5.3-9.7
					c-0.7-1.7-1.2-3.4-1.2-5.3c0-7.1,5.3-12.7,12.1-12.7c4,0,7.5,2,9.7,5.1c2-2.3,4.9-3.8,8.1-3.8c4.2,0,7.9,2.5,9.7,6.2
					c1.7-0.8,3.6-1.2,5.5-1.2c7.6,0,13.6,6.4,13.6,14.4C1450.1,720,1444.3,726.4,1436.7,726.4L1436.7,726.4z"/>
				<path class="st59" d="M1517.2,726.4c-0.8,0-1.8-0.1-2.6-0.2c-1.6,3.3-4.8,5.5-8.6,5.5c-1.6,0-3-0.3-4.3-1.1
					c-1.7,4.3-5.7,7.4-10.4,7.4s-9-3.3-10.6-7.9c-0.8,0.1-1.4,0.2-2.1,0.2c-5.9,0-10.7-5.1-10.7-11.3c0-4.2,2.1-7.8,5.3-9.7
					c-0.7-1.7-1.2-3.4-1.2-5.3c0-7.1,5.4-12.7,12.1-12.7c4,0,7.4,2,9.7,5.1c2-2.3,4.9-3.8,8.1-3.8c4.2,0,7.9,2.5,9.7,6.2
					c1.7-0.8,3.6-1.2,5.5-1.2c7.6,0,13.6,6.4,13.6,14.4C1530.7,720,1524.8,726.4,1517.2,726.4L1517.2,726.4z"/>
				<path class="st5" d="M1291,640.9h-16c-1.3,0-1.5-0.3-1.5-1.2v-48c0-0.7,0.2-0.9,1-1.2c5.7-2.4,11.6-4.8,16.5-6.6
					c1.5-0.6,1.5-0.7,1.5,1.2v54.6C1292.5,640.9,1292.4,640.9,1291,640.9L1291,640.9z"/>
				<path class="st5" d="M1348.8,640.9h-46.6c-0.4,0-0.3-1.3-0.1-1.6c4.5-4.5,11.5-11.5,16.4-16.9c7.4-8.3,12-13.6,12-18.5
					c0-3.7-2.9-5.8-6.3-5.8c-5,0-7.9,2.9-8.3,8.9c-0.1,1-0.4,0.8-0.8,0.6c-2.4-1.2-9.3-5.7-11.8-7.4c-0.6-0.4-0.6-0.7-0.3-1.4
					c3.3-9.7,11.3-15.1,24.3-15.1c13.9,0,22.6,6.5,22.6,16.4c0,10.6-9.7,17.2-22.3,26.3c4.4-0.1,15.7-1,21.6-1c0.7,0,1,0.2,1,0.9
					c0.3,4.8,0.3,9.4,0.1,13.4C1350.2,640.8,1350.2,641,1348.8,640.9L1348.8,640.9z"/>
				<path class="st5" d="M1376.3,642.8c-12.4,0-22.3-7-22.4-15.4c0-0.9,0.1-1.2,0.7-1.4c4.9-1.6,10.9-3.4,15.8-5
					c0.7-0.2,0.9,0,0.7,1.1c-1,5.2,2.1,8.3,7,8.3c4.8,0,7-2.8,7-6.6c0-5.6-4.5-9.6-12.4-10.3c-0.2,0-0.3-0.4-0.3-0.8
					s0.1-0.8,0.3-0.9c4.4-1.4,11.2-4.5,11.2-9.8c0-3.7-2.9-5.9-6.3-5.9c-4.1,0-6.9,2.1-7.5,6.2c-0.2,1.7-0.2,2.5-0.8,2.4
					c-3.3-1-10.2-3.4-13.9-4.6c-0.7-0.3-0.9-0.7-0.7-1.3c2.2-9.9,12.1-14.7,25.2-14.7c13,0,21.7,5.1,21.7,14.7
					c0,5.2-3.7,10.6-8.6,12.4c8.1,2.5,11.5,8.1,11.5,14.2C1404.3,636.5,1394.8,642.9,1376.3,642.8L1376.3,642.8z"/>
			</g>
		</g>
	</g>
</g>
<rect x="145.6" y="749" class="st38" width="90" height="137.3"/>
<polygon class="st60" points="265.6,865.7 235.6,886.3 235.6,749 265.6,769.6 "/>
<rect x="265.6" y="769.6" class="st9" width="90" height="96.1"/>
<polygon class="st61" points="385.6,858.9 355.6,865.7 355.6,769.6 385.6,776.5 "/>
<rect x="385.6" y="776.5" class="st39" width="90" height="82.4"/>
<polygon class="st62" points="505.6,838.3 475.6,858.9 475.6,776.5 505.6,797.1 "/>
<rect x="505.6" y="797.1" class="st4" width="90" height="41.2"/>
</svg>
