<?xml version="1.0" encoding="utf-8"?>
<!-- Generator: Adobe Illustrator 27.0.0, SVG Export Plug-In . SVG Version: 6.00 Build 0)  -->
<svg version="1.1" id="Layer_1" xmlns="http://www.w3.org/2000/svg" xmlns:xlink="http://www.w3.org/1999/xlink" x="0px" y="0px"
	 viewBox="0 0 829 213" style="enable-background:new 0 0 829 213;" xml:space="preserve">
<style type="text/css">
	.st0{fill:#181818;}
	.st1{fill:#3290ED;}
	.st2{fill:#77B5F2;}
	.st3{fill:#9D53F2;}
	.st4{fill:#C398F5;}
	.st5{fill:#26ABA4;}
	.st6{fill:#4ED4CD;}
	.st7{fill:#F7A452;}
	.st8{fill:#FACA9B;}
	.st9{fill:#F2536D;}
	.st10{fill:#F598A7;}
</style>
<g>
	<path class="st0" d="M11.1,41.2H8.3V50H7.1v-8.8H4.3v-1h6.8V41.2z M18.3,50h-1.1v-4c0-1.5-0.5-2.2-1.6-2.2c-0.5,0-1,0.2-1.4,0.6
		c-0.4,0.4-0.6,1-0.6,1.6v4h-1.1V39.6h1.1v4.5h0c0.5-0.9,1.3-1.3,2.3-1.3c1.6,0,2.4,1,2.4,2.9V50z M26,46.8h-4.9
		c0,0.8,0.2,1.4,0.6,1.8c0.4,0.4,1,0.6,1.7,0.6c0.8,0,1.5-0.3,2.2-0.8v1.1c-0.6,0.4-1.4,0.7-2.4,0.7c-1,0-1.8-0.3-2.3-1
		c-0.6-0.6-0.8-1.5-0.8-2.7c0-1.1,0.3-2,0.9-2.7c0.6-0.7,1.4-1,2.3-1c0.9,0,1.6,0.3,2.1,0.9c0.5,0.6,0.8,1.4,0.8,2.5V46.8z
		 M24.9,45.8c0-0.6-0.2-1.2-0.5-1.5c-0.3-0.4-0.7-0.5-1.3-0.5c-0.5,0-1,0.2-1.3,0.6c-0.4,0.4-0.6,0.9-0.7,1.5H24.9z M37.7,50h-1.1
		v-4c0-0.8-0.1-1.3-0.4-1.7C36,44,35.6,43.8,35,43.8c-0.5,0-0.9,0.2-1.2,0.7c-0.3,0.4-0.5,1-0.5,1.6v4h-1.1v-4.2
		c0-1.4-0.5-2.1-1.6-2.1c-0.5,0-0.9,0.2-1.2,0.6c-0.3,0.4-0.5,0.9-0.5,1.6v4h-1.1v-7h1.1v1.1h0c0.5-0.8,1.2-1.3,2.2-1.3
		c0.5,0,0.9,0.1,1.3,0.4c0.4,0.3,0.6,0.6,0.7,1c0.5-1,1.3-1.4,2.3-1.4c1.5,0,2.3,1,2.3,2.9V50z M45.4,46.8h-4.9
		c0,0.8,0.2,1.4,0.6,1.8c0.4,0.4,1,0.6,1.7,0.6c0.8,0,1.5-0.3,2.2-0.8v1.1c-0.6,0.4-1.4,0.7-2.4,0.7c-1,0-1.8-0.3-2.3-1
		c-0.6-0.6-0.8-1.5-0.8-2.7c0-1.1,0.3-2,0.9-2.7c0.6-0.7,1.4-1,2.3-1s1.6,0.3,2.1,0.9c0.5,0.6,0.8,1.4,0.8,2.5V46.8z M44.3,45.8
		c0-0.6-0.2-1.2-0.5-1.5c-0.3-0.4-0.7-0.5-1.3-0.5c-0.5,0-1,0.2-1.3,0.6c-0.4,0.4-0.6,0.9-0.7,1.5H44.3z M46.7,49.7v-1.2
		c0.6,0.5,1.3,0.7,2,0.7c1,0,1.5-0.3,1.5-1c0-0.2,0-0.3-0.1-0.5c-0.1-0.1-0.2-0.2-0.3-0.3c-0.1-0.1-0.3-0.2-0.5-0.3
		c-0.2-0.1-0.4-0.2-0.6-0.3c-0.3-0.1-0.6-0.2-0.8-0.4c-0.2-0.1-0.4-0.3-0.6-0.4c-0.2-0.2-0.3-0.3-0.4-0.5c-0.1-0.2-0.1-0.4-0.1-0.7
		c0-0.3,0.1-0.6,0.2-0.9c0.2-0.3,0.4-0.5,0.6-0.6c0.3-0.2,0.5-0.3,0.9-0.4c0.3-0.1,0.7-0.1,1-0.1c0.6,0,1.1,0.1,1.6,0.3v1.1
		c-0.5-0.3-1.1-0.5-1.8-0.5c-0.2,0-0.4,0-0.6,0.1c-0.2,0-0.3,0.1-0.4,0.2c-0.1,0.1-0.2,0.2-0.3,0.3c-0.1,0.1-0.1,0.3-0.1,0.4
		c0,0.2,0,0.3,0.1,0.5c0.1,0.1,0.2,0.2,0.3,0.3c0.1,0.1,0.3,0.2,0.5,0.3c0.2,0.1,0.4,0.2,0.6,0.3c0.3,0.1,0.6,0.2,0.8,0.4
		c0.2,0.1,0.5,0.3,0.6,0.4c0.2,0.2,0.3,0.3,0.4,0.5c0.1,0.2,0.1,0.4,0.1,0.7c0,0.3-0.1,0.6-0.2,0.9c-0.2,0.3-0.4,0.5-0.6,0.6
		c-0.3,0.2-0.5,0.3-0.9,0.4s-0.7,0.1-1,0.1C47.9,50.2,47.2,50,46.7,49.7z M61.9,50h-1.1v-1.1h0c-0.5,0.8-1.2,1.3-2.2,1.3
		c-0.7,0-1.2-0.2-1.6-0.6c-0.4-0.4-0.6-0.9-0.6-1.5c0-1.3,0.8-2.1,2.3-2.3l2.1-0.3c0-1.2-0.5-1.8-1.4-1.8c-0.8,0-1.6,0.3-2.3,0.9
		v-1.1c0.7-0.4,1.5-0.7,2.4-0.7c1.6,0,2.5,0.9,2.5,2.6V50z M60.8,46.5l-1.7,0.2c-0.5,0.1-0.9,0.2-1.2,0.4c-0.3,0.2-0.4,0.5-0.4,1
		c0,0.3,0.1,0.6,0.4,0.8c0.2,0.2,0.6,0.3,1,0.3c0.6,0,1-0.2,1.4-0.6c0.4-0.4,0.5-0.9,0.5-1.5V46.5z M67.7,44.1
		c-0.2-0.2-0.5-0.2-0.8-0.2c-0.5,0-0.9,0.2-1.2,0.7c-0.3,0.5-0.5,1.1-0.5,1.8V50H64v-7h1.1v1.4h0c0.2-0.5,0.4-0.9,0.7-1.1
		c0.3-0.3,0.7-0.4,1.1-0.4c0.3,0,0.5,0,0.7,0.1V44.1z M74.5,46.8h-4.9c0,0.8,0.2,1.4,0.6,1.8c0.4,0.4,1,0.6,1.7,0.6
		c0.8,0,1.5-0.3,2.2-0.8v1.1c-0.6,0.4-1.4,0.7-2.4,0.7c-1,0-1.8-0.3-2.3-1c-0.6-0.6-0.8-1.5-0.8-2.7c0-1.1,0.3-2,0.9-2.7
		c0.6-0.7,1.4-1,2.3-1c0.9,0,1.6,0.3,2.1,0.9c0.5,0.6,0.8,1.4,0.8,2.5V46.8z M73.4,45.8c0-0.6-0.2-1.2-0.5-1.5
		c-0.3-0.4-0.7-0.5-1.3-0.5c-0.5,0-1,0.2-1.3,0.6c-0.4,0.4-0.6,0.9-0.7,1.5H73.4z M84.8,49.7c-0.5,0.3-1.2,0.5-1.9,0.5
		c-1,0-1.8-0.3-2.4-1c-0.6-0.7-0.9-1.5-0.9-2.5c0-1.2,0.3-2.1,1-2.8c0.7-0.7,1.5-1.1,2.6-1.1c0.6,0,1.2,0.1,1.6,0.3v1.1
		c-0.5-0.4-1.1-0.5-1.7-0.5c-0.7,0-1.3,0.3-1.8,0.8c-0.5,0.5-0.7,1.2-0.7,2c0,0.8,0.2,1.5,0.6,1.9c0.4,0.5,1,0.7,1.7,0.7
		c0.6,0,1.2-0.2,1.7-0.6V49.7z M89.5,50.2c-1,0-1.9-0.3-2.5-1c-0.6-0.7-0.9-1.5-0.9-2.6c0-1.2,0.3-2.1,1-2.8c0.6-0.7,1.5-1,2.6-1
		c1,0,1.9,0.3,2.4,1c0.6,0.6,0.9,1.5,0.9,2.7c0,1.1-0.3,2-1,2.7C91.4,49.8,90.5,50.2,89.5,50.2z M89.5,43.8c-0.7,0-1.3,0.2-1.7,0.7
		c-0.4,0.5-0.6,1.2-0.6,2c0,0.8,0.2,1.5,0.6,2c0.4,0.5,1,0.7,1.7,0.7c0.7,0,1.3-0.2,1.7-0.7c0.4-0.5,0.6-1.1,0.6-2
		c0-0.9-0.2-1.5-0.6-2C90.8,44,90.3,43.8,89.5,43.8z M104.7,50h-1.1v-4c0-0.8-0.1-1.3-0.4-1.7c-0.2-0.3-0.6-0.5-1.2-0.5
		c-0.5,0-0.9,0.2-1.2,0.7c-0.3,0.4-0.5,1-0.5,1.6v4h-1.1v-4.2c0-1.4-0.5-2.1-1.6-2.1c-0.5,0-0.9,0.2-1.2,0.6
		c-0.3,0.4-0.5,0.9-0.5,1.6v4h-1.1v-7h1.1v1.1h0c0.5-0.8,1.2-1.3,2.2-1.3c0.5,0,0.9,0.1,1.3,0.4c0.4,0.3,0.6,0.6,0.7,1
		c0.5-1,1.3-1.4,2.3-1.4c1.5,0,2.3,1,2.3,2.9V50z M107.9,49L107.9,49l0,4.2h-1.1V43h1.1v1.2h0c0.6-0.9,1.4-1.4,2.4-1.4
		c0.9,0,1.6,0.3,2.1,0.9c0.5,0.6,0.8,1.5,0.8,2.5c0,1.2-0.3,2.1-0.9,2.8c-0.6,0.7-1.3,1.1-2.3,1.1C109.1,50.2,108.4,49.8,107.9,49z
		 M107.9,46.2v1c0,0.6,0.2,1.1,0.6,1.5c0.4,0.4,0.9,0.6,1.4,0.6c0.7,0,1.2-0.3,1.6-0.8c0.4-0.5,0.6-1.2,0.6-2.2
		c0-0.8-0.2-1.4-0.5-1.8c-0.4-0.4-0.8-0.7-1.5-0.7c-0.7,0-1.2,0.2-1.6,0.7C108.1,44.9,107.9,45.5,107.9,46.2z M118.7,44.1
		c-0.2-0.2-0.5-0.2-0.8-0.2c-0.5,0-0.9,0.2-1.2,0.7c-0.3,0.5-0.5,1.1-0.5,1.8V50H115v-7h1.1v1.4h0c0.2-0.5,0.4-0.9,0.7-1.1
		c0.3-0.3,0.7-0.4,1.1-0.4c0.3,0,0.5,0,0.7,0.1V44.1z M120.5,41.2c-0.2,0-0.4-0.1-0.5-0.2s-0.2-0.3-0.2-0.5c0-0.2,0.1-0.4,0.2-0.5
		c0.1-0.1,0.3-0.2,0.5-0.2c0.2,0,0.4,0.1,0.5,0.2c0.1,0.1,0.2,0.3,0.2,0.5c0,0.2-0.1,0.4-0.2,0.5C120.8,41.2,120.7,41.2,120.5,41.2z
		 M121,50h-1.1v-7h1.1V50z M122.9,49.7v-1.2c0.6,0.5,1.3,0.7,2,0.7c1,0,1.5-0.3,1.5-1c0-0.2,0-0.3-0.1-0.5c-0.1-0.1-0.2-0.2-0.3-0.3
		c-0.1-0.1-0.3-0.2-0.5-0.3c-0.2-0.1-0.4-0.2-0.6-0.3c-0.3-0.1-0.6-0.2-0.8-0.4c-0.2-0.1-0.4-0.3-0.6-0.4c-0.2-0.2-0.3-0.3-0.4-0.5
		c-0.1-0.2-0.1-0.4-0.1-0.7c0-0.3,0.1-0.6,0.2-0.9c0.2-0.3,0.4-0.5,0.6-0.6c0.3-0.2,0.5-0.3,0.9-0.4c0.3-0.1,0.7-0.1,1-0.1
		c0.6,0,1.1,0.1,1.6,0.3v1.1c-0.5-0.3-1.1-0.5-1.8-0.5c-0.2,0-0.4,0-0.6,0.1c-0.2,0-0.3,0.1-0.4,0.2c-0.1,0.1-0.2,0.2-0.3,0.3
		c-0.1,0.1-0.1,0.3-0.1,0.4c0,0.2,0,0.3,0.1,0.5c0.1,0.1,0.2,0.2,0.3,0.3s0.3,0.2,0.5,0.3c0.2,0.1,0.4,0.2,0.6,0.3
		c0.3,0.1,0.6,0.2,0.8,0.4c0.2,0.1,0.5,0.3,0.6,0.4c0.2,0.2,0.3,0.3,0.4,0.5c0.1,0.2,0.1,0.4,0.1,0.7c0,0.3-0.1,0.6-0.2,0.9
		c-0.2,0.3-0.4,0.5-0.6,0.6c-0.3,0.2-0.5,0.3-0.9,0.4c-0.3,0.1-0.7,0.1-1,0.1C124,50.2,123.4,50,122.9,49.7z M134.9,46.8h-4.9
		c0,0.8,0.2,1.4,0.6,1.8c0.4,0.4,1,0.6,1.7,0.6c0.8,0,1.5-0.3,2.2-0.8v1.1c-0.6,0.4-1.4,0.7-2.4,0.7c-1,0-1.8-0.3-2.3-1
		c-0.6-0.6-0.8-1.5-0.8-2.7c0-1.1,0.3-2,0.9-2.7c0.6-0.7,1.4-1,2.3-1s1.6,0.3,2.1,0.9c0.5,0.6,0.8,1.4,0.8,2.5V46.8z M133.7,45.8
		c0-0.6-0.2-1.2-0.5-1.5c-0.3-0.4-0.7-0.5-1.3-0.5c-0.5,0-1,0.2-1.3,0.6c-0.4,0.4-0.6,0.9-0.7,1.5H133.7z M142.5,50h-1.1v-1.2h0
		c-0.5,0.9-1.3,1.4-2.4,1.4c-0.9,0-1.6-0.3-2.1-0.9c-0.5-0.6-0.8-1.5-0.8-2.6c0-1.2,0.3-2.1,0.9-2.8c0.6-0.7,1.4-1,2.3-1
		c1,0,1.7,0.4,2.1,1.1h0v-4.3h1.1V50z M141.4,46.8v-1c0-0.6-0.2-1-0.6-1.4c-0.4-0.4-0.8-0.6-1.4-0.6c-0.7,0-1.2,0.3-1.6,0.8
		c-0.4,0.5-0.6,1.2-0.6,2.1c0,0.8,0.2,1.4,0.6,1.9c0.4,0.5,0.9,0.7,1.5,0.7c0.6,0,1.1-0.2,1.5-0.7C141.2,48.1,141.4,47.5,141.4,46.8
		z M151.6,50.2c-1,0-1.9-0.3-2.5-1c-0.6-0.7-0.9-1.5-0.9-2.6c0-1.2,0.3-2.1,1-2.8c0.6-0.7,1.5-1,2.6-1c1,0,1.9,0.3,2.4,1
		c0.6,0.6,0.9,1.5,0.9,2.7c0,1.1-0.3,2-1,2.7C153.5,49.8,152.6,50.2,151.6,50.2z M151.7,43.8c-0.7,0-1.3,0.2-1.7,0.7
		c-0.4,0.5-0.6,1.2-0.6,2c0,0.8,0.2,1.5,0.6,2c0.4,0.5,1,0.7,1.7,0.7c0.7,0,1.3-0.2,1.7-0.7c0.4-0.5,0.6-1.1,0.6-2
		c0-0.9-0.2-1.5-0.6-2C152.9,44,152.4,43.8,151.7,43.8z M160.3,40.6c-0.2-0.1-0.5-0.2-0.7-0.2c-0.8,0-1.2,0.5-1.2,1.5V43h1.6v1h-1.6
		v6h-1.1v-6h-1.2v-1h1.2v-1.1c0-0.7,0.2-1.3,0.6-1.7c0.4-0.4,1-0.6,1.6-0.6c0.3,0,0.6,0,0.8,0.1V40.6z M170.1,50H169v-1.1h0
		c-0.5,0.8-1.2,1.3-2.2,1.3c-0.7,0-1.2-0.2-1.6-0.6c-0.4-0.4-0.6-0.9-0.6-1.5c0-1.3,0.8-2.1,2.3-2.3l2.1-0.3c0-1.2-0.5-1.8-1.4-1.8
		c-0.8,0-1.6,0.3-2.3,0.9v-1.1c0.7-0.4,1.5-0.7,2.4-0.7c1.6,0,2.5,0.9,2.5,2.6V50z M169,46.5l-1.7,0.2c-0.5,0.1-0.9,0.2-1.2,0.4
		c-0.3,0.2-0.4,0.5-0.4,1c0,0.3,0.1,0.6,0.4,0.8c0.2,0.2,0.6,0.3,1,0.3c0.6,0,1-0.2,1.4-0.6c0.4-0.4,0.5-0.9,0.5-1.5V46.5z M186,50
		h-1.1v-4c0-0.8-0.1-1.3-0.4-1.7c-0.2-0.3-0.6-0.5-1.2-0.5c-0.5,0-0.9,0.2-1.2,0.7c-0.3,0.4-0.5,1-0.5,1.6v4h-1.1v-4.2
		c0-1.4-0.5-2.1-1.6-2.1c-0.5,0-0.9,0.2-1.2,0.6c-0.3,0.4-0.5,0.9-0.5,1.6v4H176v-7h1.1v1.1h0c0.5-0.8,1.2-1.3,2.2-1.3
		c0.5,0,0.9,0.1,1.3,0.4c0.4,0.3,0.6,0.6,0.7,1c0.5-1,1.3-1.4,2.3-1.4c1.5,0,2.3,1,2.3,2.9V50z M188.7,41.2c-0.2,0-0.4-0.1-0.5-0.2
		c-0.1-0.1-0.2-0.3-0.2-0.5c0-0.2,0.1-0.4,0.2-0.5c0.1-0.1,0.3-0.2,0.5-0.2c0.2,0,0.4,0.1,0.5,0.2c0.1,0.1,0.2,0.3,0.2,0.5
		c0,0.2-0.1,0.4-0.2,0.5C189.1,41.2,188.9,41.2,188.7,41.2z M189.2,50h-1.1v-7h1.1V50z M197.3,50h-1.1v-4c0-1.5-0.5-2.2-1.6-2.2
		c-0.6,0-1,0.2-1.4,0.6c-0.4,0.4-0.5,1-0.5,1.6v4h-1.1v-7h1.1v1.2h0c0.5-0.9,1.3-1.3,2.3-1.3c0.8,0,1.4,0.2,1.8,0.7
		c0.4,0.5,0.6,1.2,0.6,2.1V50z M200,41.2c-0.2,0-0.4-0.1-0.5-0.2c-0.1-0.1-0.2-0.3-0.2-0.5c0-0.2,0.1-0.4,0.2-0.5
		c0.1-0.1,0.3-0.2,0.5-0.2c0.2,0,0.4,0.1,0.5,0.2c0.1,0.1,0.2,0.3,0.2,0.5c0,0.2-0.1,0.4-0.2,0.5C200.4,41.2,200.2,41.2,200,41.2z
		 M200.5,50h-1.1v-7h1.1V50z M212.8,50h-1.1v-4c0-0.8-0.1-1.3-0.4-1.7c-0.2-0.3-0.6-0.5-1.2-0.5c-0.5,0-0.9,0.2-1.2,0.7
		c-0.3,0.4-0.5,1-0.5,1.6v4h-1.1v-4.2c0-1.4-0.5-2.1-1.6-2.1c-0.5,0-0.9,0.2-1.2,0.6c-0.3,0.4-0.5,0.9-0.5,1.6v4h-1.1v-7h1.1v1.1h0
		c0.5-0.8,1.2-1.3,2.2-1.3c0.5,0,0.9,0.1,1.3,0.4c0.4,0.3,0.6,0.6,0.7,1c0.5-1,1.3-1.4,2.3-1.4c1.5,0,2.3,1,2.3,2.9V50z M220.5,50
		h-1.1v-1.1h0c-0.5,0.8-1.2,1.3-2.2,1.3c-1.7,0-2.5-1-2.5-3V43h1.1v4c0,1.5,0.6,2.2,1.7,2.2c0.5,0,1-0.2,1.3-0.6
		c0.4-0.4,0.5-0.9,0.5-1.6v-4h1.1V50z M232.7,50h-1.1v-4c0-0.8-0.1-1.3-0.4-1.7c-0.2-0.3-0.6-0.5-1.2-0.5c-0.5,0-0.9,0.2-1.2,0.7
		c-0.3,0.4-0.5,1-0.5,1.6v4h-1.1v-4.2c0-1.4-0.5-2.1-1.6-2.1c-0.5,0-0.9,0.2-1.2,0.6c-0.3,0.4-0.5,0.9-0.5,1.6v4h-1.1v-7h1.1v1.1h0
		c0.5-0.8,1.2-1.3,2.2-1.3c0.5,0,0.9,0.1,1.3,0.4c0.4,0.3,0.6,0.6,0.7,1c0.5-1,1.3-1.4,2.3-1.4c1.5,0,2.3,1,2.3,2.9V50z M241.6,50.2
		c-1,0-1.9-0.3-2.5-1c-0.6-0.7-0.9-1.5-0.9-2.6c0-1.2,0.3-2.1,1-2.8c0.6-0.7,1.5-1,2.6-1c1,0,1.9,0.3,2.4,1c0.6,0.6,0.9,1.5,0.9,2.7
		c0,1.1-0.3,2-0.9,2.7C243.5,49.8,242.7,50.2,241.6,50.2z M241.7,43.8c-0.7,0-1.3,0.2-1.7,0.7c-0.4,0.5-0.6,1.2-0.6,2
		c0,0.8,0.2,1.5,0.6,2s1,0.7,1.7,0.7c0.7,0,1.3-0.2,1.7-0.7c0.4-0.5,0.6-1.1,0.6-2c0-0.9-0.2-1.5-0.6-2
		C243,44,242.4,43.8,241.7,43.8z M250.4,40.6c-0.2-0.1-0.5-0.2-0.7-0.2c-0.8,0-1.2,0.5-1.2,1.5V43h1.6v1h-1.6v6h-1.1v-6h-1.2v-1h1.2
		v-1.1c0-0.7,0.2-1.3,0.6-1.7c0.4-0.4,1-0.6,1.6-0.6c0.3,0,0.6,0,0.8,0.1V40.6z M254.7,49.7v-1.2c0.6,0.5,1.3,0.7,2,0.7
		c1,0,1.5-0.3,1.5-1c0-0.2,0-0.3-0.1-0.5c-0.1-0.1-0.2-0.2-0.3-0.3c-0.1-0.1-0.3-0.2-0.5-0.3c-0.2-0.1-0.4-0.2-0.6-0.3
		c-0.3-0.1-0.6-0.2-0.8-0.4c-0.2-0.1-0.4-0.3-0.6-0.4c-0.2-0.2-0.3-0.3-0.4-0.5c-0.1-0.2-0.1-0.4-0.1-0.7c0-0.3,0.1-0.6,0.2-0.9
		c0.2-0.3,0.4-0.5,0.6-0.6c0.2-0.2,0.5-0.3,0.9-0.4c0.3-0.1,0.7-0.1,1-0.1c0.6,0,1.1,0.1,1.6,0.3v1.1c-0.5-0.3-1.1-0.5-1.8-0.5
		c-0.2,0-0.4,0-0.6,0.1c-0.2,0-0.3,0.1-0.4,0.2c-0.1,0.1-0.2,0.2-0.3,0.3c-0.1,0.1-0.1,0.3-0.1,0.4c0,0.2,0,0.3,0.1,0.5
		c0.1,0.1,0.2,0.2,0.3,0.3c0.1,0.1,0.3,0.2,0.5,0.3c0.2,0.1,0.4,0.2,0.6,0.3c0.3,0.1,0.6,0.2,0.8,0.4c0.2,0.1,0.5,0.3,0.6,0.4
		c0.2,0.2,0.3,0.3,0.4,0.5c0.1,0.2,0.1,0.4,0.1,0.7c0,0.3-0.1,0.6-0.2,0.9c-0.1,0.3-0.4,0.5-0.6,0.6c-0.3,0.2-0.5,0.3-0.9,0.4
		c-0.3,0.1-0.7,0.1-1,0.1C255.9,50.2,255.2,50,254.7,49.7z M261.7,41.2c-0.2,0-0.4-0.1-0.5-0.2c-0.1-0.1-0.2-0.3-0.2-0.5
		c0-0.2,0.1-0.4,0.2-0.5c0.1-0.1,0.3-0.2,0.5-0.2c0.2,0,0.4,0.1,0.5,0.2c0.1,0.1,0.2,0.3,0.2,0.5c0,0.2-0.1,0.4-0.2,0.5
		C262,41.2,261.9,41.2,261.7,41.2z M262.2,50h-1.1v-7h1.1V50z M269.6,43l-2.4,3.5l2.3,3.5h-1.3l-1.4-2.3c-0.1-0.1-0.2-0.3-0.3-0.5h0
		c0,0-0.1,0.2-0.3,0.5l-1.4,2.3h-1.3l2.4-3.4l-2.3-3.6h1.3l1.4,2.4c0.1,0.2,0.2,0.4,0.3,0.5h0l1.8-2.9H269.6z M279.5,49.7
		c-0.5,0.3-1.2,0.5-1.9,0.5c-1,0-1.8-0.3-2.4-1c-0.6-0.7-0.9-1.5-0.9-2.5c0-1.2,0.3-2.1,1-2.8c0.7-0.7,1.5-1.1,2.6-1.1
		c0.6,0,1.2,0.1,1.6,0.3v1.1c-0.5-0.4-1.1-0.5-1.7-0.5c-0.7,0-1.3,0.3-1.8,0.8c-0.5,0.5-0.7,1.2-0.7,2c0,0.8,0.2,1.5,0.6,1.9
		c0.4,0.5,1,0.7,1.7,0.7c0.6,0,1.2-0.2,1.7-0.6V49.7z M284.1,50.2c-1,0-1.9-0.3-2.5-1c-0.6-0.7-0.9-1.5-0.9-2.6c0-1.2,0.3-2.1,1-2.8
		c0.6-0.7,1.5-1,2.6-1c1,0,1.9,0.3,2.4,1c0.6,0.6,0.9,1.5,0.9,2.7c0,1.1-0.3,2-0.9,2.7C286,49.8,285.2,50.2,284.1,50.2z M284.2,43.8
		c-0.7,0-1.3,0.2-1.7,0.7c-0.4,0.5-0.6,1.2-0.6,2c0,0.8,0.2,1.5,0.6,2c0.4,0.5,1,0.7,1.7,0.7c0.7,0,1.3-0.2,1.7-0.7
		c0.4-0.5,0.6-1.1,0.6-2c0-0.9-0.2-1.5-0.6-2C285.5,44,284.9,43.8,284.2,43.8z M290.5,50h-1.1V39.6h1.1V50z M295.7,50.2
		c-1,0-1.9-0.3-2.5-1c-0.6-0.7-0.9-1.5-0.9-2.6c0-1.2,0.3-2.1,1-2.8c0.6-0.7,1.5-1,2.6-1c1,0,1.9,0.3,2.4,1c0.6,0.6,0.9,1.5,0.9,2.7
		c0,1.1-0.3,2-1,2.7C297.6,49.8,296.8,50.2,295.7,50.2z M295.8,43.8c-0.7,0-1.3,0.2-1.7,0.7c-0.4,0.5-0.6,1.2-0.6,2
		c0,0.8,0.2,1.5,0.6,2c0.4,0.5,1,0.7,1.7,0.7c0.7,0,1.3-0.2,1.7-0.7c0.4-0.5,0.6-1.1,0.6-2c0-0.9-0.2-1.5-0.6-2
		C297.1,44,296.5,43.8,295.8,43.8z M304.7,44.1c-0.2-0.2-0.5-0.2-0.8-0.2c-0.5,0-0.9,0.2-1.2,0.7c-0.3,0.5-0.5,1.1-0.5,1.8V50H301
		v-7h1.1v1.4h0c0.2-0.5,0.4-0.9,0.7-1.1c0.3-0.3,0.7-0.4,1.1-0.4c0.3,0,0.5,0,0.7,0.1V44.1z M305.5,49.7v-1.2c0.6,0.5,1.3,0.7,2,0.7
		c1,0,1.5-0.3,1.5-1c0-0.2,0-0.3-0.1-0.5c-0.1-0.1-0.2-0.2-0.3-0.3c-0.1-0.1-0.3-0.2-0.5-0.3c-0.2-0.1-0.4-0.2-0.6-0.3
		c-0.3-0.1-0.6-0.2-0.8-0.4c-0.2-0.1-0.4-0.3-0.6-0.4c-0.2-0.2-0.3-0.3-0.4-0.5c-0.1-0.2-0.1-0.4-0.1-0.7c0-0.3,0.1-0.6,0.2-0.9
		c0.2-0.3,0.4-0.5,0.6-0.6c0.3-0.2,0.5-0.3,0.9-0.4c0.3-0.1,0.7-0.1,1-0.1c0.6,0,1.1,0.1,1.6,0.3v1.1c-0.5-0.3-1.1-0.5-1.8-0.5
		c-0.2,0-0.4,0-0.6,0.1c-0.2,0-0.3,0.1-0.4,0.2c-0.1,0.1-0.2,0.2-0.3,0.3c-0.1,0.1-0.1,0.3-0.1,0.4c0,0.2,0,0.3,0.1,0.5
		c0.1,0.1,0.2,0.2,0.3,0.3c0.1,0.1,0.3,0.2,0.5,0.3c0.2,0.1,0.4,0.2,0.6,0.3c0.3,0.1,0.6,0.2,0.8,0.4c0.2,0.1,0.5,0.3,0.6,0.4
		c0.2,0.2,0.3,0.3,0.4,0.5c0.1,0.2,0.1,0.4,0.1,0.7c0,0.3-0.1,0.6-0.2,0.9c-0.1,0.3-0.4,0.5-0.6,0.6c-0.3,0.2-0.5,0.3-0.9,0.4
		s-0.7,0.1-1,0.1C306.6,50.2,306,50,305.5,49.7z M312.2,50.2c-0.2,0-0.4-0.1-0.5-0.2c-0.1-0.2-0.2-0.3-0.2-0.5
		c0-0.2,0.1-0.4,0.2-0.5c0.1-0.2,0.3-0.2,0.5-0.2c0.2,0,0.4,0.1,0.5,0.2c0.1,0.2,0.2,0.3,0.2,0.5c0,0.2-0.1,0.4-0.2,0.5
		C312.6,50.1,312.4,50.2,312.2,50.2z M324,50h-5.2v-9.8h5v1H320v3.3h3.5v1H320V49h4V50z M330.8,50h-1.1v-1.1h0
		c-0.5,0.8-1.2,1.3-2.2,1.3c-0.7,0-1.2-0.2-1.6-0.6c-0.4-0.4-0.6-0.9-0.6-1.5c0-1.3,0.8-2.1,2.3-2.3l2.1-0.3c0-1.2-0.5-1.8-1.4-1.8
		c-0.8,0-1.6,0.3-2.3,0.9v-1.1c0.7-0.4,1.5-0.7,2.4-0.7c1.6,0,2.5,0.9,2.5,2.6V50z M329.7,46.5l-1.7,0.2c-0.5,0.1-0.9,0.2-1.2,0.4
		c-0.3,0.2-0.4,0.5-0.4,1c0,0.3,0.1,0.6,0.4,0.8c0.2,0.2,0.6,0.3,1,0.3c0.6,0,1-0.2,1.4-0.6c0.4-0.4,0.5-0.9,0.5-1.5V46.5z
		 M337.7,49.7c-0.5,0.3-1.2,0.5-1.9,0.5c-1,0-1.8-0.3-2.4-1c-0.6-0.7-0.9-1.5-0.9-2.5c0-1.2,0.3-2.1,1-2.8c0.7-0.7,1.5-1.1,2.6-1.1
		c0.6,0,1.2,0.1,1.6,0.3v1.1c-0.5-0.4-1.1-0.5-1.7-0.5c-0.7,0-1.3,0.3-1.8,0.8c-0.5,0.5-0.7,1.2-0.7,2c0,0.8,0.2,1.5,0.6,1.9
		c0.4,0.5,1,0.7,1.7,0.7c0.6,0,1.2-0.2,1.7-0.6V49.7z M345.2,50h-1.1v-4c0-1.5-0.5-2.2-1.6-2.2c-0.5,0-1,0.2-1.4,0.6
		c-0.4,0.4-0.6,1-0.6,1.6v4h-1.1V39.6h1.1v4.5h0c0.5-0.9,1.3-1.3,2.3-1.3c1.6,0,2.4,1,2.4,2.9V50z M355.9,49.7
		c-0.5,0.3-1.2,0.5-1.9,0.5c-1,0-1.8-0.3-2.4-1c-0.6-0.7-0.9-1.5-0.9-2.5c0-1.2,0.3-2.1,1-2.8c0.7-0.7,1.5-1.1,2.6-1.1
		c0.6,0,1.2,0.1,1.6,0.3v1.1c-0.5-0.4-1.1-0.5-1.7-0.5c-0.7,0-1.3,0.3-1.8,0.8c-0.5,0.5-0.7,1.2-0.7,2c0,0.8,0.2,1.5,0.6,1.9
		c0.4,0.5,1,0.7,1.7,0.7c0.6,0,1.2-0.2,1.7-0.6V49.7z M360.5,50.2c-1,0-1.9-0.3-2.5-1c-0.6-0.7-0.9-1.5-0.9-2.6c0-1.2,0.3-2.1,1-2.8
		c0.6-0.7,1.5-1,2.6-1c1,0,1.9,0.3,2.4,1c0.6,0.6,0.9,1.5,0.9,2.7c0,1.1-0.3,2-0.9,2.7C362.4,49.8,361.6,50.2,360.5,50.2z
		 M360.6,43.8c-0.7,0-1.3,0.2-1.7,0.7c-0.4,0.5-0.6,1.2-0.6,2c0,0.8,0.2,1.5,0.6,2c0.4,0.5,1,0.7,1.7,0.7c0.7,0,1.3-0.2,1.7-0.7
		c0.4-0.5,0.6-1.1,0.6-2c0-0.9-0.2-1.5-0.6-2C361.9,44,361.3,43.8,360.6,43.8z M366.9,50h-1.1V39.6h1.1V50z M372.1,50.2
		c-1,0-1.9-0.3-2.5-1c-0.6-0.7-0.9-1.5-0.9-2.6c0-1.2,0.3-2.1,1-2.8c0.6-0.7,1.5-1,2.6-1c1,0,1.9,0.3,2.4,1c0.6,0.6,0.9,1.5,0.9,2.7
		c0,1.1-0.3,2-0.9,2.7C374,49.8,373.2,50.2,372.1,50.2z M372.2,43.8c-0.7,0-1.3,0.2-1.7,0.7c-0.4,0.5-0.6,1.2-0.6,2
		c0,0.8,0.2,1.5,0.6,2s1,0.7,1.7,0.7c0.7,0,1.3-0.2,1.7-0.7c0.4-0.5,0.6-1.1,0.6-2c0-0.9-0.2-1.5-0.6-2
		C373.5,44,372.9,43.8,372.2,43.8z M381.1,44.1c-0.2-0.2-0.5-0.2-0.8-0.2c-0.5,0-0.9,0.2-1.2,0.7c-0.3,0.5-0.5,1.1-0.5,1.8V50h-1.1
		v-7h1.1v1.4h0c0.2-0.5,0.4-0.9,0.7-1.1c0.3-0.3,0.7-0.4,1.1-0.4c0.3,0,0.5,0,0.7,0.1V44.1z M386.7,41.2c-0.2,0-0.4-0.1-0.5-0.2
		c-0.1-0.1-0.2-0.3-0.2-0.5c0-0.2,0.1-0.4,0.2-0.5c0.1-0.1,0.3-0.2,0.5-0.2c0.2,0,0.4,0.1,0.5,0.2c0.1,0.1,0.2,0.3,0.2,0.5
		c0,0.2-0.1,0.4-0.2,0.5C387.1,41.2,386.9,41.2,386.7,41.2z M387.2,50h-1.1v-7h1.1V50z M395.3,50h-1.1v-4c0-1.5-0.5-2.2-1.6-2.2
		c-0.6,0-1,0.2-1.4,0.6c-0.4,0.4-0.5,1-0.5,1.6v4h-1.1v-7h1.1v1.2h0c0.5-0.9,1.3-1.3,2.3-1.3c0.8,0,1.4,0.2,1.8,0.7
		c0.4,0.5,0.6,1.2,0.6,2.1V50z M404.5,49.9c-0.3,0.1-0.6,0.2-1,0.2c-1.2,0-1.8-0.7-1.8-2.1V44h-1.2v-1h1.2v-1.7l1.1-0.4V43h1.8v1
		h-1.8v3.9c0,0.5,0.1,0.8,0.2,1c0.2,0.2,0.4,0.3,0.8,0.3c0.3,0,0.5-0.1,0.7-0.2V49.9z M411.8,50h-1.1v-4c0-1.5-0.5-2.2-1.6-2.2
		c-0.5,0-1,0.2-1.4,0.6c-0.4,0.4-0.6,1-0.6,1.6v4H406V39.6h1.1v4.5h0c0.5-0.9,1.3-1.3,2.3-1.3c1.6,0,2.4,1,2.4,2.9V50z M419.6,46.8
		h-4.9c0,0.8,0.2,1.4,0.6,1.8c0.4,0.4,1,0.6,1.7,0.6c0.8,0,1.5-0.3,2.2-0.8v1.1c-0.6,0.4-1.4,0.7-2.4,0.7c-1,0-1.8-0.3-2.3-1
		c-0.6-0.6-0.8-1.5-0.8-2.7c0-1.1,0.3-2,0.9-2.7c0.6-0.7,1.4-1,2.3-1c0.9,0,1.6,0.3,2.1,0.9c0.5,0.6,0.8,1.4,0.8,2.5V46.8z
		 M418.4,45.8c0-0.6-0.2-1.2-0.5-1.5c-0.3-0.4-0.7-0.5-1.3-0.5c-0.5,0-1,0.2-1.3,0.6c-0.4,0.4-0.6,0.9-0.7,1.5H418.4z M428.4,49.9
		c-0.3,0.1-0.6,0.2-1,0.2c-1.2,0-1.8-0.7-1.8-2.1V44h-1.2v-1h1.2v-1.7l1.1-0.4V43h1.8v1h-1.8v3.9c0,0.5,0.1,0.8,0.2,1
		c0.2,0.2,0.4,0.3,0.8,0.3c0.3,0,0.5-0.1,0.7-0.2V49.9z M435.7,50h-1.1v-4c0-1.5-0.5-2.2-1.6-2.2c-0.5,0-1,0.2-1.4,0.6
		c-0.4,0.4-0.6,1-0.6,1.6v4h-1.1V39.6h1.1v4.5h0c0.5-0.9,1.3-1.3,2.3-1.3c1.6,0,2.4,1,2.4,2.9V50z M443.4,46.8h-4.9
		c0,0.8,0.2,1.4,0.6,1.8c0.4,0.4,1,0.6,1.7,0.6c0.8,0,1.5-0.3,2.2-0.8v1.1c-0.6,0.4-1.4,0.7-2.4,0.7c-1,0-1.8-0.3-2.3-1
		c-0.6-0.6-0.8-1.5-0.8-2.7c0-1.1,0.3-2,0.9-2.7c0.6-0.7,1.4-1,2.3-1c0.9,0,1.6,0.3,2.1,0.9c0.5,0.6,0.8,1.4,0.8,2.5V46.8z
		 M442.3,45.8c0-0.6-0.2-1.2-0.5-1.5c-0.3-0.4-0.7-0.5-1.3-0.5c-0.5,0-1,0.2-1.3,0.6c-0.4,0.4-0.6,0.9-0.7,1.5H442.3z M455.1,50
		h-1.1v-4c0-0.8-0.1-1.3-0.4-1.7c-0.2-0.3-0.6-0.5-1.2-0.5c-0.5,0-0.9,0.2-1.2,0.7c-0.3,0.4-0.5,1-0.5,1.6v4h-1.1v-4.2
		c0-1.4-0.5-2.1-1.6-2.1c-0.5,0-0.9,0.2-1.2,0.6c-0.3,0.4-0.5,0.9-0.5,1.6v4h-1.1v-7h1.1v1.1h0c0.5-0.8,1.2-1.3,2.2-1.3
		c0.5,0,0.9,0.1,1.3,0.4c0.4,0.3,0.6,0.6,0.7,1c0.5-1,1.3-1.4,2.3-1.4c1.5,0,2.3,1,2.3,2.9V50z M462.8,46.8h-4.9
		c0,0.8,0.2,1.4,0.6,1.8c0.4,0.4,1,0.6,1.7,0.6c0.8,0,1.5-0.3,2.2-0.8v1.1c-0.6,0.4-1.4,0.7-2.4,0.7c-1,0-1.8-0.3-2.3-1
		c-0.6-0.6-0.8-1.5-0.8-2.7c0-1.1,0.3-2,0.9-2.7c0.6-0.7,1.4-1,2.3-1c0.9,0,1.6,0.3,2.1,0.9c0.5,0.6,0.8,1.4,0.8,2.5V46.8z
		 M461.7,45.8c0-0.6-0.2-1.2-0.5-1.5c-0.3-0.4-0.7-0.5-1.3-0.5c-0.5,0-1,0.2-1.3,0.6c-0.4,0.4-0.6,0.9-0.7,1.5H461.7z M468.9,41.2
		c-0.2,0-0.4-0.1-0.5-0.2s-0.2-0.3-0.2-0.5c0-0.2,0.1-0.4,0.2-0.5c0.1-0.1,0.3-0.2,0.5-0.2c0.2,0,0.4,0.1,0.5,0.2
		c0.1,0.1,0.2,0.3,0.2,0.5c0,0.2-0.1,0.4-0.2,0.5C469.3,41.2,469.1,41.2,468.9,41.2z M469.5,50h-1.1v-7h1.1V50z M471.3,49.7v-1.2
		c0.6,0.5,1.3,0.7,2,0.7c1,0,1.5-0.3,1.5-1c0-0.2,0-0.3-0.1-0.5c-0.1-0.1-0.2-0.2-0.3-0.3c-0.1-0.1-0.3-0.2-0.5-0.3
		c-0.2-0.1-0.4-0.2-0.6-0.3c-0.3-0.1-0.6-0.2-0.8-0.4c-0.2-0.1-0.4-0.3-0.6-0.4c-0.2-0.2-0.3-0.3-0.4-0.5c-0.1-0.2-0.1-0.4-0.1-0.7
		c0-0.3,0.1-0.6,0.2-0.9c0.1-0.3,0.4-0.5,0.6-0.6c0.3-0.2,0.5-0.3,0.9-0.4c0.3-0.1,0.7-0.1,1-0.1c0.6,0,1.1,0.1,1.6,0.3v1.1
		c-0.5-0.3-1.1-0.5-1.8-0.5c-0.2,0-0.4,0-0.6,0.1c-0.2,0-0.3,0.1-0.4,0.2c-0.1,0.1-0.2,0.2-0.3,0.3c-0.1,0.1-0.1,0.3-0.1,0.4
		c0,0.2,0,0.3,0.1,0.5c0.1,0.1,0.2,0.2,0.3,0.3c0.1,0.1,0.3,0.2,0.5,0.3c0.2,0.1,0.4,0.2,0.6,0.3c0.3,0.1,0.6,0.2,0.8,0.4
		c0.2,0.1,0.5,0.3,0.6,0.4c0.2,0.2,0.3,0.3,0.4,0.5c0.1,0.2,0.1,0.4,0.1,0.7c0,0.3-0.1,0.6-0.2,0.9c-0.2,0.3-0.4,0.5-0.6,0.6
		c-0.3,0.2-0.5,0.3-0.9,0.4c-0.3,0.1-0.7,0.1-1,0.1C472.5,50.2,471.8,50,471.3,49.7z M487.3,50h-1.1v-4c0-1.5-0.5-2.2-1.6-2.2
		c-0.6,0-1,0.2-1.4,0.6c-0.4,0.4-0.5,1-0.5,1.6v4h-1.1v-7h1.1v1.2h0c0.5-0.9,1.3-1.3,2.3-1.3c0.8,0,1.4,0.2,1.8,0.7
		c0.4,0.5,0.6,1.2,0.6,2.1V50z M495.1,50H494v-1.1h0c-0.5,0.8-1.2,1.3-2.2,1.3c-1.7,0-2.5-1-2.5-3V43h1.1v4c0,1.5,0.6,2.2,1.7,2.2
		c0.5,0,1-0.2,1.3-0.6c0.4-0.4,0.5-0.9,0.5-1.6v-4h1.1V50z M507.3,50h-1.1v-4c0-0.8-0.1-1.3-0.4-1.7c-0.2-0.3-0.6-0.5-1.2-0.5
		c-0.5,0-0.9,0.2-1.2,0.7c-0.3,0.4-0.5,1-0.5,1.6v4h-1.1v-4.2c0-1.4-0.5-2.1-1.6-2.1c-0.5,0-0.9,0.2-1.2,0.6
		c-0.3,0.4-0.5,0.9-0.5,1.6v4h-1.1v-7h1.1v1.1h0c0.5-0.8,1.2-1.3,2.2-1.3c0.5,0,0.9,0.1,1.3,0.4c0.4,0.3,0.6,0.6,0.7,1
		c0.5-1,1.3-1.4,2.3-1.4c1.5,0,2.3,1,2.3,2.9V50z M510.6,49L510.6,49l0,1h-1.1V39.6h1.1v4.6h0c0.6-0.9,1.4-1.4,2.4-1.4
		c0.9,0,1.6,0.3,2.1,0.9c0.5,0.6,0.8,1.5,0.8,2.5c0,1.2-0.3,2.1-0.9,2.8c-0.6,0.7-1.3,1.1-2.3,1.1C511.8,50.2,511.1,49.8,510.6,49z
		 M510.6,46.2v1c0,0.6,0.2,1.1,0.6,1.5c0.4,0.4,0.9,0.6,1.4,0.6c0.7,0,1.2-0.3,1.6-0.8c0.4-0.5,0.6-1.2,0.6-2.2
		c0-0.8-0.2-1.4-0.5-1.8c-0.4-0.4-0.8-0.7-1.5-0.7c-0.7,0-1.2,0.2-1.6,0.7C510.8,44.9,510.6,45.5,510.6,46.2z M523.3,46.8h-4.9
		c0,0.8,0.2,1.4,0.6,1.8c0.4,0.4,1,0.6,1.7,0.6c0.8,0,1.5-0.3,2.2-0.8v1.1c-0.6,0.4-1.4,0.7-2.4,0.7c-1,0-1.8-0.3-2.3-1
		c-0.6-0.6-0.8-1.5-0.8-2.7c0-1.1,0.3-2,0.9-2.7c0.6-0.7,1.4-1,2.3-1c0.9,0,1.6,0.3,2.1,0.9c0.5,0.6,0.8,1.4,0.8,2.5V46.8z
		 M522.2,45.8c0-0.6-0.2-1.2-0.5-1.5c-0.3-0.4-0.7-0.5-1.3-0.5c-0.5,0-1,0.2-1.3,0.6c-0.4,0.4-0.6,0.9-0.7,1.5H522.2z M528.7,44.1
		c-0.2-0.2-0.5-0.2-0.8-0.2c-0.5,0-0.9,0.2-1.2,0.7c-0.3,0.5-0.5,1.1-0.5,1.8V50H525v-7h1.1v1.4h0c0.2-0.5,0.4-0.9,0.7-1.1
		c0.3-0.3,0.7-0.4,1.1-0.4c0.3,0,0.5,0,0.7,0.1V44.1z M535.5,46.8h-4.9c0,0.8,0.2,1.4,0.6,1.8c0.4,0.4,1,0.6,1.7,0.6
		c0.8,0,1.5-0.3,2.2-0.8v1.1c-0.6,0.4-1.4,0.7-2.4,0.7c-1,0-1.8-0.3-2.3-1c-0.6-0.6-0.8-1.5-0.8-2.7c0-1.1,0.3-2,0.9-2.7
		c0.6-0.7,1.4-1,2.3-1s1.6,0.3,2.1,0.9c0.5,0.6,0.8,1.4,0.8,2.5V46.8z M534.4,45.8c0-0.6-0.2-1.2-0.5-1.5c-0.3-0.4-0.7-0.5-1.3-0.5
		c-0.5,0-1,0.2-1.3,0.6c-0.4,0.4-0.6,0.9-0.7,1.5H534.4z M543.2,50h-1.1v-1.2h0c-0.5,0.9-1.3,1.4-2.4,1.4c-0.9,0-1.6-0.3-2.1-0.9
		c-0.5-0.6-0.8-1.5-0.8-2.6c0-1.2,0.3-2.1,0.9-2.8c0.6-0.7,1.4-1,2.3-1c1,0,1.7,0.4,2.1,1.1h0v-4.3h1.1V50z M542.1,46.8v-1
		c0-0.6-0.2-1-0.6-1.4c-0.4-0.4-0.8-0.6-1.4-0.6c-0.7,0-1.2,0.3-1.6,0.8c-0.4,0.5-0.6,1.2-0.6,2.1c0,0.8,0.2,1.4,0.6,1.9
		c0.4,0.5,0.9,0.7,1.5,0.7c0.6,0,1.1-0.2,1.5-0.7C541.9,48.1,542.1,47.5,542.1,46.8z M545.8,50.2c-0.2,0-0.4-0.1-0.5-0.2
		c-0.1-0.2-0.2-0.3-0.2-0.5c0-0.2,0.1-0.4,0.2-0.5c0.2-0.2,0.3-0.2,0.5-0.2c0.2,0,0.4,0.1,0.5,0.2c0.2,0.2,0.2,0.3,0.2,0.5
		c0,0.2-0.1,0.4-0.2,0.5C546.2,50.1,546.1,50.2,545.8,50.2z M558.3,41.2h-2.8V50h-1.1v-8.8h-2.8v-1h6.8V41.2z M565.5,50h-1.1v-4
		c0-1.5-0.5-2.2-1.6-2.2c-0.5,0-1,0.2-1.4,0.6c-0.4,0.4-0.6,1-0.6,1.6v4h-1.1V39.6h1.1v4.5h0c0.5-0.9,1.3-1.3,2.3-1.3
		c1.6,0,2.4,1,2.4,2.9V50z M573.2,46.8h-4.9c0,0.8,0.2,1.4,0.6,1.8c0.4,0.4,1,0.6,1.7,0.6c0.8,0,1.5-0.3,2.2-0.8v1.1
		c-0.6,0.4-1.4,0.7-2.4,0.7c-1,0-1.8-0.3-2.3-1c-0.6-0.6-0.8-1.5-0.8-2.7c0-1.1,0.3-2,0.9-2.7c0.6-0.7,1.4-1,2.3-1s1.6,0.3,2.1,0.9
		c0.5,0.6,0.8,1.4,0.8,2.5V46.8z M572.1,45.8c0-0.6-0.2-1.2-0.5-1.5c-0.3-0.4-0.7-0.5-1.3-0.5c-0.5,0-1,0.2-1.3,0.6
		c-0.4,0.4-0.6,0.9-0.7,1.5H572.1z M574.5,49.7v-1.2c0.6,0.5,1.3,0.7,2,0.7c1,0,1.5-0.3,1.5-1c0-0.2,0-0.3-0.1-0.5
		c-0.1-0.1-0.2-0.2-0.3-0.3c-0.1-0.1-0.3-0.2-0.5-0.3c-0.2-0.1-0.4-0.2-0.6-0.3c-0.3-0.1-0.6-0.2-0.8-0.4c-0.2-0.1-0.4-0.3-0.6-0.4
		c-0.2-0.2-0.3-0.3-0.4-0.5c-0.1-0.2-0.1-0.4-0.1-0.7c0-0.3,0.1-0.6,0.2-0.9c0.2-0.3,0.4-0.5,0.6-0.6c0.2-0.2,0.5-0.3,0.9-0.4
		c0.3-0.1,0.7-0.1,1-0.1c0.6,0,1.1,0.1,1.6,0.3v1.1c-0.5-0.3-1.1-0.5-1.8-0.5c-0.2,0-0.4,0-0.6,0.1c-0.2,0-0.3,0.1-0.4,0.2
		c-0.1,0.1-0.2,0.2-0.3,0.3c-0.1,0.1-0.1,0.3-0.1,0.4c0,0.2,0,0.3,0.1,0.5c0.1,0.1,0.2,0.2,0.3,0.3c0.1,0.1,0.3,0.2,0.5,0.3
		c0.2,0.1,0.4,0.2,0.6,0.3c0.3,0.1,0.6,0.2,0.8,0.4c0.2,0.1,0.5,0.3,0.6,0.4c0.2,0.2,0.3,0.3,0.4,0.5c0.1,0.2,0.1,0.4,0.1,0.7
		c0,0.3-0.1,0.6-0.2,0.9c-0.2,0.3-0.4,0.5-0.6,0.6c-0.3,0.2-0.5,0.3-0.9,0.4s-0.7,0.1-1,0.1C575.7,50.2,575,50,574.5,49.7z
		 M586.5,46.8h-4.9c0,0.8,0.2,1.4,0.6,1.8c0.4,0.4,1,0.6,1.7,0.6c0.8,0,1.5-0.3,2.2-0.8v1.1c-0.6,0.4-1.4,0.7-2.4,0.7
		c-1,0-1.8-0.3-2.3-1c-0.6-0.6-0.8-1.5-0.8-2.7c0-1.1,0.3-2,0.9-2.7c0.6-0.7,1.4-1,2.3-1c0.9,0,1.6,0.3,2.1,0.9
		c0.5,0.6,0.8,1.4,0.8,2.5V46.8z M585.3,45.8c0-0.6-0.2-1.2-0.5-1.5c-0.3-0.4-0.7-0.5-1.3-0.5c-0.5,0-1,0.2-1.3,0.6
		c-0.4,0.4-0.6,0.9-0.7,1.5H585.3z M597.9,50h-1.1v-4c0-1.5-0.5-2.2-1.6-2.2c-0.6,0-1,0.2-1.4,0.6c-0.4,0.4-0.5,1-0.5,1.6v4H592v-7
		h1.1v1.2h0c0.5-0.9,1.3-1.3,2.3-1.3c0.8,0,1.4,0.2,1.8,0.7c0.4,0.5,0.6,1.2,0.6,2.1V50z M605.6,50h-1.1v-1.1h0
		c-0.5,0.8-1.2,1.3-2.2,1.3c-1.7,0-2.5-1-2.5-3V43h1.1v4c0,1.5,0.6,2.2,1.7,2.2c0.5,0,1-0.2,1.3-0.6c0.4-0.4,0.5-0.9,0.5-1.6v-4h1.1
		V50z M617.8,50h-1.1v-4c0-0.8-0.1-1.3-0.4-1.7c-0.2-0.3-0.6-0.5-1.2-0.5c-0.5,0-0.9,0.2-1.2,0.7c-0.3,0.4-0.5,1-0.5,1.6v4h-1.1
		v-4.2c0-1.4-0.5-2.1-1.6-2.1c-0.5,0-0.9,0.2-1.2,0.6c-0.3,0.4-0.5,0.9-0.5,1.6v4h-1.1v-7h1.1v1.1h0c0.5-0.8,1.2-1.3,2.2-1.3
		c0.5,0,0.9,0.1,1.3,0.4c0.4,0.3,0.6,0.6,0.7,1c0.5-1,1.3-1.4,2.3-1.4c1.5,0,2.3,1,2.3,2.9V50z M621.1,49L621.1,49l0,1H620V39.6h1.1
		v4.6h0c0.6-0.9,1.4-1.4,2.4-1.4c0.9,0,1.6,0.3,2.1,0.9c0.5,0.6,0.8,1.5,0.8,2.5c0,1.2-0.3,2.1-0.9,2.8c-0.6,0.7-1.3,1.1-2.3,1.1
		C622.3,50.2,621.6,49.8,621.1,49z M621.1,46.2v1c0,0.6,0.2,1.1,0.6,1.5c0.4,0.4,0.9,0.6,1.4,0.6c0.7,0,1.2-0.3,1.6-0.8
		c0.4-0.5,0.6-1.2,0.6-2.2c0-0.8-0.2-1.4-0.5-1.8c-0.4-0.4-0.8-0.7-1.5-0.7c-0.7,0-1.2,0.2-1.6,0.7
		C621.3,44.9,621.1,45.5,621.1,46.2z M633.8,46.8h-4.9c0,0.8,0.2,1.4,0.6,1.8c0.4,0.4,1,0.6,1.7,0.6c0.8,0,1.5-0.3,2.2-0.8v1.1
		c-0.6,0.4-1.4,0.7-2.4,0.7c-1,0-1.8-0.3-2.3-1c-0.6-0.6-0.8-1.5-0.8-2.7c0-1.1,0.3-2,0.9-2.7c0.6-0.7,1.4-1,2.3-1
		c0.9,0,1.6,0.3,2.1,0.9c0.5,0.6,0.8,1.4,0.8,2.5V46.8z M632.7,45.8c0-0.6-0.2-1.2-0.5-1.5c-0.3-0.4-0.7-0.5-1.3-0.5
		c-0.5,0-1,0.2-1.3,0.6c-0.4,0.4-0.6,0.9-0.7,1.5H632.7z M639.2,44.1c-0.2-0.2-0.5-0.2-0.8-0.2c-0.5,0-0.9,0.2-1.2,0.7
		c-0.3,0.5-0.5,1.1-0.5,1.8V50h-1.1v-7h1.1v1.4h0c0.2-0.5,0.4-0.9,0.7-1.1c0.3-0.3,0.7-0.4,1.1-0.4c0.3,0,0.5,0,0.7,0.1V44.1z
		 M640,49.7v-1.2c0.6,0.5,1.3,0.7,2,0.7c1,0,1.5-0.3,1.5-1c0-0.2,0-0.3-0.1-0.5c-0.1-0.1-0.2-0.2-0.3-0.3c-0.1-0.1-0.3-0.2-0.5-0.3
		c-0.2-0.1-0.4-0.2-0.6-0.3c-0.3-0.1-0.6-0.2-0.8-0.4c-0.2-0.1-0.4-0.3-0.6-0.4c-0.2-0.2-0.3-0.3-0.4-0.5c-0.1-0.2-0.1-0.4-0.1-0.7
		c0-0.3,0.1-0.6,0.2-0.9c0.2-0.3,0.4-0.5,0.6-0.6c0.2-0.2,0.5-0.3,0.9-0.4c0.3-0.1,0.7-0.1,1-0.1c0.6,0,1.1,0.1,1.6,0.3v1.1
		c-0.5-0.3-1.1-0.5-1.8-0.5c-0.2,0-0.4,0-0.6,0.1c-0.2,0-0.3,0.1-0.4,0.2c-0.1,0.1-0.2,0.2-0.3,0.3c-0.1,0.1-0.1,0.3-0.1,0.4
		c0,0.2,0,0.3,0.1,0.5c0.1,0.1,0.2,0.2,0.3,0.3c0.1,0.1,0.3,0.2,0.5,0.3c0.2,0.1,0.4,0.2,0.6,0.3c0.3,0.1,0.6,0.2,0.8,0.4
		c0.2,0.1,0.5,0.3,0.6,0.4c0.2,0.2,0.3,0.3,0.4,0.5c0.1,0.2,0.1,0.4,0.1,0.7c0,0.3-0.1,0.6-0.2,0.9c-0.2,0.3-0.4,0.5-0.6,0.6
		c-0.3,0.2-0.5,0.3-0.9,0.4s-0.7,0.1-1,0.1C641.1,50.2,640.5,50,640,49.7z M656,50h-1.1v-4c0-1.5-0.5-2.2-1.6-2.2
		c-0.5,0-1,0.2-1.4,0.6c-0.4,0.4-0.6,1-0.6,1.6v4h-1.1V39.6h1.1v4.5h0c0.5-0.9,1.3-1.3,2.3-1.3c1.6,0,2.4,1,2.4,2.9V50z M663.7,46.8
		h-4.9c0,0.8,0.2,1.4,0.6,1.8c0.4,0.4,1,0.6,1.7,0.6c0.8,0,1.5-0.3,2.2-0.8v1.1c-0.6,0.4-1.4,0.7-2.4,0.7c-1,0-1.8-0.3-2.3-1
		c-0.6-0.6-0.8-1.5-0.8-2.7c0-1.1,0.3-2,0.9-2.7c0.6-0.7,1.4-1,2.3-1s1.6,0.3,2.1,0.9c0.5,0.6,0.8,1.4,0.8,2.5V46.8z M662.6,45.8
		c0-0.6-0.2-1.2-0.5-1.5c-0.3-0.4-0.7-0.5-1.3-0.5c-0.5,0-1,0.2-1.3,0.6c-0.4,0.4-0.6,0.9-0.7,1.5H662.6z M666.6,50h-1.1V39.6h1.1
		V50z M670,49L670,49l0,4.2h-1.1V43h1.1v1.2h0c0.6-0.9,1.4-1.4,2.4-1.4c0.9,0,1.6,0.3,2.1,0.9c0.5,0.6,0.8,1.5,0.8,2.5
		c0,1.2-0.3,2.1-0.9,2.8c-0.6,0.7-1.3,1.1-2.3,1.1C671.2,50.2,670.5,49.8,670,49z M669.9,46.2v1c0,0.6,0.2,1.1,0.6,1.5
		c0.4,0.4,0.9,0.6,1.4,0.6c0.7,0,1.2-0.3,1.6-0.8c0.4-0.5,0.6-1.2,0.6-2.2c0-0.8-0.2-1.4-0.5-1.8c-0.4-0.4-0.8-0.7-1.5-0.7
		c-0.7,0-1.2,0.2-1.6,0.7C670.1,44.9,669.9,45.5,669.9,46.2z M689.7,43l-2.1,7h-1.2l-1.4-5c-0.1-0.2-0.1-0.4-0.1-0.6h0
		c0,0.2-0.1,0.4-0.1,0.6l-1.6,5H682l-2.1-7h1.2l1.4,5.3c0,0.2,0.1,0.4,0.1,0.6h0.1c0-0.2,0.1-0.4,0.1-0.6l1.6-5.2h1l1.4,5.3
		c0,0.2,0.1,0.4,0.1,0.6h0.1c0-0.2,0-0.4,0.1-0.6l1.4-5.3H689.7z M696.8,50h-1.1v-4c0-1.5-0.5-2.2-1.6-2.2c-0.5,0-1,0.2-1.4,0.6
		c-0.4,0.4-0.6,1-0.6,1.6v4H691V39.6h1.1v4.5h0c0.5-0.9,1.3-1.3,2.3-1.3c1.6,0,2.4,1,2.4,2.9V50z M704.6,46.8h-4.9
		c0,0.8,0.2,1.4,0.6,1.8c0.4,0.4,1,0.6,1.7,0.6c0.8,0,1.5-0.3,2.2-0.8v1.1c-0.6,0.4-1.4,0.7-2.4,0.7c-1,0-1.8-0.3-2.3-1
		c-0.6-0.6-0.8-1.5-0.8-2.7c0-1.1,0.3-2,0.9-2.7c0.6-0.7,1.4-1,2.3-1c0.9,0,1.6,0.3,2.1,0.9c0.5,0.6,0.8,1.4,0.8,2.5V46.8z
		 M703.4,45.8c0-0.6-0.2-1.2-0.5-1.5c-0.3-0.4-0.7-0.5-1.3-0.5c-0.5,0-1,0.2-1.3,0.6c-0.4,0.4-0.6,0.9-0.7,1.5H703.4z M712.1,50H711
		v-4c0-1.5-0.5-2.2-1.6-2.2c-0.6,0-1,0.2-1.4,0.6c-0.4,0.4-0.5,1-0.5,1.6v4h-1.1v-7h1.1v1.2h0c0.5-0.9,1.3-1.3,2.3-1.3
		c0.8,0,1.4,0.2,1.8,0.7c0.4,0.5,0.6,1.2,0.6,2.1V50z M719.2,49L719.2,49l0,4.2H718V43h1.1v1.2h0c0.6-0.9,1.4-1.4,2.4-1.4
		c0.9,0,1.6,0.3,2.1,0.9c0.5,0.6,0.8,1.5,0.8,2.5c0,1.2-0.3,2.1-0.9,2.8c-0.6,0.7-1.3,1.1-2.3,1.1C720.4,50.2,719.7,49.8,719.2,49z
		 M719.2,46.2v1c0,0.6,0.2,1.1,0.6,1.5c0.4,0.4,0.9,0.6,1.4,0.6c0.7,0,1.2-0.3,1.6-0.8c0.4-0.5,0.6-1.2,0.6-2.2
		c0-0.8-0.2-1.4-0.5-1.8c-0.4-0.4-0.8-0.7-1.5-0.7c-0.7,0-1.2,0.2-1.6,0.7C719.4,44.9,719.2,45.5,719.2,46.2z M731.3,50h-1.1v-1.1h0
		c-0.5,0.8-1.2,1.3-2.2,1.3c-0.7,0-1.2-0.2-1.6-0.6c-0.4-0.4-0.6-0.9-0.6-1.5c0-1.3,0.8-2.1,2.3-2.3l2.1-0.3c0-1.2-0.5-1.8-1.4-1.8
		c-0.8,0-1.6,0.3-2.3,0.9v-1.1c0.7-0.4,1.5-0.7,2.4-0.7c1.6,0,2.5,0.9,2.5,2.6V50z M730.2,46.5l-1.7,0.2c-0.5,0.1-0.9,0.2-1.2,0.4
		c-0.3,0.2-0.4,0.5-0.4,1c0,0.3,0.1,0.6,0.4,0.8c0.2,0.2,0.6,0.3,1,0.3c0.6,0,1-0.2,1.4-0.6c0.4-0.4,0.5-0.9,0.5-1.5V46.5z
		 M734,41.2c-0.2,0-0.4-0.1-0.5-0.2s-0.2-0.3-0.2-0.5c0-0.2,0.1-0.4,0.2-0.5c0.1-0.1,0.3-0.2,0.5-0.2c0.2,0,0.4,0.1,0.5,0.2
		c0.1,0.1,0.2,0.3,0.2,0.5c0,0.2-0.1,0.4-0.2,0.5C734.3,41.2,734.2,41.2,734,41.2z M734.5,50h-1.1v-7h1.1V50z M740.4,44.1
		c-0.2-0.2-0.5-0.2-0.8-0.2c-0.5,0-0.9,0.2-1.2,0.7c-0.3,0.5-0.5,1.1-0.5,1.8V50h-1.1v-7h1.1v1.4h0c0.2-0.5,0.4-0.9,0.7-1.1
		c0.3-0.3,0.7-0.4,1.1-0.4c0.3,0,0.5,0,0.7,0.1V44.1z M742.2,41.2c-0.2,0-0.4-0.1-0.5-0.2s-0.2-0.3-0.2-0.5c0-0.2,0.1-0.4,0.2-0.5
		c0.1-0.1,0.3-0.2,0.5-0.2c0.2,0,0.4,0.1,0.5,0.2c0.1,0.1,0.2,0.3,0.2,0.5c0,0.2-0.1,0.4-0.2,0.5C742.6,41.2,742.4,41.2,742.2,41.2z
		 M742.8,50h-1.1v-7h1.1V50z M750.9,50h-1.1v-4c0-1.5-0.5-2.2-1.6-2.2c-0.6,0-1,0.2-1.4,0.6c-0.4,0.4-0.5,1-0.5,1.6v4H745v-7h1.1
		v1.2h0c0.5-0.9,1.3-1.3,2.3-1.3c0.8,0,1.4,0.2,1.8,0.7c0.4,0.5,0.6,1.2,0.6,2.1V50z M758.9,49.4c0,2.6-1.2,3.9-3.7,3.9
		c-0.9,0-1.6-0.2-2.3-0.5v-1.1c0.8,0.4,1.5,0.7,2.3,0.7c1.7,0,2.6-0.9,2.6-2.7v-0.8h0c-0.5,0.9-1.3,1.3-2.4,1.3
		c-0.9,0-1.6-0.3-2.1-0.9c-0.5-0.6-0.8-1.5-0.8-2.5c0-1.2,0.3-2.1,0.9-2.8c0.6-0.7,1.4-1.1,2.4-1.1c0.9,0,1.6,0.4,2.1,1.1h0v-1h1.1
		V49.4z M757.8,46.8v-1c0-0.6-0.2-1-0.6-1.4c-0.4-0.4-0.8-0.6-1.4-0.6c-0.7,0-1.2,0.3-1.6,0.8c-0.4,0.5-0.6,1.2-0.6,2.1
		c0,0.8,0.2,1.4,0.6,1.9c0.4,0.5,0.9,0.7,1.5,0.7c0.6,0,1.1-0.2,1.5-0.7C757.6,48.1,757.8,47.5,757.8,46.8z M765.6,41.2
		c-0.2,0-0.4-0.1-0.5-0.2s-0.2-0.3-0.2-0.5c0-0.2,0.1-0.4,0.2-0.5c0.1-0.1,0.3-0.2,0.5-0.2c0.2,0,0.4,0.1,0.5,0.2
		c0.1,0.1,0.2,0.3,0.2,0.5c0,0.2-0.1,0.4-0.2,0.5C766,41.2,765.8,41.2,765.6,41.2z M766.2,50h-1.1v-7h1.1V50z M774.3,50h-1.1v-4
		c0-1.5-0.5-2.2-1.6-2.2c-0.6,0-1,0.2-1.4,0.6c-0.4,0.4-0.5,1-0.5,1.6v4h-1.1v-7h1.1v1.2h0c0.5-0.9,1.3-1.3,2.3-1.3
		c0.8,0,1.4,0.2,1.8,0.7c0.4,0.5,0.6,1.2,0.6,2.1V50z M786.2,49.4c0,2.6-1.2,3.9-3.7,3.9c-0.9,0-1.6-0.2-2.3-0.5v-1.1
		c0.8,0.4,1.5,0.7,2.3,0.7c1.7,0,2.6-0.9,2.6-2.7v-0.8h0c-0.5,0.9-1.3,1.3-2.4,1.3c-0.9,0-1.6-0.3-2.1-0.9c-0.5-0.6-0.8-1.5-0.8-2.5
		c0-1.2,0.3-2.1,0.9-2.8c0.6-0.7,1.4-1.1,2.4-1.1c0.9,0,1.6,0.4,2.1,1.1h0v-1h1.1V49.4z M785.1,46.8v-1c0-0.6-0.2-1-0.6-1.4
		c-0.4-0.4-0.8-0.6-1.4-0.6c-0.7,0-1.2,0.3-1.6,0.8c-0.4,0.5-0.6,1.2-0.6,2.1c0,0.8,0.2,1.4,0.6,1.9c0.4,0.5,0.9,0.7,1.5,0.7
		c0.6,0,1.1-0.2,1.5-0.7C784.9,48.1,785.1,47.5,785.1,46.8z M792.1,44.1c-0.2-0.2-0.5-0.2-0.8-0.2c-0.5,0-0.9,0.2-1.2,0.7
		c-0.3,0.5-0.5,1.1-0.5,1.8V50h-1.1v-7h1.1v1.4h0c0.2-0.5,0.4-0.9,0.7-1.1c0.3-0.3,0.7-0.4,1.1-0.4c0.3,0,0.5,0,0.7,0.1V44.1z
		 M796.3,50.2c-1,0-1.9-0.3-2.5-1c-0.6-0.7-0.9-1.5-0.9-2.6c0-1.2,0.3-2.1,1-2.8c0.6-0.7,1.5-1,2.6-1c1,0,1.9,0.3,2.4,1
		c0.6,0.6,0.9,1.5,0.9,2.7c0,1.1-0.3,2-1,2.7C798.2,49.8,797.3,50.2,796.3,50.2z M796.3,43.8c-0.7,0-1.3,0.2-1.7,0.7
		c-0.4,0.5-0.6,1.2-0.6,2c0,0.8,0.2,1.5,0.6,2s1,0.7,1.7,0.7c0.7,0,1.3-0.2,1.7-0.7c0.4-0.5,0.6-1.1,0.6-2c0-0.9-0.2-1.5-0.6-2
		C797.6,44,797.1,43.8,796.3,43.8z M807.2,50h-1.1v-1.1h0c-0.5,0.8-1.2,1.3-2.2,1.3c-1.7,0-2.5-1-2.5-3V43h1.1v4
		c0,1.5,0.6,2.2,1.7,2.2c0.5,0,1-0.2,1.3-0.6c0.4-0.4,0.5-0.9,0.5-1.6v-4h1.1V50z M810.6,49L810.6,49l0,4.2h-1.1V43h1.1v1.2h0
		c0.6-0.9,1.4-1.4,2.4-1.4c0.9,0,1.6,0.3,2.1,0.9c0.5,0.6,0.8,1.5,0.8,2.5c0,1.2-0.3,2.1-0.9,2.8c-0.6,0.7-1.3,1.1-2.3,1.1
		C811.8,50.2,811.1,49.8,810.6,49z M810.6,46.2v1c0,0.6,0.2,1.1,0.6,1.5c0.4,0.4,0.9,0.6,1.4,0.6c0.7,0,1.2-0.3,1.6-0.8
		c0.4-0.5,0.6-1.2,0.6-2.2c0-0.8-0.2-1.4-0.5-1.8c-0.4-0.4-0.8-0.7-1.5-0.7c-0.7,0-1.2,0.2-1.6,0.7
		C810.8,44.9,810.6,45.5,810.6,46.2z M817.3,49.7v-1.2c0.6,0.5,1.3,0.7,2,0.7c1,0,1.5-0.3,1.5-1c0-0.2,0-0.3-0.1-0.5
		c-0.1-0.1-0.2-0.2-0.3-0.3c-0.1-0.1-0.3-0.2-0.5-0.3c-0.2-0.1-0.4-0.2-0.6-0.3c-0.3-0.1-0.6-0.2-0.8-0.4c-0.2-0.1-0.4-0.3-0.6-0.4
		c-0.2-0.2-0.3-0.3-0.4-0.5c-0.1-0.2-0.1-0.4-0.1-0.7c0-0.3,0.1-0.6,0.2-0.9c0.2-0.3,0.4-0.5,0.6-0.6c0.3-0.2,0.5-0.3,0.9-0.4
		c0.3-0.1,0.7-0.1,1-0.1c0.6,0,1.1,0.1,1.6,0.3v1.1c-0.5-0.3-1.1-0.5-1.8-0.5c-0.2,0-0.4,0-0.6,0.1c-0.2,0-0.3,0.1-0.4,0.2
		c-0.1,0.1-0.2,0.2-0.3,0.3c-0.1,0.1-0.1,0.3-0.1,0.4c0,0.2,0,0.3,0.1,0.5c0.1,0.1,0.2,0.2,0.3,0.3c0.1,0.1,0.3,0.2,0.5,0.3
		c0.2,0.1,0.4,0.2,0.6,0.3c0.3,0.1,0.6,0.2,0.8,0.4c0.2,0.1,0.5,0.3,0.6,0.4c0.2,0.2,0.3,0.3,0.4,0.5c0.1,0.2,0.1,0.4,0.1,0.7
		c0,0.3-0.1,0.6-0.2,0.9c-0.2,0.3-0.4,0.5-0.6,0.6c-0.3,0.2-0.5,0.3-0.9,0.4c-0.3,0.1-0.7,0.1-1,0.1C818.4,50.2,817.8,50,817.3,49.7
		z M824,50.2c-0.2,0-0.4-0.1-0.5-0.2c-0.1-0.2-0.2-0.3-0.2-0.5c0-0.2,0.1-0.4,0.2-0.5c0.2-0.2,0.3-0.2,0.5-0.2
		c0.2,0,0.4,0.1,0.5,0.2c0.2,0.2,0.2,0.3,0.2,0.5c0,0.2-0.1,0.4-0.2,0.5C824.4,50.1,824.2,50.2,824,50.2z"/>
	<path class="st0" d="M14,109H8.1v-9.8h5.7v1.8h-3.4v2.2h3.2v1.8h-3.2v2.2H14V109z M22.1,102l-2.3,3.4l2.3,3.6h-2.5l-1-1.9
		c-0.1-0.2-0.2-0.4-0.3-0.6h0c-0.1,0.2-0.2,0.4-0.3,0.6l-1,1.9h-2.5l2.4-3.5l-2.2-3.5h2.5l1,2c0.1,0.3,0.2,0.5,0.3,0.7h0
		c0.1-0.2,0.2-0.4,0.3-0.7l1-1.9H22.1z M28.9,109h-2v-1h0c-0.5,0.8-1.2,1.2-2.1,1.2c-0.7,0-1.2-0.2-1.6-0.6
		c-0.4-0.4-0.6-0.9-0.6-1.5c0-1.4,0.8-2.1,2.4-2.4l1.9-0.3c0-0.8-0.4-1.1-1.2-1.1c-0.8,0-1.6,0.2-2.4,0.7v-1.6
		c0.3-0.2,0.7-0.3,1.2-0.4c0.5-0.1,1-0.2,1.4-0.2c2,0,3,1,3,3V109z M26.9,106.2v-0.5l-1.3,0.2c-0.7,0.1-1.1,0.4-1.1,1
		c0,0.2,0.1,0.4,0.3,0.6c0.2,0.2,0.4,0.2,0.7,0.2c0.4,0,0.7-0.1,1-0.4C26.8,106.9,26.9,106.6,26.9,106.2z M41.7,109h-2.2v-4
		c0-1-0.4-1.5-1.1-1.5c-0.4,0-0.6,0.2-0.9,0.5c-0.2,0.3-0.3,0.7-0.3,1.1v3.9h-2.2v-4c0-1-0.4-1.5-1.1-1.5c-0.4,0-0.7,0.1-0.9,0.4
		c-0.2,0.3-0.3,0.7-0.3,1.2v3.9h-2.2v-7h2.2v1.1h0c0.2-0.4,0.5-0.7,0.9-0.9c0.4-0.2,0.8-0.4,1.3-0.4c1,0,1.7,0.4,2,1.3
		c0.5-0.9,1.3-1.3,2.4-1.3c1.5,0,2.3,0.9,2.3,2.8V109z M45.6,108.2L45.6,108.2l0,4h-2.2V102h2.2v1.1h0c0.5-0.8,1.3-1.2,2.2-1.2
		c0.9,0,1.6,0.3,2.1,0.9c0.5,0.6,0.7,1.5,0.7,2.5c0,1.2-0.3,2.1-0.9,2.8c-0.6,0.7-1.3,1.1-2.3,1.1C46.7,109.2,46.1,108.8,45.6,108.2
		z M45.6,105.3v0.6c0,0.5,0.1,0.9,0.4,1.2c0.3,0.3,0.6,0.5,1,0.5c0.5,0,0.9-0.2,1.1-0.6c0.3-0.4,0.4-0.9,0.4-1.6
		c0-1.2-0.5-1.8-1.4-1.8c-0.4,0-0.8,0.2-1.1,0.5C45.7,104.3,45.6,104.8,45.6,105.3z M54.3,109h-2.2V98.6h2.2V109z M62.4,106.1h-4.6
		c0.1,1,0.7,1.5,1.9,1.5c0.8,0,1.4-0.2,2-0.5v1.6c-0.6,0.3-1.5,0.5-2.5,0.5c-1.1,0-2-0.3-2.6-0.9c-0.6-0.6-0.9-1.5-0.9-2.6
		c0-1.2,0.3-2.1,1-2.8c0.7-0.7,1.5-1,2.5-1c1,0,1.8,0.3,2.4,0.9c0.6,0.6,0.8,1.4,0.8,2.5V106.1z M60.4,104.8c0-1-0.4-1.5-1.2-1.5
		c-0.3,0-0.6,0.1-0.9,0.4c-0.3,0.3-0.4,0.6-0.5,1.1H60.4z M74.7,101h-2.8v8h-2.2v-8h-2.8v-1.8h7.8V101z M82.5,109h-2.2v-4
		c0-1-0.4-1.5-1.1-1.5c-0.4,0-0.7,0.1-0.9,0.4c-0.2,0.3-0.4,0.7-0.4,1.1v4h-2.2V98.6h2.2v4.4h0c0.5-0.8,1.2-1.2,2.2-1.2
		c1.6,0,2.4,1,2.4,2.9V109z M90.5,106.1h-4.6c0.1,1,0.7,1.5,1.9,1.5c0.8,0,1.4-0.2,2-0.5v1.6c-0.6,0.3-1.5,0.5-2.5,0.5
		c-1.1,0-2-0.3-2.6-0.9c-0.6-0.6-0.9-1.5-0.9-2.6c0-1.2,0.3-2.1,1-2.8c0.7-0.7,1.5-1,2.5-1c1,0,1.8,0.3,2.4,0.9
		c0.6,0.6,0.8,1.4,0.8,2.5V106.1z M88.5,104.8c0-1-0.4-1.5-1.2-1.5c-0.3,0-0.6,0.1-0.9,0.4c-0.3,0.3-0.4,0.6-0.5,1.1H88.5z
		 M102.9,109h-2.2v-4c0-1-0.4-1.5-1.1-1.5c-0.4,0-0.6,0.2-0.9,0.5c-0.2,0.3-0.3,0.7-0.3,1.1v3.9h-2.2v-4c0-1-0.4-1.5-1.1-1.5
		c-0.4,0-0.7,0.1-0.9,0.4c-0.2,0.3-0.3,0.7-0.3,1.2v3.9h-2.2v-7h2.2v1.1h0c0.2-0.4,0.5-0.7,0.9-0.9c0.4-0.2,0.8-0.4,1.3-0.4
		c1,0,1.7,0.4,2,1.3c0.5-0.9,1.3-1.3,2.4-1.3c1.5,0,2.3,0.9,2.3,2.8V109z M110.9,106.1h-4.6c0.1,1,0.7,1.5,1.9,1.5
		c0.8,0,1.4-0.2,2-0.5v1.6c-0.6,0.3-1.5,0.5-2.5,0.5c-1.1,0-2-0.3-2.6-0.9c-0.6-0.6-0.9-1.5-0.9-2.6c0-1.2,0.3-2.1,1-2.8
		c0.7-0.7,1.5-1,2.5-1c1,0,1.8,0.3,2.4,0.9c0.6,0.6,0.8,1.4,0.8,2.5V106.1z M108.9,104.8c0-1-0.4-1.5-1.2-1.5
		c-0.3,0-0.6,0.1-0.9,0.4c-0.3,0.3-0.4,0.6-0.5,1.1H108.9z M119.8,106h-3.7v-1.5h3.7V106z M131.6,109h-5.8v-9.8h2.2v8h3.6V109z
		 M133.8,100.9c-0.4,0-0.7-0.1-0.9-0.3c-0.2-0.2-0.3-0.5-0.3-0.8c0-0.3,0.1-0.6,0.3-0.8c0.2-0.2,0.5-0.3,0.9-0.3
		c0.4,0,0.7,0.1,0.9,0.3c0.2,0.2,0.3,0.5,0.3,0.8c0,0.3-0.1,0.6-0.3,0.8C134.5,100.8,134.2,100.9,133.8,100.9z M134.9,109h-2.2v-7
		h2.2V109z M143.6,108.2c0,1.3-0.4,2.3-1.1,3c-0.8,0.7-1.8,1.1-3.3,1.1c-0.9,0-1.7-0.1-2.2-0.4v-1.8c0.7,0.4,1.4,0.6,2.2,0.6
		c0.7,0,1.3-0.2,1.7-0.6c0.4-0.4,0.6-0.9,0.6-1.6V108h0c-0.5,0.8-1.2,1.2-2.2,1.2c-0.9,0-1.6-0.3-2.1-0.9c-0.5-0.6-0.8-1.5-0.8-2.5
		c0-1.2,0.3-2.1,0.9-2.8c0.6-0.7,1.4-1,2.3-1c0.9,0,1.5,0.3,1.9,1h0V102h2.2V108.2z M141.4,105.6v-0.6c0-0.4-0.1-0.8-0.4-1.1
		c-0.3-0.3-0.6-0.5-1-0.5c-0.5,0-0.9,0.2-1.1,0.6c-0.3,0.4-0.4,0.9-0.4,1.6c0,0.6,0.1,1,0.4,1.4c0.3,0.3,0.6,0.5,1.1,0.5
		c0.4,0,0.8-0.2,1.1-0.5C141.3,106.7,141.4,106.2,141.4,105.6z M152.1,109h-2.2v-4c0-1-0.4-1.5-1.1-1.5c-0.4,0-0.7,0.1-0.9,0.4
		c-0.2,0.3-0.4,0.7-0.4,1.1v4h-2.2V98.6h2.2v4.4h0c0.5-0.8,1.2-1.2,2.2-1.2c1.6,0,2.4,1,2.4,2.9V109z M158,108.9
		c-0.3,0.2-0.8,0.3-1.4,0.3c-1.5,0-2.3-0.8-2.3-2.4v-3.2h-1.1V102h1.1v-1.5l2.2-0.6v2.1h1.6v1.6h-1.6v2.8c0,0.7,0.3,1.1,0.9,1.1
		c0.2,0,0.5-0.1,0.7-0.2V108.9z"/>
	<rect x="4" y="128" class="st1" width="44" height="44"/>
	<path d="M27.1,200h-1v-7.9c-0.1,0.1-0.2,0.2-0.4,0.3c-0.2,0.1-0.3,0.2-0.5,0.3c-0.2,0.1-0.4,0.2-0.6,0.3c-0.2,0.1-0.4,0.2-0.6,0.2
		v-1.1c0.2-0.1,0.5-0.1,0.7-0.3c0.3-0.1,0.5-0.2,0.8-0.4c0.2-0.1,0.5-0.3,0.7-0.4c0.2-0.1,0.4-0.3,0.6-0.4h0.4V200z"/>
	<rect x="48" y="128" class="st2" width="44" height="44"/>
	<path d="M71.4,193.3c0-0.3,0-0.5-0.1-0.7c-0.1-0.2-0.2-0.4-0.4-0.5c-0.1-0.1-0.3-0.2-0.5-0.3c-0.2-0.1-0.4-0.1-0.7-0.1
		c-0.2,0-0.4,0-0.6,0.1c-0.2,0.1-0.4,0.1-0.6,0.2c-0.2,0.1-0.4,0.2-0.5,0.3c-0.2,0.1-0.3,0.3-0.5,0.5v-1.1c0.3-0.3,0.6-0.5,1-0.6
		c0.4-0.2,0.8-0.2,1.3-0.2c0.4,0,0.7,0.1,1,0.2c0.3,0.1,0.6,0.3,0.8,0.5c0.2,0.2,0.4,0.5,0.5,0.8c0.1,0.3,0.2,0.7,0.2,1
		c0,0.4,0,0.7-0.1,1c-0.1,0.3-0.2,0.6-0.4,0.8c-0.2,0.3-0.4,0.5-0.6,0.7s-0.6,0.5-0.9,0.7c-0.4,0.3-0.8,0.6-1.1,0.8
		c-0.3,0.2-0.5,0.4-0.7,0.6c-0.2,0.2-0.3,0.4-0.3,0.6c-0.1,0.2-0.1,0.4-0.1,0.6h4.5v0.9h-5.6v-0.5c0-0.4,0-0.7,0.1-1
		c0.1-0.3,0.2-0.6,0.4-0.8c0.2-0.3,0.4-0.5,0.8-0.8c0.3-0.3,0.7-0.6,1.2-0.9c0.3-0.2,0.6-0.5,0.8-0.7c0.2-0.2,0.4-0.4,0.5-0.6
		c0.1-0.2,0.2-0.4,0.3-0.7C71.4,193.8,71.4,193.5,71.4,193.3z"/>
	<rect x="92" y="128" class="st3" width="44" height="44"/>
	<path d="M116.5,197.4c0,0.4-0.1,0.8-0.2,1.1c-0.2,0.3-0.4,0.6-0.7,0.9c-0.3,0.2-0.6,0.4-1,0.6c-0.4,0.1-0.8,0.2-1.3,0.2
		c-0.9,0-1.6-0.2-2.1-0.5v-1.1c0.6,0.5,1.3,0.7,2.1,0.7c0.3,0,0.6,0,0.9-0.1c0.3-0.1,0.5-0.2,0.7-0.3c0.2-0.2,0.3-0.3,0.4-0.6
		c0.1-0.2,0.2-0.5,0.2-0.7c0-1.2-0.8-1.8-2.5-1.8h-0.8v-0.9h0.7c1.5,0,2.2-0.6,2.2-1.7c0-1-0.6-1.5-1.7-1.5c-0.6,0-1.2,0.2-1.8,0.6
		v-1c0.6-0.3,1.3-0.5,2.1-0.5c0.4,0,0.7,0.1,1,0.2c0.3,0.1,0.6,0.3,0.8,0.4c0.2,0.2,0.4,0.4,0.5,0.7c0.1,0.3,0.2,0.6,0.2,0.9
		c0,1.2-0.6,2-1.8,2.3v0c0.3,0,0.6,0.1,0.9,0.2c0.3,0.1,0.5,0.3,0.7,0.5c0.2,0.2,0.3,0.4,0.4,0.7
		C116.5,196.8,116.5,197.1,116.5,197.4z"/>
	<rect x="136" y="128" class="st4" width="44" height="44"/>
	<path d="M159.9,190.9v6h1.2v1h-1.2v2.1h-1v-2.1h-4.3V197c0.4-0.4,0.8-0.9,1.2-1.4c0.4-0.5,0.8-1,1.2-1.6c0.4-0.5,0.7-1,1-1.6
		c0.3-0.5,0.6-1,0.8-1.5H159.9z M155.8,196.9h3.1v-4.5c-0.3,0.6-0.6,1-0.9,1.5c-0.3,0.4-0.6,0.8-0.8,1.2c-0.3,0.4-0.5,0.7-0.7,1
		C156.2,196.4,156,196.7,155.8,196.9z"/>
	<rect x="180" y="128" class="st5" width="44" height="44"/>
	<path d="M204.6,197.2c0,0.4-0.1,0.8-0.2,1.2c-0.2,0.4-0.4,0.7-0.7,0.9c-0.3,0.3-0.6,0.5-1,0.6c-0.4,0.1-0.8,0.2-1.3,0.2
		c-0.8,0-1.5-0.1-1.9-0.4v-1.1c0.6,0.4,1.3,0.6,1.9,0.6c0.3,0,0.6,0,0.9-0.1c0.3-0.1,0.5-0.2,0.7-0.4c0.2-0.2,0.3-0.4,0.4-0.6
		c0.1-0.2,0.2-0.5,0.2-0.8c0-0.6-0.2-1.1-0.6-1.4c-0.4-0.3-1-0.5-1.7-0.5c-0.1,0-0.3,0-0.4,0c-0.1,0-0.3,0-0.4,0c-0.1,0-0.3,0-0.4,0
		c-0.1,0-0.2,0-0.4,0l0.3-4.6h4.2v0.9h-3.3l-0.2,2.7c0.1,0,0.3,0,0.4,0c0.2,0,0.3,0,0.4,0c0.5,0,0.9,0.1,1.3,0.2
		c0.4,0.1,0.7,0.3,1,0.5c0.3,0.2,0.5,0.5,0.6,0.9C204.6,196.4,204.6,196.8,204.6,197.2z"/>
	<rect x="224" y="128" class="st6" width="44" height="44"/>
	<path d="M249,197.1c0,0.4-0.1,0.9-0.2,1.2c-0.1,0.4-0.3,0.7-0.6,1s-0.6,0.5-0.9,0.6c-0.4,0.1-0.7,0.2-1.1,0.2
		c-0.5,0-0.9-0.1-1.2-0.3c-0.4-0.2-0.7-0.5-0.9-0.8c-0.2-0.4-0.4-0.8-0.6-1.3c-0.1-0.5-0.2-1.1-0.2-1.7c0-0.8,0.1-1.5,0.3-2.2
		c0.2-0.6,0.4-1.2,0.7-1.7c0.3-0.5,0.7-0.8,1.2-1.1c0.5-0.2,1-0.4,1.5-0.4c0.6,0,1.1,0.1,1.5,0.3v1c-0.5-0.2-1-0.4-1.5-0.4
		c-0.4,0-0.8,0.1-1.1,0.3c-0.3,0.2-0.6,0.4-0.8,0.8c-0.2,0.3-0.4,0.7-0.5,1.2c-0.1,0.5-0.2,1-0.2,1.6h0c0.4-0.8,1.1-1.1,2.1-1.1
		c0.4,0,0.8,0.1,1.1,0.2c0.3,0.1,0.6,0.3,0.8,0.6c0.2,0.2,0.4,0.5,0.5,0.9C248.9,196.3,249,196.7,249,197.1z M247.9,197.2
		c0-0.3,0-0.6-0.1-0.9c-0.1-0.3-0.2-0.5-0.3-0.6c-0.1-0.2-0.3-0.3-0.6-0.4c-0.2-0.1-0.5-0.1-0.7-0.1c-0.3,0-0.5,0-0.7,0.1
		c-0.2,0.1-0.4,0.2-0.6,0.4c-0.2,0.2-0.3,0.4-0.4,0.6c-0.1,0.2-0.1,0.5-0.1,0.7c0,0.3,0,0.6,0.1,0.9c0.1,0.3,0.2,0.5,0.4,0.7
		s0.4,0.4,0.6,0.5c0.2,0.1,0.5,0.2,0.7,0.2c0.3,0,0.5,0,0.7-0.1c0.2-0.1,0.4-0.2,0.6-0.4c0.2-0.2,0.3-0.4,0.4-0.6
		C247.9,197.8,247.9,197.5,247.9,197.2z"/>
	<rect x="268" y="128" class="st7" width="44" height="44"/>
	<path d="M292.9,191.5c-0.1,0.2-0.3,0.5-0.5,0.9c-0.2,0.4-0.4,0.8-0.6,1.2c-0.2,0.4-0.4,0.9-0.7,1.4c-0.2,0.5-0.4,1-0.6,1.6
		c-0.2,0.6-0.4,1.1-0.5,1.7c-0.1,0.6-0.3,1.1-0.3,1.7h-1.1c0.1-0.5,0.2-1.1,0.3-1.7c0.2-0.6,0.3-1.1,0.5-1.7
		c0.2-0.5,0.4-1.1,0.6-1.6c0.2-0.5,0.4-1,0.7-1.4c0.2-0.4,0.4-0.8,0.6-1.1c0.2-0.3,0.3-0.6,0.4-0.8h-4.6v-0.9h5.8V191.5z"/>
	<rect x="312" y="128" class="st8" width="44" height="44"/>
	<path d="M331.1,197.5c0-0.2,0-0.5,0.1-0.7c0.1-0.2,0.2-0.5,0.3-0.7c0.1-0.2,0.3-0.4,0.5-0.6c0.2-0.2,0.5-0.3,0.7-0.4
		c-0.4-0.2-0.7-0.5-0.9-0.8c-0.2-0.3-0.3-0.7-0.3-1.1c0-0.3,0.1-0.6,0.2-0.9c0.1-0.3,0.3-0.5,0.5-0.7c0.2-0.2,0.5-0.4,0.8-0.5
		c0.3-0.1,0.7-0.2,1-0.2c0.4,0,0.7,0.1,1,0.2c0.3,0.1,0.6,0.3,0.8,0.5c0.2,0.2,0.4,0.5,0.5,0.7c0.1,0.3,0.2,0.6,0.2,0.9
		c0,0.4-0.1,0.8-0.3,1.1c-0.2,0.3-0.5,0.6-0.9,0.8c0.3,0.1,0.5,0.2,0.7,0.4c0.2,0.2,0.4,0.4,0.5,0.6c0.1,0.2,0.3,0.4,0.3,0.7
		c0.1,0.2,0.1,0.5,0.1,0.7c0,0.4-0.1,0.8-0.2,1.1c-0.1,0.3-0.3,0.6-0.6,0.9c-0.3,0.2-0.6,0.4-0.9,0.5c-0.4,0.1-0.8,0.2-1.2,0.2
		c-0.4,0-0.8-0.1-1.2-0.2c-0.4-0.1-0.7-0.3-0.9-0.5c-0.3-0.2-0.5-0.5-0.6-0.9C331.1,198.2,331.1,197.9,331.1,197.5z M332.2,197.4
		c0,0.3,0,0.5,0.1,0.8c0.1,0.2,0.2,0.4,0.4,0.6c0.2,0.2,0.4,0.3,0.6,0.4c0.2,0.1,0.5,0.1,0.8,0.1c0.3,0,0.5,0,0.7-0.1
		c0.2-0.1,0.4-0.2,0.6-0.4c0.2-0.2,0.3-0.4,0.4-0.6c0.1-0.2,0.1-0.5,0.1-0.8c0-0.3,0-0.5-0.1-0.7c-0.1-0.2-0.2-0.4-0.4-0.6
		c-0.2-0.2-0.4-0.3-0.6-0.4c-0.2-0.1-0.5-0.1-0.8-0.1c-0.3,0-0.5,0-0.7,0.1c-0.2,0.1-0.4,0.2-0.6,0.4c-0.2,0.2-0.3,0.4-0.4,0.6
		C332.2,196.9,332.2,197.1,332.2,197.4z M332.5,193.2c0,0.2,0,0.4,0.1,0.6c0.1,0.2,0.2,0.3,0.3,0.5c0.1,0.1,0.3,0.2,0.5,0.3
		c0.2,0.1,0.4,0.1,0.6,0.1c0.2,0,0.4,0,0.6-0.1c0.2-0.1,0.3-0.2,0.5-0.3c0.1-0.1,0.2-0.3,0.3-0.5c0.1-0.2,0.1-0.4,0.1-0.6
		c0-0.2,0-0.4-0.1-0.6c-0.1-0.2-0.2-0.3-0.3-0.5c-0.1-0.1-0.3-0.2-0.5-0.3c-0.2-0.1-0.4-0.1-0.6-0.1c-0.2,0-0.4,0-0.6,0.1
		c-0.2,0.1-0.3,0.2-0.5,0.3c-0.1,0.1-0.2,0.3-0.3,0.5S332.5,192.9,332.5,193.2z"/>
	<rect x="356" y="128" class="st9" width="44" height="44"/>
	<path d="M380.9,194.9c0,0.8-0.1,1.6-0.2,2.2c-0.2,0.6-0.4,1.2-0.7,1.7c-0.3,0.4-0.7,0.8-1.2,1c-0.5,0.2-1,0.3-1.6,0.3
		c-0.6,0-1.1-0.1-1.6-0.3v-1c0.5,0.3,1,0.4,1.6,0.4c0.4,0,0.8-0.1,1.1-0.3c0.3-0.2,0.6-0.4,0.8-0.7c0.2-0.3,0.4-0.7,0.5-1.2
		c0.1-0.5,0.2-1,0.2-1.6h0c-0.4,0.8-1.1,1.2-2,1.2c-0.4,0-0.7-0.1-1.1-0.2c-0.3-0.1-0.6-0.3-0.8-0.6c-0.2-0.3-0.4-0.6-0.6-0.9
		c-0.1-0.3-0.2-0.7-0.2-1.1c0-0.4,0.1-0.9,0.2-1.2c0.1-0.4,0.4-0.7,0.6-1c0.3-0.3,0.6-0.5,0.9-0.6c0.4-0.1,0.8-0.2,1.2-0.2
		c0.5,0,0.9,0.1,1.2,0.3c0.4,0.2,0.7,0.5,0.9,0.8c0.2,0.4,0.4,0.8,0.6,1.3C380.8,193.6,380.9,194.2,380.9,194.9z M379.7,194
		c0-0.4,0-0.7-0.1-1c-0.1-0.3-0.2-0.5-0.4-0.7c-0.2-0.2-0.4-0.4-0.6-0.5c-0.2-0.1-0.5-0.2-0.7-0.2c-0.2,0-0.5,0.1-0.7,0.2
		c-0.2,0.1-0.4,0.2-0.6,0.4c-0.2,0.2-0.3,0.4-0.4,0.6c-0.1,0.2-0.1,0.5-0.1,0.8c0,0.3,0,0.6,0.1,0.9c0.1,0.3,0.2,0.5,0.4,0.6
		c0.2,0.2,0.4,0.3,0.6,0.4c0.2,0.1,0.5,0.1,0.8,0.1c0.2,0,0.5,0,0.7-0.1c0.2-0.1,0.4-0.2,0.6-0.4c0.2-0.2,0.3-0.3,0.4-0.5
		C379.7,194.4,379.7,194.2,379.7,194z"/>
	<rect x="400" y="128" class="st10" width="44" height="44"/>
	<path d="M420.1,200h-1v-7.9c-0.1,0.1-0.2,0.2-0.4,0.3c-0.2,0.1-0.3,0.2-0.5,0.3c-0.2,0.1-0.4,0.2-0.6,0.3c-0.2,0.1-0.4,0.2-0.6,0.2
		v-1.1c0.2-0.1,0.5-0.1,0.7-0.3c0.3-0.1,0.5-0.2,0.8-0.4c0.2-0.1,0.5-0.3,0.7-0.4c0.2-0.1,0.4-0.3,0.6-0.4h0.4V200z M429,195.4
		c0,0.8-0.1,1.4-0.2,2c-0.1,0.6-0.3,1.1-0.6,1.5c-0.3,0.4-0.6,0.7-1,0.9c-0.4,0.2-0.8,0.3-1.3,0.3c-0.5,0-0.9-0.1-1.2-0.3
		c-0.4-0.2-0.7-0.5-0.9-0.9c-0.2-0.4-0.4-0.9-0.6-1.4c-0.1-0.6-0.2-1.2-0.2-1.9c0-0.8,0.1-1.5,0.2-2.1c0.1-0.6,0.3-1.1,0.6-1.5
		c0.3-0.4,0.6-0.7,1-0.9c0.4-0.2,0.8-0.3,1.3-0.3C428,190.7,429,192.3,429,195.4z M427.9,195.5c0-2.6-0.6-3.9-1.8-3.9
		c-1.3,0-1.9,1.3-1.9,4c0,2.5,0.6,3.7,1.9,3.7C427.3,199.3,427.9,198,427.9,195.5z"/>
	<path d="M14.1,9.2h-3.8V20H7.9V9.2H4.1v-2h10V9.2z M15.6,7.3h2.2v4.4h0c0.7-0.9,1.7-1.3,3-1.3c1.2,0,2,0.3,2.6,1
		c0.6,0.7,0.8,1.5,0.8,2.4V20H22v-5.7c0-0.6-0.1-1.1-0.4-1.5c-0.3-0.4-0.8-0.6-1.5-0.6c-0.7,0-1.3,0.2-1.7,0.7
		c-0.4,0.5-0.6,1.1-0.6,1.8V20h-2.2V7.3z M35.2,16.1h-6.5c0.1,0.7,0.4,1.3,0.8,1.7c0.4,0.4,1,0.6,1.8,0.6c0.5,0,1-0.1,1.4-0.2
		c0.4-0.1,0.8-0.4,1.3-0.6l1,1.4c-0.5,0.4-1.1,0.7-1.7,0.9c-0.6,0.2-1.3,0.3-2.1,0.3c-1,0-1.8-0.2-2.5-0.6c-0.7-0.4-1.3-1-1.6-1.7
		c-0.4-0.7-0.6-1.6-0.6-2.6c0-1.5,0.4-2.7,1.2-3.6c0.8-0.9,1.9-1.4,3.3-1.4c1.4,0,2.5,0.4,3.2,1.3c0.7,0.9,1.1,2.1,1.1,3.6
		C35.2,15.6,35.2,15.9,35.2,16.1z M33,14.5c0-0.7-0.2-1.3-0.6-1.7c-0.3-0.4-0.9-0.7-1.5-0.7c-0.7,0-1.2,0.2-1.6,0.7
		c-0.4,0.4-0.6,1-0.6,1.7H33z M37.4,12.8c0-0.5-0.1-1.2-0.2-2.1h2.2c0.1,0.4,0.1,0.7,0.1,1.1h0c0.3-0.4,0.7-0.7,1.2-1
		c0.5-0.2,1.1-0.4,1.7-0.4c1.4,0,2.4,0.5,3,1.5h0c0.7-1,1.7-1.5,3.1-1.5c0.8,0,1.4,0.2,1.9,0.5c0.5,0.3,0.9,0.8,1.2,1.3
		c0.3,0.6,0.4,1.1,0.4,1.8v6h-2.2v-5.7c0-0.6-0.1-1.1-0.4-1.5c-0.3-0.4-0.7-0.6-1.4-0.6c-0.7,0-1.2,0.3-1.6,0.8
		c-0.4,0.5-0.6,1.1-0.6,1.9V20h-2.3v-5.8c0-0.5-0.1-1-0.4-1.4c-0.3-0.4-0.7-0.6-1.4-0.6c-0.7,0-1.2,0.2-1.6,0.7
		c-0.4,0.5-0.6,1.1-0.6,1.8V20h-2.2V12.8z M63,16.1h-6.5c0.1,0.7,0.4,1.3,0.8,1.7c0.4,0.4,1.1,0.6,1.8,0.6c0.5,0,1-0.1,1.4-0.2
		c0.4-0.1,0.8-0.4,1.3-0.6l1,1.4c-0.5,0.4-1.1,0.7-1.7,0.9c-0.6,0.2-1.3,0.3-2.1,0.3c-1,0-1.8-0.2-2.5-0.6c-0.7-0.4-1.3-1-1.6-1.7
		c-0.4-0.7-0.6-1.6-0.6-2.6c0-1.5,0.4-2.7,1.2-3.6c0.8-0.9,1.9-1.4,3.3-1.4c1.4,0,2.5,0.4,3.2,1.3c0.7,0.9,1.1,2.1,1.1,3.6
		C63,15.6,63,15.9,63,16.1z M60.8,14.5c0-0.7-0.2-1.3-0.6-1.7c-0.3-0.4-0.9-0.7-1.5-0.7c-0.7,0-1.2,0.2-1.6,0.7
		c-0.4,0.4-0.6,1-0.6,1.7H60.8z M80.4,8.5L79,10c-0.4-0.3-0.9-0.6-1.4-0.8C77.1,9,76.5,8.9,76,8.9c-1.4,0-2.4,0.4-3.1,1.3
		c-0.7,0.8-1,2-1,3.4c0,1.4,0.3,2.5,1,3.4c0.7,0.8,1.7,1.3,3,1.3c0.6,0,1.2-0.1,1.8-0.3c0.5-0.2,1-0.6,1.4-0.9l1.4,1.5
		c-0.5,0.5-1.2,1-2,1.3c-0.8,0.3-1.7,0.5-2.6,0.5c-1.4,0-2.5-0.3-3.5-0.8c-1-0.6-1.7-1.4-2.2-2.4c-0.5-1-0.7-2.2-0.7-3.5
		c0-1.3,0.2-2.5,0.7-3.5c0.5-1,1.2-1.8,2.2-2.3c1-0.6,2.1-0.8,3.5-0.8c0.9,0,1.7,0.1,2.5,0.4S79.8,8,80.4,8.5z M90.9,15.3
		c0,1-0.2,1.8-0.6,2.6c-0.4,0.7-0.9,1.3-1.7,1.7C87.9,20,87,20.3,86,20.3s-1.9-0.2-2.6-0.6c-0.7-0.4-1.3-1-1.7-1.8
		c-0.4-0.8-0.6-1.6-0.6-2.6c0-1,0.2-1.8,0.6-2.6c0.4-0.7,0.9-1.3,1.7-1.7c0.7-0.4,1.6-0.6,2.6-0.6c1,0,1.9,0.2,2.6,0.6
		s1.3,1,1.7,1.7C90.7,13.4,90.9,14.3,90.9,15.3z M83.5,15.3c0,1,0.2,1.7,0.6,2.3c0.4,0.6,1.1,0.9,1.9,0.9s1.5-0.3,1.9-0.9
		c0.4-0.6,0.6-1.4,0.6-2.3c0-0.9-0.2-1.7-0.6-2.2c-0.4-0.6-1.1-0.8-2-0.8c-0.9,0-1.5,0.3-1.9,0.8C83.7,13.6,83.5,14.3,83.5,15.3z
		 M95.4,7.3V20h-2.2V7.3H95.4z M107.3,15.3c0,1-0.2,1.8-0.6,2.6c-0.4,0.7-0.9,1.3-1.7,1.7c-0.7,0.4-1.6,0.6-2.6,0.6
		c-1,0-1.9-0.2-2.6-0.6c-0.7-0.4-1.3-1-1.7-1.8c-0.4-0.8-0.6-1.6-0.6-2.6c0-1,0.2-1.8,0.6-2.6c0.4-0.7,0.9-1.3,1.7-1.7
		c0.7-0.4,1.6-0.6,2.6-0.6c1,0,1.9,0.2,2.6,0.6c0.7,0.4,1.3,1,1.7,1.7C107.2,13.4,107.3,14.3,107.3,15.3z M99.9,15.3
		c0,1,0.2,1.7,0.6,2.3c0.4,0.6,1.1,0.9,1.9,0.9s1.5-0.3,1.9-0.9c0.4-0.6,0.6-1.4,0.6-2.3c0-0.9-0.2-1.7-0.6-2.2
		c-0.4-0.6-1.1-0.8-2-0.8c-0.9,0-1.5,0.3-1.9,0.8C100.1,13.6,99.9,14.3,99.9,15.3z M109.6,12.8c0-0.5-0.1-1.2-0.2-2.1h2.2
		c0.1,0.5,0.1,0.9,0.1,1.3h0c0.6-1,1.5-1.5,2.8-1.5c0.2,0,0.4,0,0.6,0.1l-0.1,1.9c-0.2,0-0.4-0.1-0.7-0.1c-0.8,0-1.4,0.3-1.9,0.8
		c-0.4,0.5-0.6,1.2-0.6,2V20h-2.2V12.8z M122.8,11.4l-0.9,1.4c-0.7-0.5-1.5-0.7-2.2-0.7c-0.5,0-0.9,0.1-1.1,0.3
		c-0.3,0.2-0.4,0.4-0.4,0.7c0,0.3,0.1,0.5,0.2,0.6c0.1,0.1,0.3,0.3,0.6,0.4c0.3,0.1,0.7,0.2,1.3,0.4c0.9,0.2,1.6,0.6,2.1,1
		c0.5,0.4,0.7,1,0.7,1.8c0,1-0.4,1.7-1.1,2.3c-0.7,0.5-1.7,0.8-2.7,0.8c-1.4,0-2.5-0.4-3.5-1.1l1-1.4c0.4,0.2,0.8,0.4,1.1,0.5
		c0.4,0.1,0.8,0.2,1.2,0.2c0.5,0,0.9-0.1,1.2-0.3c0.3-0.2,0.4-0.5,0.4-0.9c0-0.3-0.1-0.5-0.2-0.6c-0.1-0.1-0.3-0.3-0.6-0.4
		s-0.7-0.2-1.2-0.4c-0.9-0.2-1.6-0.6-2.1-1c-0.4-0.4-0.6-1.1-0.6-1.8c0-0.9,0.3-1.6,1-2.1c0.7-0.5,1.6-0.8,2.7-0.8
		C120.8,10.4,121.9,10.7,122.8,11.4z"/>
</g>
</svg>
